<svg width="100" height="100" viewBox="0 0 100 100" fill="none" xmlns="http://www.w3.org/2000/svg">
<path d="M0 16C0 7.16345 7.16344 0 16 0H84C92.8366 0 100 7.16344 100 16V84C100 92.8366 92.8366 100 84 100H16C7.16345 100 0 92.8366 0 84V16Z" fill="#e76e23"/>
<path d="M68.1636 77.2628C65.211 77.2628 62.6597 76.7892 60.5098 75.8419C58.3885 74.866 56.6399 73.6461 55.2639 72.1823C53.9166 70.6897 52.9134 69.1684 52.254 67.6185C51.6234 66.0685 51.308 64.7194 51.308 63.5713C51.308 62.5667 51.523 61.8634 51.953 61.4616C52.4117 61.031 53.028 60.8158 53.802 60.8158C54.5759 60.8158 55.1636 61.0454 55.5649 61.5047C55.9949 61.9639 56.3533 62.6241 56.6399 63.4852C57.1846 65.0352 57.9442 66.4272 58.9188 67.6615C59.9222 68.8958 61.1835 69.8716 62.7027 70.5892C64.2507 71.3068 66.0996 71.6656 68.2496 71.6656C70.9729 71.6656 73.18 70.9911 74.8717 69.642C76.5917 68.2643 77.4516 66.4416 77.4516 64.1741C77.4516 62.2509 76.9498 60.7153 75.9467 59.5672C74.943 58.3904 73.61 57.4288 71.9475 56.6825C70.3135 55.9075 68.5076 55.2043 66.5296 54.5728C64.5804 53.9413 62.6167 53.2094 60.6388 52.377C58.6895 51.5446 56.8836 50.4683 55.2209 49.1479C53.587 47.8275 52.2684 46.1053 51.265 43.9813C50.2617 41.8573 49.7601 39.1735 49.7601 35.93C49.7601 32.1699 50.5197 28.9982 52.039 26.4149C53.5583 23.8316 55.7226 21.8798 58.5318 20.5594C61.3411 19.2104 64.6664 18.5358 68.5076 18.5358C71.9189 18.5358 74.7998 18.952 77.1507 19.7844C79.5009 20.6168 81.3787 21.6788 82.7835 22.9705C84.2166 24.2334 85.2486 25.5395 85.8794 26.8885C86.5097 28.2375 86.8254 29.4144 86.8254 30.419C86.8254 31.6533 86.4955 32.5574 85.8364 33.1315C85.1767 33.6768 84.4175 33.9495 83.5575 33.9495C82.6686 33.9495 81.9088 33.6338 81.2785 33.0023C80.6477 32.3421 79.9886 31.5958 79.3006 30.7634C78.6409 29.9311 77.7809 29.1991 76.7207 28.5676C75.6598 27.9075 74.2409 27.5774 72.4635 27.5774C70.3709 27.5774 68.7226 28.1658 67.5186 29.3426C66.3433 30.5194 65.7556 32.0838 65.7556 34.0356C65.7556 35.7578 66.0853 37.2504 66.7446 38.5133C67.4326 39.7762 68.3356 40.9244 69.4535 41.9577C70.6002 42.9623 71.8329 43.9239 73.1518 44.8424C74.4989 45.7322 75.8318 46.6794 77.1507 47.684C78.4977 48.6886 79.7306 49.8368 80.8486 51.1284C81.9948 52.3913 82.8978 53.8696 83.5575 55.5631C84.2455 57.2565 84.5895 59.2658 84.5895 61.5908C84.5895 63.9731 84.2166 66.1259 83.4715 68.049C82.7546 69.9721 81.6938 71.6226 80.2896 73.0003C78.8847 74.3781 77.1648 75.4401 75.1297 76.1864C73.094 76.904 70.7722 77.2628 68.1636 77.2628ZM62.9177 48.5021C65.039 48.5021 66.0996 47.6122 66.0996 45.8327C66.0996 44.8854 65.8703 44.1678 65.4117 43.6799C64.953 43.1633 64.2937 42.9049 63.4337 42.9049C62.3731 42.9049 61.6134 43.1489 61.1548 43.6369C60.7248 44.1248 60.5098 44.8281 60.5098 45.7465C60.5098 46.5503 60.7392 47.2104 61.1978 47.7271C61.6564 48.2437 62.2297 48.5021 62.9177 48.5021ZM58.1878 41.5272C59.3058 41.5272 60.1372 41.2258 60.6818 40.623C61.2551 39.9915 61.5418 39.2309 61.5418 38.3411C61.5418 37.2217 61.2695 36.4036 60.7248 35.887C60.1802 35.3416 59.3345 35.0689 58.1878 35.0689C57.1273 35.0689 56.3389 35.3273 55.8229 35.8439C55.3356 36.3319 55.0919 37.1643 55.0919 38.3411C55.0919 39.3744 55.3786 40.1637 55.9519 40.7091C56.5539 41.2545 57.2992 41.5272 58.1878 41.5272ZM58.5318 32.2273C59.6212 32.2273 60.4238 31.9833 60.9398 31.4954C61.4558 30.9787 61.7138 30.2468 61.7138 29.2996C61.7138 28.295 61.4844 27.5774 61.0258 27.1468C60.5672 26.6875 59.7358 26.4579 58.5318 26.4579C57.8439 26.4579 57.2419 26.6875 56.7259 27.1468C56.2099 27.5774 55.9519 28.295 55.9519 29.2996C55.9519 30.1607 56.1813 30.8639 56.6399 31.4093C57.1272 31.9546 57.7579 32.2273 58.5318 32.2273ZM83.7295 33.2606C83.0415 33.2606 82.4966 33.0741 82.0955 32.7009C81.6938 32.2991 81.4935 31.7106 81.4935 30.9357C81.4935 30.1894 81.7227 29.6297 82.1815 29.2565C82.6686 28.8833 83.2706 28.6968 83.9875 28.6968C84.6466 28.6968 85.1484 28.9264 85.4924 29.3857C85.8647 29.8162 86.0514 30.3616 86.0514 31.0218C86.0514 31.7106 85.8506 32.256 85.4494 32.6578C85.0477 33.0597 84.4746 33.2606 83.7295 33.2606ZM78.3116 70.9767L81.3215 67.7907C83.9875 69.7425 85.9366 71.2925 87.1694 72.4406C88.4016 73.56 89.1185 74.4499 89.3193 75.11C89.5485 75.7415 89.4625 76.3156 89.0613 76.8322C88.5736 77.4637 87.9575 77.7364 87.2124 77.6503C86.4955 77.5354 85.4347 76.9614 84.0305 75.9281C82.6545 74.866 80.7478 73.2156 78.3116 70.9767ZM71.6895 74.5072L76.6777 72.2684C78.4548 76.0572 79.7158 78.9562 80.4616 80.9655C81.2067 83.0032 81.5218 84.4529 81.4075 85.314C81.3215 86.1751 80.8916 86.7637 80.1176 87.0793C79.2859 87.4237 78.5119 87.2946 77.7956 86.6918C77.1077 86.1179 76.2907 84.8693 75.3447 82.946C74.427 81.0227 73.2089 78.21 71.6895 74.5072ZM63.9497 75.4544L68.9376 75.6267C69.2242 79.6738 69.3676 82.7449 69.3676 84.8404C69.3962 86.936 69.2099 88.3568 68.8086 89.1029C68.4073 89.8779 67.705 90.2943 66.7016 90.3515C65.8703 90.3804 65.211 90.0212 64.7237 89.2751C64.2364 88.5573 63.9211 87.1223 63.7777 84.9696C63.6631 82.8457 63.7204 79.6738 63.9497 75.4544ZM57.4139 73.8184C57.5572 73.6461 57.7005 73.4739 57.8439 73.3017C58.0159 73.1295 58.1592 72.986 58.2738 72.8712C58.7612 72.3832 59.2628 72.1535 59.7788 72.1823C60.2948 72.211 60.7392 72.3832 61.1118 72.6989C61.5991 72.986 61.9287 73.4165 62.1007 73.9906C62.3014 74.536 62.2297 75.0239 61.8857 75.4544C61.7998 75.5693 61.6994 75.7128 61.5848 75.885C61.4701 76.0285 61.3698 76.1721 61.2838 76.3155C59.4492 78.7266 57.9872 80.4058 56.8979 81.353C55.8086 82.3291 54.9486 82.8457 54.3179 82.903C53.716 82.9602 53.2287 82.831 52.856 82.5155C52.512 82.1999 52.3114 81.7546 52.254 81.1808C52.2254 80.6069 52.5694 79.7456 53.286 78.5975C54.0313 77.4493 55.4073 75.8563 57.4139 73.8184ZM55.8659 65.8102L57.1559 69.8573C54.7766 71.0055 52.899 71.8522 51.523 72.3976C50.1757 72.9142 49.1581 73.1295 48.4701 73.0434C47.8108 72.9573 47.3235 72.5554 47.0081 71.8378C46.6641 70.9767 46.7215 70.2448 47.1801 69.642C47.6675 69.0105 48.6135 68.4078 50.0181 67.8337C51.4514 67.2597 53.4007 66.5851 55.8659 65.8102Z" fill="white"/>
<path fill-rule="evenodd" clip-rule="evenodd" d="M14.0314 67.5139C14.2608 71.4749 14.4758 75.4503 14.6764 79.4401C14.7051 80.5595 15.0491 81.3634 15.7084 81.8512C16.3677 82.3678 17.1417 82.6262 18.0303 82.6262C18.6036 82.6262 19.134 82.5112 19.6213 82.2817C20.1086 82.0806 20.51 81.7362 20.8253 81.2484C21.1406 80.789 21.3269 80.1862 21.3842 79.4401C21.6136 76.8855 21.7139 74.2735 21.6852 71.6041C21.6852 68.9347 21.7856 66.3514 21.9862 63.8542C22.041 63.1047 22.6739 62.5214 23.285 61.9583C23.6333 61.6374 23.9745 61.323 24.1975 60.988C24.6064 60.3739 25.1189 58.946 25.1189 57.2976V55.2555C25.1189 54.5298 25.1189 54.0254 25.7332 53.4103C26.3475 52.7953 26.7161 52.6887 27.9201 52.5738C29.984 52.2868 32.048 52.129 34.1119 52.1002C36.1759 52.0428 38.3258 51.885 40.5617 51.6266C41.565 51.4831 42.3247 51.0669 42.8407 50.378C43.3567 49.6604 43.6147 48.9285 43.6147 48.1822C43.6147 47.3785 43.3137 46.661 42.7117 46.0295C42.1097 45.398 41.1924 45.111 39.9598 45.1684C38.0678 45.2545 36.1759 45.441 34.2839 45.7281C32.392 46.0152 30.5 46.2304 28.6081 46.3739C27.2894 46.46 26.4438 46.3021 26.0711 45.9003C25.6984 45.4698 25.5121 44.7666 25.5121 43.7906V41.6379C25.5408 40.9203 25.5981 40.2027 25.6841 39.4851C25.7701 38.7101 25.8991 38.0787 26.0711 37.5907C26.2718 37.1028 26.5441 36.6722 26.8881 36.2991C27.2321 35.9546 27.6478 35.6389 28.1351 35.3519C28.6511 35.0648 29.2674 34.7778 29.984 34.4908C31.6753 33.7732 33.4526 33.1848 35.3159 32.7255C37.1791 32.2376 39.1858 31.563 41.3357 30.7019C42.7404 30.1279 43.9587 29.4533 44.9906 28.6783C46.0513 27.8746 46.5816 26.6548 46.5816 25.0187C46.5816 23.8418 46.1086 22.8229 45.1626 21.9618C44.2453 21.1007 42.769 20.541 40.7337 20.2826C37.2651 19.7947 33.5386 19.4789 29.554 19.3354C25.5695 19.1632 21.4702 19.1632 17.2564 19.3354C15.2784 19.4215 13.8451 19.8234 12.9565 20.541C12.0965 21.2585 11.6665 22.5215 11.6665 24.3298V26.0089C11.6952 26.5543 11.7525 27.114 11.8385 27.6881C14.2464 27.4585 16.1957 27.5015 17.6863 27.8172C19.177 28.133 19.9223 28.8649 19.9223 30.0131C19.9223 30.7307 19.6643 31.3478 19.1483 31.8644C18.6323 32.3523 17.8153 32.7542 16.6974 33.07C15.5794 33.357 14.1031 33.5723 12.2685 33.7158C12.2685 34.4334 12.2828 35.1796 12.3115 35.9546C12.3688 36.7009 12.4405 37.4472 12.5265 38.1935C15.7084 37.9639 17.9443 37.9925 19.2343 38.2796C20.553 38.5667 21.2123 39.2268 21.2123 40.2601C21.2123 41.3796 20.596 42.1976 19.3633 42.7143C18.1593 43.2022 15.9664 43.5036 12.7845 43.6184L13.3865 55.5877C13.6158 59.5487 13.8308 63.5241 14.0314 67.5139ZM32.4902 24.1945C32.1203 23.6001 31.5688 23.2719 30.6474 23.2719C29.726 23.2719 29.1691 24.0796 29.1117 24.1945C28.8046 24.8096 28.8046 25.7322 29.4188 26.3472C30.0331 26.9623 31.4542 26.9623 31.8759 26.6548C32.7194 26.0397 33.0016 25.0163 32.4902 24.1945Z" fill="white"/>
</svg>
