<svg width="527" height="333" viewBox="0 0 527 333" fill="none" xmlns="http://www.w3.org/2000/svg">
<path fill-rule="evenodd" clip-rule="evenodd" d="M206.847 307.719C137.123 312.455 62.5925 256.226 62.5925 187.794C62.5925 119.359 173.108 148.524 208.958 94.2103C294.854 -35.8367 468.265 173.432 407.302 196.788C285.15 243.554 374.102 296.348 206.847 307.719Z" fill="#F9F9F9"/>
<path d="M397.363 185.043C397.4 185.225 397.495 185.396 397.534 185.578C397.842 187.288 398.038 188.451 397.834 189.945C397.347 193.14 395.109 196.235 396.403 200.281C397.796 206.014 404.835 209.5 406.728 203.817C407.814 200.062 405.966 195.493 403.899 191.347C402.747 189.124 401.422 186.995 399.935 184.98C401.563 184.873 403.164 184.516 404.683 183.921C405.003 183.795 405.265 183.68 405.585 183.553C405.676 183.598 405.825 183.632 405.916 183.678C408.707 182.497 410.996 181.352 413.835 180.605C418.717 179.203 424.902 177.799 425.364 172.586C425.413 170.932 423.894 169.271 422.305 168.064C420.158 166.628 417.537 166.078 414.992 166.529C410.606 167.074 407.579 169.692 405.939 172.923C404.93 174.955 404.464 177.26 404.148 179.598C404.078 180.75 403.805 182.005 404.092 183.213C402.229 183.959 400.17 184.237 397.983 184.287C397.876 184.259 397.764 184.259 397.657 184.287C396.875 184.306 396.093 184.27 395.315 184.178C395.137 180.609 396.595 177.287 397.873 173.875C398.29 172.528 398.856 171.216 399.002 169.733C400.124 170.073 401.286 170.27 402.458 170.319C404.624 170.462 406.465 169.214 405.64 167.164C404.164 164.418 399.049 163.084 396.275 162.554C393.913 162.194 391.515 162.134 389.137 162.375C388.81 162.385 388.485 162.428 388.166 162.502C389.56 161.154 390.894 159.817 392.198 158.423C393.362 157.246 394.462 155.954 395.594 154.72C399.295 155.511 402.665 157.568 406.094 159.613C410.257 162.273 414.61 165.149 418.874 163.806C422.46 162.532 422.271 158.017 418.192 155.277C414.055 152.549 409.094 151.373 404.703 151.097C402.92 150.982 401.13 151.016 399.352 151.199C399.176 151.234 398.969 151.212 398.734 151.258L401.793 148.001C403.523 146.207 405.284 144.47 407.014 142.676C407.222 142.698 407.488 142.709 407.756 142.72C408.886 142.878 409.361 142.91 410.524 143.124C413.42 143.757 416.359 144.697 419.25 145.204C422.021 145.663 424.839 145.768 427.636 145.517C429.669 145.307 431.819 145.075 433.5 144.239C436.542 142.693 436.838 139.157 432.503 136.657C428.715 134.704 424.424 133.938 420.192 134.46C419.077 134.679 417.748 134.749 416.761 135.196L415.929 134.411L416.047 134.388C418.448 133.094 421.1 132.13 423.811 131.154C427.37 129.949 431.169 128.823 435.022 127.561C436.627 128.447 438.019 129.185 439.672 130.505C444.108 133.997 447.272 139.635 451.585 143.72C454.544 146.553 462.297 151.543 466.027 150.874C473.721 149.489 459.09 138.515 455.608 135.911C451.609 132.967 447.306 130.523 442.954 128.343C441.513 127.607 440.023 126.97 438.495 126.437C443.602 124.738 448.645 122.925 453.32 120.806C454.163 120.45 454.974 120.038 455.726 119.637L455.817 119.683C456.388 119.887 457.049 120.136 457.652 120.397C458.612 120.714 460.579 121.782 460.974 122.021C468.647 126.521 473.443 134.368 481.784 138.547C485.293 140.387 489.72 141.541 492.522 139.915C497.15 135.972 486.901 128.626 482.188 125.568C477.725 122.841 472.886 121.073 468.071 119.805C465.659 119.135 463.195 118.667 460.705 118.407C459.928 118.308 459.145 118.271 458.363 118.297C464.147 115.273 469.554 111.579 474.471 107.292C474.711 107.371 474.978 107.383 475.218 107.462C476.597 107.85 477.951 108.323 479.271 108.879C482.674 110.297 485.255 111.876 488.335 114.117C492.148 116.846 495.981 120.076 500.525 121.207C502.104 121.466 503.918 121.679 504.98 120.901C505.893 120.09 506.097 118.595 505.154 117.263C503.853 115.179 501.539 113.609 499.348 112.143C497.351 110.809 495.264 109.613 493.103 108.564C490.481 107.244 487.731 106.196 484.895 105.434C482.629 104.795 480.326 104.297 477.998 103.944C478.847 103.018 479.696 102.093 480.513 101.11L480.572 101.099C484.099 99.1408 488.239 97.6952 490.595 94.577C491.546 93.252 492.374 91.8247 492.268 90.0118C492.307 87.4115 488.543 85.1159 485.839 84.8251C483.012 84.4308 481.096 86.0097 480.411 88.0411C479.689 90.5859 480.343 93.4925 480.16 96.1843C480.118 97.4521 479.953 98.7129 479.666 99.9487C479.639 100.008 479.627 100.073 479.629 100.139C479.632 100.204 479.65 100.268 479.682 100.325C478.694 101.467 477.705 102.61 476.601 103.775C475.791 104.621 474.936 105.423 474.039 106.176C474.531 104.498 474.361 102.571 473.365 100.681C472.747 99.3482 471.227 98.3821 469.729 97.9178C466.347 97.0014 465.412 99.3982 466.792 101.972C467.825 104.046 470.091 106.573 470.004 108.045C470.021 108.449 470.008 108.853 469.966 109.255C469.927 109.322 469.906 109.398 469.904 109.476C469.902 109.553 469.92 109.63 469.955 109.699C467.558 111.577 465.04 113.296 462.419 114.847C463.37 112.827 464.076 110.601 463.437 108.071C462.868 105.78 460.517 103.333 457.743 103.499C455.145 103.63 453.4 105.048 451.985 106.59C449.118 109.493 448.638 114.329 447.544 117.832C447.051 119.51 446.229 121.063 445.374 122.558C445.295 122.764 444.979 123.015 445.021 123.323C438.319 125.778 431.451 127.822 424.446 130.084C421.442 131.117 418.469 132.206 415.747 133.626C416.933 132.255 418.059 130.896 419.154 129.479C420.551 129.647 421.815 129.462 422.617 128.799C423.503 128.056 423.115 126.552 421.979 125.573C422.561 124.637 423.202 123.689 423.752 122.695C426.813 124.434 429.762 125.625 432.089 124.662C434.058 123.643 432.551 120.841 430.482 119.477C429.61 118.882 428.687 118.365 427.725 117.931C428.741 117.166 429.822 116.489 430.954 115.907C435.992 113.274 441.994 111.78 446.318 108.336C448.496 106.643 450.935 104.836 451.529 102.064C451.722 101.014 451.787 99.7368 450.854 98.6555C447.309 95.2418 442.49 97.453 439.763 98.7475C437.418 99.9082 435.412 101.652 433.94 103.812C432.487 105.868 431.552 108.265 430.435 110.57C429.961 111.522 429.437 112.448 428.865 113.345C429.004 113.128 429.111 112.854 429.249 112.637C430.281 110.411 431.131 108.094 431.98 105.778C432.098 105.754 432.125 105.686 432.242 105.663C432.289 105.631 432.329 105.589 432.358 105.539C432.386 105.49 432.403 105.434 432.408 105.377C432.391 105.251 432.346 105.13 432.274 105.024C432.301 104.956 432.327 104.887 432.386 104.876C432.468 104.893 432.552 104.882 432.626 104.844C432.7 104.807 432.758 104.745 432.792 104.669C434.321 100.891 439.1 94.1986 435.375 89.3028C434.872 88.8479 434.219 88.5936 433.54 88.5882C431.764 88.5577 430.84 89.8141 430.268 91.0013C428.975 94.0378 428.887 97.596 429.78 101.278C430.012 102.311 430.302 103.331 430.648 104.332C430.776 104.56 430.786 104.811 430.973 105.027C430.391 105.268 429.841 105.565 429.26 105.806C428.694 104.007 428.29 102.16 428.053 100.289C427.713 97.8266 427.343 93.9158 424.421 91.9604C423.972 91.7073 423.443 91.6344 422.943 91.7565C422.442 91.8786 422.007 92.1866 421.726 92.6176C420.498 94.3764 421.078 96.9183 421.972 99.2084C422.764 101.199 423.817 103.076 425.105 104.79C425.641 105.527 426.244 106.213 426.906 106.839L426.939 106.896C426.043 107.388 425.147 107.88 424.339 108.418C421.287 110.409 418.697 112.878 416.135 115.278C415.879 115.518 415.649 115.69 415.393 115.93C415.047 115.428 414.759 114.916 414.471 114.403C413.537 112.727 412.733 110.983 412.063 109.185C410.904 106.188 409.274 101.197 405.381 98.6736C404.133 97.8437 402.757 98.1773 402.228 98.9768C401.368 100.347 402.252 102.387 402.945 104.084C404.191 107.001 406.173 109.836 408.385 112.5C409.691 114.014 410.965 115.471 412.415 116.894C412.751 117.144 413.034 117.531 413.396 117.713C411.688 119.313 409.921 120.925 408.154 122.536C406.573 119.37 405.566 116.532 404.304 113.239C403.084 110.254 401.827 107.087 399.146 104.514C396.965 102.603 394.527 103.019 393.896 104.913C392.725 108.052 394.2 112.188 396.182 115.718C397.479 117.871 399.033 119.858 400.809 121.638C401.87 122.722 402.989 123.748 404.162 124.71C404.466 124.903 404.743 125.165 405.047 125.359C404.22 126.09 403.366 126.89 402.538 127.622L400.056 129.817C399.997 129.828 399.939 129.84 399.97 129.896C399.912 129.907 399.944 129.964 399.944 129.964C399.314 130.467 398.658 131.039 398.028 131.542L397.969 131.553C395.854 126.973 393.324 122.348 389.48 118.172C387.711 116.18 385.733 114.165 383.307 112.745C380.608 111.188 376.47 109.851 376.094 112.897C375.953 115.897 378.228 118.674 380.991 121.04C379.146 120.075 377.167 119.452 375.299 119.376C374.19 119.32 373.102 119.689 372.257 120.407C371.413 121.126 370.876 122.14 370.756 123.241C370.583 127.575 375.024 131.888 378.173 135.758C379.885 137.762 381.457 139.982 381.445 141.818C381.418 142.394 381.322 142.965 381.161 143.518C381.082 143.724 380.91 143.884 381.038 144.111C381.073 144.186 381.124 144.252 381.188 144.305C381.252 144.358 381.326 144.397 381.407 144.418C381.261 144.558 381.129 144.711 381.011 144.876C379.848 145.357 378.871 146.055 378.716 147.287C378.73 147.417 378.715 147.55 378.673 147.674C378.607 147.808 378.522 147.931 378.422 148.04C377.88 148.785 377.379 149.559 376.921 150.358C377.147 147.279 377.491 144.176 376.197 140.826C374.158 135.219 368.39 129.587 366.692 124.356C365.835 121.552 366.098 119.351 365.87 116.74C366.169 116.807 366.431 116.693 366.479 116.43C366.628 115.769 366.752 115.176 366.934 114.571C367.49 112.311 367.95 110.577 368.656 108.352C369.046 107.074 369.495 105.784 369.944 104.494L370.003 104.483C370.829 104.32 371.665 104.219 372.506 104.181C374.096 103.995 377.916 104.067 379.735 104.405C383.511 104.865 388.242 106.908 390.969 104.917C393.003 103.316 391.293 99.9224 388.616 98.1712C385.476 95.9427 381.554 94.879 378.285 95.2053C375.868 95.4272 374.053 96.6055 372.356 97.7609C372.054 97.9567 371.747 98.1437 371.434 98.3216C371.782 96.7359 372.071 95.1614 372.462 93.8834C373.516 90.0715 375.204 86.5789 376.71 82.9949C377.009 83.0627 377.271 82.9481 377.538 82.9589C378.247 82.946 378.957 82.9326 379.639 82.9885C381.701 83.1495 383.744 83.4886 385.747 84.002C388.169 84.6011 390.633 85.5084 393.07 85.7897C396.522 86.2498 399.931 85.7066 401.89 83.741C403.7 81.7414 401.355 78.7241 398.481 77.2022C395.542 75.5662 392.288 74.8775 389.296 74.7699C384.911 74.6196 382.349 76.3242 380.73 79.3611C380.287 80.0804 379.203 81.0521 378.323 81.2251C378.01 81.3398 377.686 81.4245 377.357 81.478C377.63 80.9188 377.811 80.3139 378.052 79.6976C379.404 75.954 379.69 72.1673 382.008 68.8664C383.241 67.233 385.873 65.072 387.176 62.9823C387.817 62.0345 388.458 61.0865 389.008 60.0933C393.063 59.4232 398.189 60.3131 402.692 59.7447C404.367 59.4789 406.032 58.9623 406.929 57.773C408.75 55.3281 407.039 52.6295 403.226 51.2919C399.168 49.7497 395.832 51.3534 393.206 52.9439C392.363 53.5094 391.605 54.1909 390.953 54.9682C391.169 54.1842 391.433 53.4143 391.744 52.6629C392.39 51.1446 393.181 50.2306 394.526 49.1445C396.024 48.1289 397.432 46.9854 398.732 45.7269C399.727 45.1722 400.689 44.5609 401.614 43.8961C402.82 43.027 404.026 42.1576 404.684 40.8904C405.619 39.1892 406.068 36.5082 403.621 34.5862C402.272 33.4602 400.245 33.0995 398.965 33.604C395.896 35.2185 395.535 40.0318 396.392 43.5309C396.599 44.2495 396.806 44.9676 397.014 45.6851L397.046 45.7419C396.475 46.2335 395.904 46.7251 395.301 47.1597C394.231 47.8511 393.242 48.6604 392.354 49.5723C392.301 47.6224 393.045 45.5794 392.897 43.4586C392.788 40.1288 390.294 36.3823 386.679 34.1204C382.162 31.5301 378.576 33.4991 379.544 37.5454C379.948 39.4264 381.12 41.2827 382.26 43.0822C383.614 45.0292 385.058 47.0219 386.849 48.8199C387.745 49.719 388.726 50.5379 389.739 51.4138C390.043 51.6735 390.369 51.9057 390.714 52.1076C390.089 53.4318 389.768 54.949 389.324 56.3642C388.615 58.4708 387.569 60.4488 386.225 62.2209C385.034 64.1621 382.429 66.2548 380.86 68.3335C380.559 68.7366 380.299 69.169 380.085 69.624C380.024 69.4987 379.939 69.3866 379.835 69.2938C379.159 66.581 379.166 63.924 378.848 61.2674C378.35 56.433 376.364 51.3855 370.439 48.3758C367.778 47.0017 364.316 46.2906 362.549 47.9026C360.558 49.8112 360.881 53.2888 362.688 56.1575C365.229 60.3375 369.692 63.7604 374.128 66.5563C375.92 67.6589 377.542 68.2257 378.713 69.3864L378.777 69.5002C378.863 69.8657 378.976 70.2239 379.118 70.5715C379.161 70.6392 379.219 70.6961 379.287 70.7375C379.356 70.7789 379.433 70.8038 379.513 70.8102C378.354 73.5038 377.861 76.5726 376.905 79.1634C375.467 82.987 373.666 86.6297 372.229 90.4519C372.063 90.0418 371.856 89.3238 371.691 88.9137C371.027 86.8618 370.485 84.7725 370.068 82.6568C368.893 77.1967 367.249 70.4374 360.445 66.9054C351.544 62.7733 344.387 67.7835 350.169 75.8794C353.34 80.2518 358.352 83.3774 363.344 86.0008C365.861 87.4664 368.602 88.6353 370.329 90.3194C370.616 90.6858 370.861 91.0831 371.059 91.504C371.187 91.7316 371.165 91.9246 371.379 92.0734L371.651 92.2096C371.549 92.6092 371.389 93.0198 371.287 93.4189C370.453 96.112 370.013 99.0449 369.361 101.828C369.203 102.515 368.994 103.191 368.735 103.847C368.676 103.859 368.709 103.916 368.682 103.984C368.522 104.395 368.42 104.795 368.261 105.206C365.404 101.972 363.843 97.9165 361.061 94.353C358.327 91.2224 354.079 87.9473 349.933 87.8763C343.84 87.9347 347.985 95.7834 351.343 98.9807C354.089 101.666 357.603 103.632 361.209 104.947C361.624 106.383 362.157 107.796 362.72 109.266C362.315 108.776 361.851 108.298 361.446 107.809C360.3 106.58 357.555 103.198 355.869 103.909C354.284 104.916 356.869 108.012 358.453 109.092C359.954 110.213 361.642 111.058 363.439 111.59L363.498 111.578C363.924 112.857 364.227 114.174 364.402 115.511C364.535 116.566 364.609 117.628 364.623 118.692C364.501 118.59 364.346 118.429 364.224 118.328C363.637 117.748 363.109 117.156 362.582 116.564C361.372 115.221 360.279 113.856 358.754 112.763C355.912 110.603 353.42 111.851 355.344 114.698C356.825 116.873 359.62 117.905 362.015 118.572C362.495 118.73 363.695 119.127 364.249 119.65L364.281 119.707C364.404 119.809 364.468 119.923 364.591 120.026C364.722 122.466 365.094 124.985 366.65 127.525C369.591 132.765 374.362 137.898 375.404 143.005C376.062 146.732 375.153 150.452 375.347 154.397C375.419 158.936 376.477 163.724 376.698 168.296C376.788 169.037 376.878 169.778 376.995 170.452C375.412 168.676 373.743 166.98 371.988 165.365C368.363 162.157 364.679 158.96 361.256 155.648C361.274 155.332 361.341 155.02 361.455 154.724C361.773 153.577 362.255 152.481 362.886 151.471C364.467 148.947 368.145 146.328 368.825 142.78C369.906 138.206 364.115 134.853 359.835 136.516C356.093 138.325 356.117 143.126 356.489 147.037C356.684 148.641 357.007 150.227 357.456 151.779L356.992 151.301C354.578 148.74 352.276 146.031 349.887 143.402C349.876 143.151 349.626 142.821 349.525 142.524C349.187 141.932 348.904 141.31 348.678 140.667C347.852 138.617 347.149 135.276 347.184 133.247C347.113 128.708 349.9 125.315 348.746 120.357C348.177 117.37 344.659 113.192 341.361 114.978C340.32 115.562 339.833 116.669 339.401 117.64C338.701 119.296 338.454 121.177 338.505 123.127C338.613 125.959 339.21 128.751 340.271 131.38C340.92 133.049 341.68 134.674 342.545 136.243C338.253 132.66 333.566 129.534 329.312 126.133C329.34 126.063 329.35 125.986 329.342 125.911C329.334 125.835 329.307 125.763 329.264 125.7C329.18 125.336 329.125 124.966 329.099 124.594C329.025 123.534 329.176 121.481 329.694 120.43C331.607 116.64 333.786 112.861 333.56 108.163C333.42 102.689 331.853 93.5122 324.2 90.2097C318.963 88.0771 316.585 92.085 316.562 95.7568C316.179 102.155 319.721 109.047 322.629 115.621C323.807 118.299 324.696 120.463 325.628 122.936C324.527 121.914 323.484 120.831 322.504 119.693C319.796 116.494 317.888 113.328 315.608 109.729C313.636 106.449 311.43 103.215 309.458 99.9345C309.075 99.251 308.718 98.4991 308.334 97.8155C308.373 97.7778 308.402 97.732 308.42 97.6816C308.439 97.6311 308.446 97.5772 308.44 97.5238C308.435 97.4703 308.419 97.4187 308.391 97.3725C308.364 97.3264 308.326 97.2869 308.282 97.2569C305.494 94.2636 303.778 91.439 301.278 88.2625C297.467 83.4468 293.032 78.5638 287.418 75.1774C284.928 73.6432 282.223 73.3524 281.305 75.4298C280.755 77.1189 281.729 79.2037 282.667 81.1062C283.658 82.8718 284.739 84.6816 286.168 86.2989C288.497 88.9397 291.344 91.2261 294.304 93.3637C297.721 95.7705 301.343 97.8729 305.129 99.6469L308.84 101.384C308.933 101.43 309.036 101.453 309.139 101.452C310.413 103.604 311.894 105.779 313.226 107.92C312.842 107.849 312.463 107.755 312.09 107.638C310.256 107.181 308.474 106.535 306.773 105.71C300.645 102.804 294.93 98.4255 288.22 96.4564C286.934 96.1409 285.595 95.9603 284.608 96.4072C284.052 96.6907 283.62 97.1682 283.393 97.7489C283.166 98.3296 283.161 98.9731 283.379 99.5572C284.257 102.167 287.04 104.339 289.653 105.976C295.727 109.715 302.756 112.255 309.11 112.081C311.239 112.042 313.33 111.821 315.107 111.156L315.166 111.145C317.1 114.243 319.092 117.329 321.55 120.197C323.666 122.69 326.214 124.909 328.843 126.922C329.247 127.257 329.665 127.576 330.096 127.877C327.051 127.211 324.22 125.996 321.024 124.6C317.739 123.159 314.459 121.843 311.067 120.676C307.019 119.384 302.571 117.729 298.81 118.341C296.521 118.791 296.05 120.97 297.675 123.053C299.151 125.104 301.61 126.58 303.828 127.978C307.577 130.184 311.647 131.795 315.892 132.754C320.164 133.748 324.416 134.241 328.459 134.016C331.234 133.85 334.093 133.605 336.543 132.744C336.601 132.732 336.569 132.676 336.569 132.676C339.869 135.189 343.111 137.714 345.888 140.457C347.589 142.21 349.231 143.974 350.814 145.75C346.626 145.507 342.475 144.84 338.423 143.757C332.689 142.481 325.574 140.021 321.715 143.246C319.334 145.041 320.281 148.586 323.427 150.94C326.45 153.191 330.126 154.05 333.481 154.34C338.682 154.899 342.993 153.293 346.756 151.29C348.378 150.465 350.433 149.366 351.836 148.964C352.233 148.823 352.648 148.742 353.069 148.722L353.421 148.653C354.476 149.836 355.623 151.066 356.737 152.238C357.169 152.659 357.542 153.092 357.941 153.456L358.005 153.57C358.069 153.684 358.16 153.729 358.341 153.82L360.1 155.561C360.094 155.626 360.102 155.692 360.125 155.753C360.148 155.814 360.185 155.869 360.232 155.914C360.365 156.022 360.52 156.099 360.685 156.141C363.522 158.872 366.502 161.512 369.541 164.14C372.141 166.38 374.584 168.794 376.855 171.366C376.977 171.468 377.073 171.639 377.228 171.798C377.254 171.946 377.25 172.097 377.217 172.243C376.846 176.11 377.489 180.156 378.163 184.261C375.692 186.011 371.35 185.473 367.988 186.449C365.651 187.161 363.772 188.92 363.904 191.362C363.988 194.064 366.125 197.059 369.154 198.74C373.308 201.149 377.305 199.099 378.034 195.984C378.707 193.702 378.874 191.33 379.068 188.889C379.685 191.613 380.275 194.406 380.535 197.074C380.949 199.901 380.535 202.764 380.603 205.786C380.682 206.277 380.554 206.744 380.752 207.212C381.066 207.656 381.861 207.563 381.781 207.073C381.59 205.34 381.816 202.956 381.85 200.926C381.81 198.924 381.667 196.926 381.422 194.939C381.024 191.793 380.119 188.556 379.481 185.33L379.546 184.748C379.555 184.717 379.556 184.684 379.549 184.653C379.543 184.621 379.529 184.591 379.509 184.566C380.036 184.462 380.032 184.337 380.384 184.267C382.342 183.693 384.38 183.61 386.546 183.753C386.467 183.958 386.535 184.198 386.423 184.346C386.353 184.802 386.246 185.076 386.198 185.338C385.706 187.016 384.91 188.5 384.146 190.041C382.725 192.85 381.122 196.263 383.499 200.031C387.468 206.523 395.087 205.469 393.459 199.087C392.688 195.507 389.687 191.671 388.548 188.48C388.165 187.101 388.069 186.234 388.401 184.968C388.457 184.638 388.563 184.318 388.717 184.021C390.622 184.28 392.499 184.606 394.462 184.853C395.424 184.978 396.393 185.042 397.363 185.043ZM362.978 107.066C362.744 106.417 362.568 105.756 362.366 105.163C362.846 105.321 363.385 105.469 363.833 105.571C364.942 105.922 365.689 106.091 366.573 106.74L366.605 106.796L366.696 106.842C366.941 107.047 367.101 107.331 367.373 107.467C367.346 107.536 367.378 107.593 367.32 107.604C366.559 109.867 365.915 112.168 365.389 114.497C365.363 114.565 365.395 114.622 365.337 114.634C364.996 112.171 363.942 109.596 362.978 107.066ZM384.669 166.606C385.315 166.48 387.774 166.566 388.371 166.701C388.945 166.786 389.514 166.907 390.073 167.063C389.211 168.492 388.71 170.11 388.613 171.775C387.991 171.159 387.281 170.638 386.507 170.229C385.083 169.372 383.514 168.78 381.878 168.483L381.846 168.426C382.326 167.889 382.807 167.352 383.319 166.872L383.378 166.86C383.794 166.715 384.229 166.63 384.669 166.606ZM402.165 145.654C401.744 143.124 401.015 140.656 399.994 138.303C399.329 136.747 398.584 135.226 397.762 133.746C397.615 133.47 397.446 133.208 397.256 132.96L398.201 132.205C400.435 133.283 402.413 134.603 404.642 136.252C405.863 137.15 407.18 138.219 408.582 139.208C406.485 141.391 404.296 143.528 402.166 145.654L402.165 145.654ZM423.851 109.525C425.513 108.359 427.272 107.336 429.108 106.469C429.487 106.332 429.775 106.148 430.154 106.011C429.486 107.723 428.85 109.492 428.091 111.158C427.333 112.825 426.484 114.446 425.634 116.067C425.586 116.099 425.547 116.142 425.518 116.191C425.489 116.241 425.472 116.296 425.468 116.353C425.416 116.49 425.329 116.57 425.276 116.707C423.376 116.142 421.415 115.806 419.435 115.704C418.486 115.638 417.595 115.56 416.677 115.55C419.074 113.436 421.412 111.333 423.851 109.526V109.525ZM414.798 117.312C416.963 118.152 419.677 120.085 422.498 121.744C421.916 122.68 421.391 123.605 420.778 124.484C419.738 123.915 418.612 123.517 417.445 123.305C414.614 122.756 411.716 122.643 408.851 122.97C410.816 121.129 412.865 119.208 414.798 117.312ZM405.114 126.297C405.324 126.122 405.524 125.935 405.712 125.737C406.102 125.85 406.544 125.826 406.934 125.939C408.427 126.278 409.984 126.731 411.483 127.195C413.131 127.694 415.414 128.51 417.532 128.916C416.437 130.332 415.252 131.703 414.066 133.074C412.573 132.04 410.888 131.359 409.208 130.804C407.677 130.275 406.095 129.907 404.488 129.708C403.447 129.596 402.439 129.541 401.431 129.486C402.717 128.411 403.945 127.347 405.114 126.295V126.297ZM384.588 139.877C385.586 138.29 386.58 136.577 387.125 134.763C387.669 135.73 388.212 136.699 388.846 137.712C386.963 139.04 385.156 140.471 383.434 142.001C383.818 141.292 384.202 140.583 384.587 139.876L384.588 139.877ZM382.866 144.007C384.937 142.05 387.145 140.243 389.474 138.599C391.387 141.431 393.569 144.073 395.988 146.488C396.819 147.274 397.742 148.104 398.6 148.821C398.704 148.915 398.816 148.999 398.936 149.071C397.548 150.545 396.192 152.076 394.836 153.607C394.776 153.588 394.712 153.584 394.651 153.596C394.589 153.608 394.531 153.636 394.484 153.676C394.441 153.695 394.404 153.724 394.374 153.759C394.344 153.794 394.322 153.836 394.309 153.88C394.297 153.925 394.295 153.972 394.303 154.017C394.311 154.063 394.329 154.106 394.355 154.144C393.591 154.99 392.887 155.824 392.091 156.612C391.517 154.196 391.06 151.756 389.894 149.33C388.434 146.265 386.019 143.704 382.866 144.007ZM377.839 168.138C377.533 162.95 376.347 157.934 376.469 153.042C376.485 152.722 376.469 152.346 376.485 152.027C377.109 152.094 377.19 151.193 377.5 150.816C377.858 150.176 378.247 149.594 378.637 149.011C379.175 150.55 380.278 152.166 381.488 153.51C383.162 155.331 385.535 156.192 387.653 157.294C388.058 157.526 388.445 157.788 388.81 158.079C388.841 158.136 388.964 158.238 388.996 158.295C389.087 158.34 389.247 158.625 389.337 158.671C389.458 158.827 389.554 159 389.625 159.183C387.468 161.377 385.13 163.481 382.915 165.687C383.111 164.069 383.112 162.434 382.918 160.817C382.754 159.711 382.493 158.434 381.56 157.353C380.878 156.602 379.598 156.411 379.059 156.959C378.487 157.45 378.492 158.271 378.465 159.036C378.554 160.472 379.002 161.966 379.534 163.378C379.983 164.565 380.34 165.784 380.604 167.025C380.676 167.328 380.718 167.638 380.731 167.949C379.855 168.943 379.012 169.994 378.201 171.102C378.099 170.11 377.94 169.129 377.839 168.138H377.839ZM380.277 183.277C379.878 183.365 379.488 183.484 379.108 183.633L379.049 183.645C378.614 181.011 378.253 178.047 378.105 175.926C378.062 175.505 378.064 175.081 378.111 174.66C378.144 174.714 378.188 174.759 378.241 174.793C378.293 174.826 378.353 174.847 378.416 174.853C378.895 175.011 379.237 174.692 378.982 174.236C378.88 173.94 378.838 173.632 378.737 173.336C378.972 173.29 379.142 173.13 379.073 172.891C379.132 172.879 379.132 172.879 379.222 172.925C379.808 172.957 380.388 173.055 380.951 173.217C382.06 173.568 384.054 174.568 385.612 175.021C386.663 175.383 387.852 175.529 388.701 175.299C388.78 176.02 388.919 176.733 389.115 177.431C389.703 179.572 390.68 181.588 391.997 183.378C392.061 183.492 392.183 183.594 392.247 183.708C388.434 183.066 383.729 182.346 380.277 183.277H380.277Z" fill="#E8E8E8"/>
<path fill-rule="evenodd" clip-rule="evenodd" d="M147.556 114.253C123.518 119.917 87.4107 140.504 79.0922 102.38C73.3935 76.2585 141.067 78.4889 155.123 64.0158C186.041 32.1776 233.631 60.9814 213.281 71.2165C172.505 91.7149 205.22 100.663 147.556 114.253Z" fill="#F9F9F9"/>
<path fill-rule="evenodd" clip-rule="evenodd" d="M331.146 156.825C322.081 170.376 230.793 177.806 218.927 161.156C200.588 135.444 253.405 61.9654 253.405 61.9654C252.723 58.4534 252.596 49.9635 255.369 46.6505C259.57 41.6147 253.321 36.8321 257.209 35.7459C262.205 34.3549 266.208 39.0636 274.911 41.4183C280.068 42.7991 279.348 56.3032 274.473 63.8617C272.738 66.5432 269.423 66.7882 269.423 66.7882C269.423 66.7882 249.049 116.807 253.376 126.386C258.743 138.236 284.295 124.593 323.556 119.064C342.331 116.416 336.14 149.357 331.146 156.825Z" fill="#FFC197"/>
<mask id="mask0_536_6632" style="mask-type:luminance" maskUnits="userSpaceOnUse" x="215" y="35" width="122" height="136">
<path d="M331.146 156.825C322.081 170.376 230.793 177.806 218.927 161.156C200.588 135.444 253.405 61.9654 253.405 61.9654C252.723 58.4534 252.596 49.9635 255.369 46.6505C259.57 41.6147 253.321 36.8321 257.209 35.7459C262.205 34.3549 266.208 39.0636 274.911 41.4183C280.068 42.7991 279.348 56.3032 274.473 63.8617C272.738 66.5432 269.423 66.7882 269.423 66.7882C269.423 66.7882 249.049 116.807 253.376 126.386C258.743 138.236 284.295 124.593 323.556 119.064C342.331 116.416 336.14 149.357 331.146 156.825Z" fill="white"/>
</mask>
<g mask="url(#mask0_536_6632)">
<path fill-rule="evenodd" clip-rule="evenodd" d="M280.641 120.218C284.077 122.847 284.889 129.073 285.472 132.968C286.09 137.084 285.902 141.31 284.523 145.278C282.45 151.252 278.149 156.136 276.382 162.217C275.07 166.742 275.384 171.841 276.922 176.282C277.638 178.359 278.723 180.29 280.124 181.984C288.429 191.97 305.53 188.242 316.017 184.731C327.819 180.779 339.476 173.25 345.566 162.083C355.014 144.771 346.444 123.414 330.167 113.814C323.712 110.051 316.441 107.897 308.973 107.535C300.104 107.07 290.997 108.749 283.333 113.327L280.641 120.218Z" fill="#E77127"/>
<path fill-rule="evenodd" clip-rule="evenodd" d="M246.112 65.1964C240.216 76.2982 232.609 100.573 228.641 112.421C223.577 127.633 221.56 139.163 229.342 152.784C238.55 168.945 269.284 162.629 284.322 158.477C287.641 157.559 290.917 156.497 294.143 155.293C298.693 153.633 303.112 151.634 307.362 149.313C316.13 144.424 323.452 137.704 330.007 130.169C331.892 128.009 333.58 125.648 335.575 123.593C336.167 122.978 337.065 122.073 338.03 122.184C339.652 122.37 340.025 125.356 340.244 126.517C341.077 131.328 341.011 136.355 340.682 141.208C339.389 160.389 333.141 179.551 315.954 190.027C305.344 196.499 292.126 198.511 280.025 200.283C267.946 202.05 255.231 203.648 242.999 202.536C221.165 200.55 198.125 191.084 186.178 171.765C172.368 149.386 178.725 119.477 190.059 97.4638C192.887 91.9761 196.153 86.6985 200.033 81.8891C207.596 72.5172 217.724 63.986 229.671 61.1244L246.112 65.1964Z" fill="black" fill-opacity="0.1"/>
</g>
<path fill-rule="evenodd" clip-rule="evenodd" d="M135.371 38.4542C134.295 36.7648 132.251 35.5521 129.905 35.2103C127.595 34.8399 125.231 35.371 123.302 36.6933L23.7803 108.167C21.2004 110.019 20.49 113.029 22.0562 115.488L147.303 312.186C148.394 313.901 150.422 315.088 152.784 315.455C155.094 315.826 157.459 315.295 159.387 313.972L258.908 242.499C261.488 240.646 262.199 237.637 260.632 235.177L135.371 38.4542ZM133.875 39.0589L259.138 235.783C260.356 237.696 259.807 240.047 257.777 241.504L158.255 312.978C156.744 314.008 154.898 314.429 153.088 314.154C151.235 313.891 149.653 312.927 148.799 311.586L23.5521 114.885C22.3179 112.947 22.867 110.596 24.896 109.139L124.417 37.6655C125.928 36.6348 127.775 36.2145 129.585 36.4896C131.455 36.7764 133.021 37.716 133.875 39.0575V39.0589Z" fill="#E77127"/>
<path fill-rule="evenodd" clip-rule="evenodd" d="M154.631 36.6594C154.449 36.3691 154.208 36.12 153.924 35.928C153.64 35.7361 153.319 35.6055 152.981 35.5447C152.649 35.4819 152.308 35.4855 151.978 35.5553C151.648 35.6251 151.335 35.7598 151.057 35.9514L44.9896 112.125C44.4703 112.502 44.1149 113.062 43.9964 113.691C43.8778 114.321 44.0052 114.971 44.3522 115.51L168.373 310.285C168.553 310.571 168.792 310.817 169.073 311.005C169.355 311.193 169.673 311.319 170.007 311.375C170.339 311.445 170.681 311.445 171.013 311.375C171.344 311.305 171.657 311.166 171.932 310.969L277.998 234.795C278.519 234.425 278.877 233.871 278.998 233.245C279.12 232.62 278.995 231.971 278.651 231.435L154.631 36.6594Z" fill="#E6E6E6"/>
<path fill-rule="evenodd" clip-rule="evenodd" d="M235.068 189.824C233.303 187.052 230.021 185.085 226.172 184.521C222.324 183.957 218.374 184.842 215.466 186.93L160.048 226.729C152.987 231.8 151.083 239.985 155.376 246.727C157.142 249.498 160.422 251.463 164.27 252.027C168.119 252.591 172.069 251.706 174.963 249.627L230.394 209.818C237.441 204.758 239.361 196.565 235.068 189.824ZM233.873 190.299L233.875 190.302C237.894 196.614 236.097 204.286 229.496 209.026L174.065 248.835C171.482 250.691 167.947 251.486 164.511 250.981C161.089 250.467 158.145 248.724 156.57 246.249C152.55 239.937 154.348 232.266 160.949 227.525L216.38 187.715C218.962 185.86 222.498 185.065 225.918 185.577C229.354 186.082 232.297 187.825 233.873 190.299H233.873Z" fill="white"/>
<path fill-rule="evenodd" clip-rule="evenodd" d="M279.647 172.158C278.533 170.408 277.072 168.905 275.354 167.739C273.637 166.573 271.699 165.77 269.659 165.378C267.619 164.986 265.52 165.014 263.491 165.46C261.463 165.906 259.547 166.761 257.861 167.972L186.944 218.902C183.362 221.473 180.902 225.313 180.067 229.635C179.233 233.958 180.087 238.435 182.455 242.15C183.569 243.9 185.029 245.404 186.747 246.57C188.464 247.737 190.403 248.541 192.443 248.933C194.483 249.325 196.582 249.297 198.611 248.85C200.64 248.403 202.556 247.548 204.241 246.336L275.158 195.405C278.737 192.833 281.195 188.994 282.029 184.673C282.864 180.352 282.013 175.876 279.649 172.161L279.647 172.158Z" fill="#E77127"/>
<path fill-rule="evenodd" clip-rule="evenodd" d="M197.685 133.009C197.235 132.302 196.644 131.695 195.95 131.224C195.256 130.753 194.473 130.429 193.649 130.271C192.825 130.113 191.977 130.125 191.157 130.305C190.338 130.486 189.564 130.833 188.884 131.323L119.552 181.115C118.114 182.146 117.126 183.687 116.79 185.422C116.454 187.157 116.796 188.955 117.746 190.446C118.196 191.152 118.785 191.758 119.477 192.228C120.17 192.699 120.951 193.023 121.774 193.182C122.596 193.341 123.443 193.33 124.261 193.151C125.079 192.972 125.852 192.628 126.533 192.141L195.879 142.34C197.317 141.309 198.305 139.768 198.641 138.034C198.977 136.299 198.635 134.502 197.685 133.01L197.685 133.009ZM212.437 156.171C211.987 155.465 211.397 154.857 210.703 154.386C210.009 153.915 209.226 153.591 208.401 153.433C207.577 153.275 206.729 153.287 205.91 153.468C205.09 153.649 204.317 153.995 203.636 154.485L134.304 204.278C132.866 205.309 131.878 206.851 131.542 208.585C131.206 210.32 131.549 212.118 132.498 213.609C132.948 214.315 133.537 214.921 134.229 215.391C134.922 215.862 135.703 216.186 136.526 216.345C137.348 216.504 138.195 216.493 139.013 216.314C139.831 216.135 140.604 215.792 141.285 215.304L210.63 165.503C212.069 164.472 213.057 162.931 213.393 161.196C213.729 159.461 213.387 157.664 212.437 156.173V156.171Z" fill="white"/>
<path d="M205.466 227.615L207.402 226.021C207.584 226.204 207.804 226.344 208.046 226.433C208.289 226.521 208.548 226.555 208.805 226.532C209.435 226.435 210.028 226.173 210.524 225.773C211.068 225.426 211.523 224.955 211.851 224.399C212.058 223.965 212.082 223.609 211.916 223.348C211.863 223.264 211.79 223.195 211.705 223.145C211.619 223.096 211.522 223.068 211.423 223.064C211.095 223.073 210.772 223.152 210.477 223.296C210.206 223.409 209.584 223.707 208.615 224.172C207.382 224.786 206.451 225.116 205.818 225.151C204.937 225.214 204.324 224.962 203.962 224.395C203.725 223.99 203.649 223.512 203.75 223.054C203.886 222.445 204.168 221.879 204.573 221.405C205.118 220.758 205.747 220.187 206.444 219.708C207.741 218.777 208.841 218.272 209.743 218.194C210.646 218.115 211.316 218.407 211.763 219.035L209.736 220.586C209.597 220.445 209.426 220.337 209.239 220.272C209.051 220.207 208.851 220.186 208.654 220.21C208.114 220.326 207.61 220.568 207.182 220.915C206.677 221.244 206.25 221.68 205.933 222.191C205.858 222.286 205.813 222.401 205.804 222.522C205.795 222.642 205.821 222.762 205.88 222.868C205.948 222.956 206.039 223.022 206.144 223.06C206.248 223.098 206.361 223.106 206.47 223.082C206.832 223.038 207.571 222.752 208.679 222.188C209.508 221.751 210.372 221.384 211.262 221.093C211.778 220.928 212.328 220.897 212.86 221.003C213.334 221.123 213.74 221.426 213.99 221.846C214.26 222.299 214.346 222.839 214.232 223.354C214.098 224.018 213.791 224.636 213.343 225.145C212.742 225.855 212.048 226.481 211.279 227.006C209.972 227.945 208.845 228.456 207.882 228.538C207.435 228.589 206.981 228.532 206.561 228.372C206.14 228.211 205.764 227.951 205.466 227.615ZM213.307 216.803L212.501 215.537L214.473 214.121L215.279 215.387L213.307 216.803ZM217.052 222.684L213.751 217.502L215.723 216.086L219.024 221.269L217.052 222.684ZM221.08 220.28L223.455 218.86C223.513 218.933 223.589 218.989 223.676 219.022C223.763 219.056 223.858 219.064 223.95 219.047C224.311 218.961 224.648 218.794 224.934 218.557C225.34 218.29 225.697 217.955 225.991 217.568C226.112 217.385 226.171 217.167 226.157 216.947C226.109 216.693 226.005 216.453 225.85 216.245L225.371 215.491C225.129 216.486 224.524 217.355 223.675 217.929C222.668 218.653 221.685 218.924 220.733 218.754C220.36 218.69 220.005 218.546 219.694 218.332C219.382 218.118 219.121 217.838 218.928 217.514C218.662 217.135 218.491 216.697 218.43 216.238C218.369 215.779 218.419 215.312 218.577 214.877C218.916 213.939 219.547 213.134 220.378 212.58C221.174 211.953 222.186 211.665 223.194 211.778L222.732 211.053L224.576 209.729L227.539 214.382C227.861 214.839 228.084 215.357 228.196 215.904C228.242 216.296 228.189 216.694 228.041 217.061C227.841 217.486 227.573 217.876 227.246 218.215C226.773 218.716 226.248 219.165 225.68 219.556C224.415 220.464 223.42 220.962 222.7 221.032C221.985 221.111 221.474 220.922 221.178 220.457C221.141 220.4 221.108 220.341 221.08 220.28ZM220.906 215.984C221.256 216.533 221.661 216.825 222.137 216.863C222.634 216.885 223.123 216.731 223.516 216.428C223.969 216.121 224.31 215.676 224.489 215.16C224.569 214.905 224.588 214.636 224.544 214.372C224.501 214.109 224.398 213.859 224.241 213.643C223.899 213.103 223.482 212.818 223.005 212.781C222.477 212.765 221.961 212.934 221.546 213.26C221.111 213.553 220.785 213.983 220.62 214.48C220.553 214.736 220.543 215.004 220.593 215.264C220.642 215.524 220.749 215.77 220.906 215.984ZM236.609 208.639L234.638 210.055L232.955 207.412C232.599 206.854 232.325 206.522 232.133 206.416C231.931 206.317 231.703 206.286 231.482 206.327C231.201 206.385 230.936 206.505 230.708 206.68C230.384 206.905 230.112 207.197 229.911 207.537C229.735 207.811 229.656 208.135 229.685 208.458C229.805 208.925 230.011 209.366 230.294 209.757L231.787 212.102L229.815 213.519L226.515 208.335L228.347 207.019L228.833 207.781C229.13 206.704 229.803 205.769 230.73 205.144C231.13 204.852 231.568 204.615 232.032 204.44C232.376 204.311 232.744 204.254 233.112 204.274C233.385 204.306 233.645 204.409 233.865 204.574C234.142 204.815 234.376 205.1 234.559 205.418L236.609 208.639ZM238.049 197.19L240.128 195.697L242.593 199.568C242.832 199.974 243.111 200.355 243.426 200.706C243.581 200.819 243.759 200.9 243.947 200.942C244.135 200.985 244.33 200.988 244.519 200.951C245.627 200.658 246.589 199.971 247.226 199.021C247.408 198.719 247.464 198.357 247.381 198.014C247.202 197.566 246.972 197.139 246.696 196.743L244.178 192.788L246.257 191.295L248.645 195.045C249.19 195.901 249.528 196.554 249.635 196.992C249.753 197.431 249.738 197.894 249.593 198.324C249.4 198.859 249.113 199.354 248.745 199.788C248.203 200.406 247.587 200.953 246.909 201.418C245.923 202.126 245.136 202.583 244.515 202.785C244.012 202.984 243.471 203.071 242.93 203.042C242.535 203.023 242.154 202.892 241.831 202.665C241.296 202.181 240.838 201.618 240.472 200.997L238.049 197.19ZM249.629 191.735L251.474 190.411L251.96 191.173C252.048 190.696 252.239 190.243 252.521 189.848C252.841 189.373 253.247 188.962 253.717 188.636C254.475 188.046 255.414 187.736 256.375 187.758C257.282 187.784 258.003 188.231 258.536 189.067C258.801 189.454 258.973 189.897 259.038 190.36C259.103 190.824 259.059 191.297 258.911 191.741C258.59 192.681 257.972 193.492 257.149 194.051C256.778 194.325 256.366 194.538 255.928 194.683C255.462 194.818 254.978 194.878 254.494 194.859L256.159 197.474L254.187 198.89L249.629 191.735ZM253.174 192.837C253.547 193.424 253.991 193.729 254.501 193.769C255.032 193.803 255.557 193.642 255.978 193.318C256.408 193.028 256.725 192.599 256.876 192.104C257.016 191.637 256.9 191.111 256.534 190.534C256.184 189.985 255.779 189.692 255.295 189.645C254.785 189.622 254.282 189.78 253.878 190.092C253.43 190.392 253.095 190.833 252.927 191.345C252.851 191.596 252.834 191.861 252.877 192.12C252.92 192.378 253.021 192.624 253.174 192.837Z" fill="white"/>
<path d="M148.604 140.085C161.854 127.671 164.232 108.722 153.915 97.7612C143.599 86.8002 124.494 87.978 111.244 100.392C97.9943 112.806 95.6166 131.755 105.933 142.716C116.25 153.677 135.355 152.499 148.604 140.085Z" fill="white"/>
<path fill-rule="evenodd" clip-rule="evenodd" d="M127.17 133.88C123.325 133.822 119.86 132.139 117.822 128.94C114.129 123.139 116.54 114.536 123.219 109.739C129.898 104.942 138.344 105.752 142.037 111.553C144.426 115.304 144.23 120.237 142.025 124.54C151.08 121.5 159.182 123.006 161.225 128.619C163.616 135.208 156.732 144.986 145.874 150.432C135.015 155.878 124.225 154.959 121.835 148.369C120.343 144.18 122.554 138.712 127.17 133.88Z" fill="#DBDBDB"/>
<path fill-rule="evenodd" clip-rule="evenodd" d="M322.934 267.225C325.258 223.482 309.847 185.412 311.25 160.405C312.149 144.542 305.265 120.997 331.396 117.183C353.8 113.913 381.487 119.821 386.946 125.835C397.994 137.969 393.982 203.763 383.482 212.737C362.437 226.142 339.376 253.831 322.934 267.225Z" fill="#E77127"/>
<mask id="mask1_536_6632" style="mask-type:luminance" maskUnits="userSpaceOnUse" x="311" y="116" width="83" height="152">
<path d="M322.934 267.225C325.258 223.482 309.847 185.412 311.25 160.405C312.149 144.542 305.265 120.997 331.396 117.183C353.8 113.913 381.487 119.821 386.946 125.835C397.994 137.969 393.982 203.763 383.482 212.737C362.437 226.142 339.376 253.831 322.934 267.225Z" fill="white"/>
</mask>
<g mask="url(#mask1_536_6632)">
<path fill-rule="evenodd" clip-rule="evenodd" d="M368.244 149.872C366.424 152.295 365.394 155.294 364.539 158.163C362.281 165.562 362.194 172.946 363.224 180.56C364.232 188.078 366.228 195.867 364.868 203.472C363.838 209.098 360.813 213.749 357.853 218.526C350.423 230.54 346.037 234.486 335.975 243.394C330.253 248.441 319.096 269.191 320.784 277.266C321.946 282.898 330.867 277.43 334.222 275.709C343.32 271.03 351.453 264.453 360.331 259.316C373.001 251.965 387.25 245.616 396.743 234.046C409.348 218.666 410.86 195.412 406.015 176.767C403.714 167.892 399.658 158.603 391.657 153.511L368.244 149.872Z" fill="black" fill-opacity="0.1"/>
</g>
<path fill-rule="evenodd" clip-rule="evenodd" d="M384.356 126.628C399.418 132.971 430.088 219.31 412.458 235.394C394.828 251.479 278.595 223.143 278.595 223.143C275.265 224.47 266.952 226.188 263.149 224.091C257.424 220.922 260.947 213.846 259.148 210.242C256.842 205.607 240.366 216.035 241.03 207.059C241.443 201.75 268.154 198.779 276.51 202.142C279.498 203.341 280.36 206.545 280.36 206.545C280.36 206.545 363.146 214.196 371.766 208.156C382.425 200.673 355.707 173.696 359.865 143.202C362.423 124.458 376.086 123.137 384.356 126.628Z" fill="#FFC197"/>
<mask id="mask2_536_6632" style="mask-type:luminance" maskUnits="userSpaceOnUse" x="241" y="125" width="177" height="116">
<path d="M384.356 126.628C399.418 132.971 430.088 219.31 412.458 235.394C394.828 251.479 278.595 223.143 278.595 223.143C275.265 224.47 266.952 226.188 263.149 224.091C257.424 220.922 260.947 213.846 259.148 210.242C256.842 205.607 240.366 216.035 241.03 207.059C241.443 201.75 268.154 198.779 276.51 202.142C279.498 203.341 280.36 206.545 280.36 206.545C280.36 206.545 363.146 214.196 371.766 208.156C382.425 200.673 355.707 173.696 359.865 143.202C362.423 124.458 376.086 123.137 384.356 126.628Z" fill="white"/>
</mask>
<g mask="url(#mask2_536_6632)">
<path fill-rule="evenodd" clip-rule="evenodd" d="M360.576 182.595C362.52 178.734 368.498 176.771 372.223 175.469C376.159 174.091 380.355 173.482 384.52 174.088C390.79 174.999 396.405 178.297 402.723 178.888C407.424 179.326 412.386 178.062 416.47 175.721C418.38 174.63 420.077 173.204 421.482 171.514C429.756 161.502 422.879 145.442 417.454 135.823C411.349 124.999 401.749 114.987 389.613 111.114C370.797 105.102 351.38 117.508 344.981 135.259C342.487 142.292 341.73 149.821 342.775 157.207C343.981 165.986 347.342 174.596 353.288 181.248L360.576 182.595Z" fill="#E77127"/>
</g>
<path fill-rule="evenodd" clip-rule="evenodd" d="M334.954 116.592C334.954 116.592 343.789 110.072 341.728 103.209C341.201 101.406 337.213 106.485 333.617 104.286C328.707 101.263 327.523 83.839 333.069 74.7734C336.511 69.1545 348.612 65.7842 352.558 69.6117C356.504 73.4392 358.06 89.7531 356.701 97.7414C354.552 110.484 366.193 118.15 366.193 118.15C366.193 118.15 346.858 133.589 341.991 146.403C340.566 150.166 334.954 116.592 334.954 116.592Z" fill="#FFC197"/>
<mask id="mask3_536_6632" style="mask-type:luminance" maskUnits="userSpaceOnUse" x="329" y="67" width="38" height="80">
<path d="M334.954 116.592C334.954 116.592 343.789 110.072 341.728 103.209C341.201 101.406 337.213 106.485 333.617 104.286C328.707 101.263 327.523 83.839 333.069 74.7734C336.511 69.1545 348.612 65.7842 352.558 69.6117C356.504 73.4392 358.06 89.7531 356.701 97.7414C354.552 110.484 366.193 118.15 366.193 118.15C366.193 118.15 346.858 133.589 341.991 146.403C340.566 150.166 334.954 116.592 334.954 116.592Z" fill="white"/>
</mask>
<g mask="url(#mask3_536_6632)">
<path fill-rule="evenodd" clip-rule="evenodd" d="M339.424 104.147C340.125 103.768 340.695 102.996 341.221 102.419C342.43 101.126 343.544 99.7485 344.554 98.2961C344.926 97.7178 345.299 97.1281 345.715 96.5571C345.803 96.4128 346.044 95.9929 346.263 95.9929C346.483 95.9929 346.351 96.7148 346.329 96.8079C346.183 97.8179 345.948 98.8131 345.628 99.7823C344.422 103.75 341.945 106.72 339.292 109.806L339.424 104.147Z" fill="black" fill-opacity="0.1"/>
</g>
<path fill-rule="evenodd" clip-rule="evenodd" d="M335.766 82.1355C334.121 82.0371 332.587 81.0792 331.315 80.0993C326.427 76.3418 326.757 69.8044 331.008 65.6838C333.573 63.2102 338.834 61.559 341.29 65.041C342.079 63.9255 343.723 63.4528 344.973 63.1621C345.987 62.8934 347.04 62.8017 348.086 62.8908C355.232 63.8511 353.566 72.8116 359.002 75.6769C360.778 74.5373 362.729 78.262 363.08 79.3971C364.286 83.345 363.76 90.0922 359.2 91.667C358.804 92.7278 357.797 93.4736 356.898 94.0856C354.421 95.7852 350.431 97.0011 347.669 95.245C347.337 95.0306 347.035 94.7731 346.77 94.4794C344.797 92.29 346.88 89.7946 347.537 87.5201C347.888 86.3213 348.173 84.8209 347.121 83.8785C346.266 83.1392 345.411 83.559 344.731 84.2728C343.701 85.3599 343.131 87.0724 341.487 87.3786C339.119 87.8161 336.818 85.5457 336.072 83.9534C335.919 83.6161 335.766 82.1355 335.766 82.1355Z" fill="black"/>
<path fill-rule="evenodd" clip-rule="evenodd" d="M320.65 64.7552C320.651 63.9864 320.436 63.2327 320.029 62.5798C319.622 61.927 319.039 61.4011 318.348 61.0621L230.299 17.8593C229.67 17.5527 228.973 17.4107 228.273 17.4466C227.574 17.4824 226.895 17.695 226.3 18.0642C225.706 18.4335 225.215 18.9474 224.874 19.5577C224.533 20.168 224.353 20.8547 224.351 21.5535V36.0915C224.353 36.8598 224.569 37.6124 224.976 38.2648C225.383 38.9171 225.964 39.4435 226.654 39.7847L314.719 82.9957C315.348 83.3035 316.046 83.4462 316.745 83.4101C317.445 83.3741 318.124 83.1605 318.717 82.7897C319.311 82.4188 319.8 81.9029 320.138 81.2908C320.477 80.6787 320.653 79.9906 320.65 79.2917L320.65 64.7552Z" fill="#E77127"/>
<path fill-rule="evenodd" clip-rule="evenodd" d="M236.772 39.3872L234.898 37.2722L237.336 34.801L233.026 31.5477L233.602 29.7158L237.912 32.9686L237.684 28.4839L239.913 29.4655L240.141 33.9503L244.31 34.4316L245.103 36.8665L240.934 36.3849L243.741 41.1667L242.002 41.6907L239.209 36.9133L236.772 39.3872ZM252.281 46.988L250.407 44.8727L252.845 42.4015L248.535 39.149L249.111 37.3172L253.421 40.5697L253.193 36.0852L255.422 37.0669L255.65 41.5513L259.819 42.033L260.612 44.4676L256.443 43.9863L259.25 48.7681L257.511 49.2917L254.718 44.5147L252.281 46.988ZM268.899 54.3827L267.025 52.2677L269.463 49.7965L265.153 46.544L265.729 44.7121L270.039 47.9649L269.811 43.4802L272.04 44.4618L272.268 48.9466L276.437 49.4279L277.23 51.8629L273.061 51.3812L275.868 56.163L274.129 56.687L271.336 51.9096L268.899 54.3827ZM285.126 63.1048L283.252 60.9895L285.69 58.5183L281.38 55.2655L281.956 53.4339L286.266 56.6864L286.038 52.202L288.267 53.1836L288.495 57.6681L292.664 58.1497L293.457 60.5844L289.288 60.103L292.095 64.8845L290.356 65.4085L287.562 60.6314L285.126 63.1048ZM302.249 71.5066L300.376 69.3916L302.813 66.9204L298.504 63.6679L299.08 61.836L303.39 65.0888L303.161 60.6041L305.39 61.5858L305.619 66.0705L309.787 66.5518L310.58 68.9868L306.411 68.5051L309.218 73.2869L307.479 73.8109L304.686 69.0336L302.249 71.5066Z" fill="white"/>
<path fill-rule="evenodd" clip-rule="evenodd" d="M265.295 64.5328C266.665 62.9818 274.893 59.245 277.052 58.945C280.496 58.4403 283.738 60.6912 282.545 63.9587C282.071 65.2158 271.649 68.1043 268.783 68.2068C267.609 68.2439 264.748 65.1475 265.295 64.5328Z" fill="#FFC197"/>
</svg>
