<svg width="78" height="95" viewBox="0 0 78 95" fill="none" xmlns="http://www.w3.org/2000/svg">
<g clip-path="url(#clip0_46_1709)">
<g clip-path="url(#clip1_46_1709)">
<mask id="mask0_46_1709" style="mask-type:luminance" maskUnits="userSpaceOnUse" x="-10" y="2" width="112" height="169">
<path d="M-9.95728 170.109L-9.95727 2.22433L101.819 2.22434L101.819 170.109L-9.95728 170.109Z" fill="white"/>
</mask>
<g mask="url(#mask0_46_1709)">
<path d="M15.5022 170.397C11.3263 168.983 5.04162 164.995 7.23428 154.291C7.33204 153.576 7.54153 152.876 7.63929 152.161C8.63088 145.23 7.54153 138.399 4.55281 132.996C1.56409 127.594 -3.22625 123.507 -9.99976 121.978L-9.99976 121.163C-2.919 122.792 2.16463 126.98 5.15335 132.582C8.23983 138.184 9.32918 145.23 8.33759 152.261C8.23983 152.976 8.14207 153.691 7.93258 154.505C5.15335 168.154 16.9965 170.197 18.7004 170.397L15.5022 170.397ZM100.373 170.397C87.3293 162.251 72.0924 147.674 75.5699 125.551C78.5586 107.1 77.6648 94.9666 73.88 86.9205C70.193 79.0744 63.615 75.2014 55.1516 73.2578C40.613 69.7992 39.9147 68.4701 30.9485 49.9196C29.2587 46.4468 27.2615 42.2737 24.8733 37.486C17.206 22.2941 13.0162 14.3337 7.13652 9.546C2.86292 6.18749 -2.22069 4.34387 -9.99975 2.71464L-9.99975 2.00006C-2.02517 3.64359 3.25398 5.47291 7.54153 8.93147C13.519 13.8335 17.9043 21.8796 25.4739 37.0715C27.9598 42.0593 29.957 46.1467 31.6468 49.6052C40.4035 67.7555 41.1018 69.1847 55.3471 72.4431C64.02 74.4868 70.7935 78.4599 74.5783 86.6061C78.3631 94.7666 79.2569 107 76.366 125.651C72.7907 147.974 88.7259 162.451 101.868 170.397L100.373 170.397ZM95.0943 170.397C82.5529 162.651 67.9026 148.689 71.2963 127.38C74.0755 109.858 73.2795 98.4395 69.8019 90.7935C66.3104 83.2476 60.2352 79.5746 52.2606 77.6453C38.5181 74.2725 37.8198 72.7433 29.4542 55.4219C27.8621 52.0491 25.8649 48.076 23.5745 43.3884C16.4099 29.0254 12.2201 21.3794 6.53598 16.7918C2.45791 13.5191 -2.52795 11.7898 -9.99975 10.1605L-9.99975 9.44596C-2.31846 11.0752 2.7512 12.8045 7.03876 16.2773C12.8207 20.8649 16.9965 28.6109 24.2728 43.0883C26.5632 47.7759 28.5604 51.749 30.1525 55.1075C38.3226 72.143 39.0209 73.5579 52.3584 76.9307C60.5285 78.86 66.911 82.7331 70.5002 90.4791C73.9778 98.2394 74.8716 109.858 72.0924 127.494C68.6009 149.003 83.9355 162.866 96.4909 170.397L95.0943 170.397ZM89.7174 170.397C77.7626 163.066 63.7128 149.703 67.0087 129.123C69.6902 112.702 68.8941 101.898 65.7099 94.6665C62.4279 87.535 56.7437 83.9621 49.2719 82.0185C36.521 78.66 35.7249 77.0307 27.9598 60.9241C26.3677 57.6657 24.5661 53.8927 22.2757 49.4052C15.5022 35.7424 11.4241 28.5109 5.94941 24.1234C2.0529 20.8649 -2.72347 19.1356 -9.99975 17.6064L-9.99975 16.8919C-2.52795 18.4211 2.36015 20.1503 6.43822 23.5089C12.0246 27.9964 16.1027 35.3423 22.974 49.105C25.2644 53.5783 27.066 57.3513 28.5604 60.5097C36.3254 76.4162 37.0237 78.0454 49.4814 81.3182C57.1487 83.2476 63.0284 87.0205 66.3104 94.3521C69.6902 101.698 70.3885 112.702 67.8048 129.324C64.4111 150.118 79.1591 163.266 91.2118 170.397L89.7174 170.397ZM84.3405 170.397C72.9862 163.366 59.5369 150.832 62.8189 130.953C65.2071 115.561 64.5228 105.371 61.5341 98.5395C58.5453 91.8082 53.2662 88.3496 46.2832 86.406C34.5378 83.0475 33.63 81.4182 26.4655 66.3264C24.9711 63.268 23.1834 59.6951 21.0885 55.4219C14.6083 42.5738 10.7258 35.5423 5.44664 31.3692C1.56409 28.1965 -3.01676 26.5672 -9.99975 25.1381L-9.99975 24.3235C-2.82123 25.8527 1.85737 27.4962 5.83768 30.7547C11.2286 35.0278 15.2089 42.0593 21.6891 55.0074C23.8678 59.3949 25.5716 62.9678 27.066 66.0262C34.2305 80.8037 35.0266 82.4329 46.4927 85.6914C53.6572 87.6351 59.1319 91.1937 62.2324 98.2394C65.3189 105.171 66.0172 115.561 63.5172 131.053C60.2352 151.132 74.3828 163.68 85.8349 170.397L84.3405 170.397ZM79.0614 170.397C68.1958 163.78 55.3471 151.847 58.5453 132.782C60.8358 118.419 60.2352 108.829 57.442 102.413C54.6488 95.9956 49.7747 92.7229 43.3922 90.7935C32.4429 87.535 31.6468 85.6914 24.8733 71.8286C23.4767 68.8702 21.8846 65.5117 19.7897 61.3386C13.7145 49.3051 9.92972 42.6738 4.8461 38.6007C1.15908 35.6424 -3.32401 34.0131 -9.99975 32.584L-9.99975 31.7694C-3.11452 33.1985 1.46633 34.9278 5.34887 37.9862C10.5303 42.1736 14.315 48.7906 20.488 61.0242C22.4851 65.0973 24.175 68.5701 25.5716 71.5285C32.1356 85.1912 33.0434 86.9205 43.6017 90.0789C50.1657 92.0083 55.2494 95.4811 58.1403 102.112C60.9335 108.729 61.5341 118.419 59.2436 132.896C56.0454 152.161 69.5924 164.081 80.458 170.397L79.0614 170.397ZM73.6845 170.397C63.4195 164.181 51.1713 152.876 54.2578 134.526C56.3527 121.263 55.8499 112.302 53.2662 106.286C50.7663 100.269 46.2832 97.1104 40.4035 95.181C30.4458 91.9082 29.5519 90.0789 23.379 77.3309C22.0801 74.5869 20.488 71.3284 18.4909 67.3411C12.8207 56.0364 9.23142 49.7053 4.24556 45.8323C0.670264 42.9882 -3.6173 41.359 -9.99975 40.0299L-9.99975 39.2153C-3.42177 40.6444 0.963548 42.2737 4.74833 45.232C9.7342 49.2051 13.4212 55.5219 19.1892 67.0409C21.1863 70.9139 22.7784 74.1724 24.0773 76.9307C30.0547 89.4644 30.9485 91.308 40.613 94.4664C46.6882 96.3958 51.3668 99.7686 53.9505 105.985C56.5482 112.202 57.1487 121.263 54.9561 134.726C51.8696 153.276 64.8161 164.495 75.1788 170.397L73.6845 170.397ZM68.4053 170.397C58.6431 164.595 46.9815 153.891 49.9702 136.355C51.9674 124.121 51.4646 115.861 49.1742 110.159C46.8837 104.556 42.8057 101.498 37.4148 99.5542C28.4626 96.3958 27.457 94.4664 21.8846 82.7331C20.6835 80.1892 19.1892 77.1308 17.3038 73.3578C11.9269 62.7535 8.43536 56.8511 3.75675 53.0781C0.265251 50.3198 -3.92455 48.7906 -9.99975 47.4758L-9.99975 46.6469C-3.71506 48.076 0.558536 49.6052 4.1478 52.4635C9.0359 56.3366 12.5134 62.3533 17.9043 72.9576C19.7897 76.7306 21.2841 79.789 22.5829 82.4329C28.0576 93.8519 28.9514 95.7813 37.722 98.8396C43.1967 100.783 47.4843 104.042 49.8725 109.858C52.1629 115.661 52.6657 124.121 50.6685 136.455C47.6798 154.291 60.0397 164.895 69.8997 170.397L68.4053 170.397ZM63.0284 170.397C53.8528 164.995 42.8057 155.005 45.6827 138.184C47.4843 126.98 47.0793 119.334 45.0961 114.032C43.0012 108.829 39.3142 105.871 34.5378 103.942C26.3677 100.783 25.4739 98.7396 20.3902 88.2496C19.1892 85.7915 17.7926 82.9474 16.0049 79.3745C11.0191 69.4848 7.6393 63.8825 3.15621 60.3096C-0.237525 57.6657 -4.21783 56.1365 -9.99975 54.9074L-9.99975 54.1928C-4.02231 55.4219 0.167488 56.9511 3.65899 59.6951C8.23983 63.368 11.6196 69.0846 16.7032 78.9601C18.4909 82.533 19.8875 85.4913 21.0885 87.9352C25.9627 98.2394 26.9682 100.169 34.7333 103.227C39.8169 105.171 43.6017 108.329 45.7944 113.731C47.8753 119.134 48.2803 126.88 46.381 138.299C43.504 155.32 55.3471 165.31 64.5228 170.397L63.0284 170.397ZM57.6376 170.397C49.0764 165.41 38.6159 156.034 41.4091 139.928C43.099 129.724 42.7079 122.792 40.9063 117.905C39.1186 113.017 35.8227 110.259 31.5491 108.329C24.3706 105.271 23.379 103.127 18.8959 93.7518C17.7926 91.5081 16.5077 88.7498 14.7061 85.2912C10.1252 76.2161 6.941 70.9139 2.55567 67.5554C-0.628573 65.0973 -4.51112 63.5681 -9.99975 62.3533L-9.99975 61.6387C-4.31559 62.8678 -0.335288 64.397 3.05845 66.9409C7.44377 70.3994 10.7258 75.8017 15.4044 84.9768C17.0943 88.3496 18.3931 91.0936 19.5942 93.4374C23.8678 102.613 24.8733 104.656 31.8424 107.615C36.3254 109.644 39.7192 112.502 41.6046 117.604C43.504 122.692 43.7973 129.724 42.1074 140.128C39.3142 156.435 50.5708 165.71 59.2436 170.397L57.6376 170.397ZM52.3584 170.397C44.3 165.81 34.44 157.049 37.1215 141.757C38.6159 132.582 38.4203 126.265 36.8282 121.778C35.2361 117.29 32.3451 114.546 28.5604 112.702C22.3734 109.644 21.2841 107.515 17.4015 99.3541C16.4099 97.1104 15.1111 94.4664 13.519 91.308C9.23142 82.9474 6.14493 78.0454 2.0529 74.787C-1.03359 72.4431 -4.81837 71.014 -9.99975 69.7992L-9.99975 69.0846C-4.60888 70.1994 -0.726335 71.7286 2.45791 74.2725C6.74547 77.5452 9.83196 82.533 14.1056 90.9936C15.8094 94.152 16.9965 96.8102 18.0998 98.9397C21.8846 107 22.8762 109.144 28.8536 112.102C32.8339 114.032 35.8227 116.79 37.5265 121.477C39.1186 126.165 39.4119 132.582 37.8198 141.857C35.1244 157.564 45.7944 166.224 53.9505 170.397L52.3584 170.397ZM46.9815 170.397C39.5097 166.324 30.2502 158.164 32.8339 143.601C34.2305 135.44 34.035 129.724 32.6384 125.651C31.3396 121.477 28.8536 118.919 25.5716 117.09C20.2925 114.132 19.2869 111.888 15.9072 104.856C14.9156 102.813 13.8123 100.369 12.2201 97.3104C8.33759 89.7788 5.44664 85.0769 1.46633 82.1328C-1.5224 79.789 -5.11166 78.3598 -9.99975 77.2308L-9.99975 76.5162C-4.91613 77.6453 -1.22911 79.0744 1.95514 81.5183C5.94941 84.5767 9.0359 89.2643 12.9184 96.9103C14.4128 99.9687 15.5999 102.513 16.6055 104.556C19.8875 111.388 20.8791 113.631 25.9627 116.475C29.3564 118.419 32.0379 121.063 33.3367 125.35C34.7333 129.624 34.9288 135.44 33.63 143.701C30.9485 158.578 41.1018 166.624 48.6714 170.397L46.9815 170.397ZM41.7024 170.397C34.7333 166.739 26.0604 159.193 28.5604 145.33C29.7475 138.299 29.6497 133.197 28.5604 129.424C27.457 125.751 25.3621 123.307 22.6807 121.477C18.2954 118.619 17.206 116.375 14.5106 110.459C13.519 108.529 12.5134 106.186 11.0191 103.227C7.54153 96.4958 4.65057 92.2227 0.865789 89.3643C-1.92741 87.1206 -5.41891 85.7915 -9.99975 84.7768L-9.99975 83.9621C-5.20942 84.9768 -1.62016 86.406 1.36857 88.7498C5.15335 91.7082 8.14207 95.9956 11.6196 102.927C13.114 105.771 14.2173 108.229 15.1111 110.159C17.7926 115.861 18.8959 118.105 23.0717 120.863C25.9627 122.792 28.1553 125.35 29.2587 129.223C30.348 133.096 30.5435 138.299 29.3564 145.43L29.3564 145.53C26.7587 159.807 36.4232 167.039 43.3922 170.397L41.7024 170.397ZM36.4232 170.397C29.957 167.139 21.8846 160.308 24.2728 147.159C25.3621 141.143 25.2644 136.655 24.4683 133.297C23.5745 130.038 21.8846 127.694 19.6919 125.851C16.2982 123.107 15.2089 120.863 13.0162 116.175C12.2201 114.232 11.1308 111.988 9.7342 109.244C6.64771 103.227 3.85451 99.2541 0.363014 96.5959C-2.43019 94.4664 -5.61443 93.1373 -9.99975 92.2227L-9.99975 91.408C-5.51667 92.4227 -2.12294 93.8519 0.768026 95.9956C4.45505 98.7396 7.23428 102.813 10.3208 108.929C11.8151 111.688 12.8207 113.932 13.7145 115.861C15.8094 120.448 16.8987 122.692 20.083 125.25C22.4851 127.18 24.2728 129.624 25.1666 133.096C26.0604 136.655 26.0604 141.143 25.0689 147.259C22.5829 160.922 31.7446 167.553 38.1131 170.397L36.4232 170.397ZM31.1441 170.397C25.2644 167.553 17.6948 161.437 20.083 149.003C20.8791 144.001 20.8791 140.228 20.2925 137.17C19.6919 134.211 18.3931 132.082 16.7032 130.238C14.315 127.694 13.3095 125.551 11.6196 121.978C10.8235 120.148 9.83195 118.005 8.43536 115.261C5.73992 109.958 3.15621 106.386 -0.237525 103.842C-2.82123 101.898 -6.00548 100.583 -9.99976 99.6543L-9.99976 98.8396C-5.80996 99.7686 -2.52795 101.183 0.167488 103.227C3.65899 105.771 6.34046 109.544 9.13366 114.846C10.5303 117.704 11.5218 119.848 12.3179 121.678C13.91 125.15 14.9156 127.28 17.206 129.724C19.0914 131.567 20.3902 133.911 20.9908 137.07C21.6891 140.128 21.6891 144.001 20.7813 149.103C18.2954 162.151 27.1638 168.054 32.9457 170.397L31.1441 170.397ZM25.8649 170.397C20.488 167.954 13.519 162.551 15.8094 150.732C16.5077 146.759 16.6055 143.701 16.2004 141.043C15.8094 138.399 14.9156 136.355 13.7145 134.626C12.2201 132.482 11.4241 130.553 10.4325 128.094C9.63643 126.265 8.63088 124.021 7.23428 121.263C4.8461 116.69 2.36015 113.417 -0.824099 111.073C-3.32401 109.244 -6.31273 107.915 -9.99976 107.1L-9.99976 106.286C-6.10324 107.2 -3.01676 108.529 -0.335288 110.459C2.96069 112.917 5.44664 116.275 7.83482 120.863C9.32918 123.721 10.223 125.851 11.0191 127.794C12.1224 130.238 12.9184 132.082 14.315 134.111C15.5999 136.055 16.5077 138.184 16.8988 140.943C17.3038 143.601 17.206 146.859 16.5077 150.832L16.5077 150.932C14.1056 163.466 22.6807 168.568 27.8621 170.397L25.8649 170.397ZM20.5858 170.397C15.9072 168.468 9.23142 163.78 11.5218 152.562C12.0246 149.603 12.2201 147.159 12.0246 144.916C11.9269 142.672 11.4241 140.742 10.7258 138.899C10.223 137.684 9.83196 136.555 9.42694 135.44C8.53312 132.996 7.6393 130.438 5.94941 127.18C3.95227 123.407 1.66185 120.563 -1.32687 118.319C-3.71506 116.575 -6.60602 115.361 -9.99976 114.546L-9.99976 113.731C-6.4105 114.546 -3.42177 115.861 -0.935827 117.704C2.16463 119.948 4.55281 123.007 6.53598 126.88C8.33759 130.138 9.23142 132.682 10.1252 135.24C10.5303 136.355 10.9213 137.484 11.4241 138.599C12.1224 140.428 12.6112 142.472 12.8207 144.816C12.9184 147.159 12.8207 149.703 12.2201 152.662C9.7342 164.995 18.5886 169.183 22.8762 170.397L20.5858 170.397Z" fill="#E77127"/>
</g>
</g>
</g>
<defs>
<clipPath id="clip0_46_1709">
<rect width="114" height="78" fill="white" transform="translate(0 114) rotate(-90)"/>
</clipPath>
<clipPath id="clip1_46_1709">
<rect width="168.498" height="115.064" fill="white" transform="translate(-9.95728 170.722) rotate(-90)"/>
</clipPath>
</defs>
</svg>
