<svg viewBox="0 0 28 28" fill="none" xmlns="http://www.w3.org/2000/svg">
									<path
										fill-rule="evenodd"
										clip-rule="evenodd"
										d="M6.60795 13.6889C6.60795 12.7997 6.75563 11.9473 7.0192 11.1477L2.40573 7.62469C1.50659 9.45029 1 11.5074 1 13.6889C1 15.8685 1.50596 17.9243 2.40386 19.7487L7.01484 16.2188C6.75376 15.423 6.60795 14.5737 6.60795 13.6889Z"
										fill="#FBBC05"
									/>
									<path
										fill-rule="evenodd"
										clip-rule="evenodd"
										d="M14.7084 5.6C16.64 5.6 18.3847 6.28444 19.7555 7.40444L23.7434 3.42222C21.3133 1.30667 18.1978 0 14.7084 0C9.29108 0 4.63523 3.09804 2.40576 7.62471L7.01924 11.1477C8.08226 7.92089 11.1124 5.6 14.7084 5.6Z"
										fill="#EB4335"
									/>
									<path
										fill-rule="evenodd"
										clip-rule="evenodd"
										d="M14.7084 21.7778C11.1124 21.7778 8.08226 19.4569 7.01924 16.23L2.40576 19.7524C4.63524 24.2797 9.29108 27.3778 14.7084 27.3778C18.052 27.3778 21.2441 26.1906 23.64 23.9661L19.2608 20.5806C18.0252 21.359 16.4693 21.7778 14.7084 21.7778Z"
										fill="#34A853"
									/>
									<path
										fill-rule="evenodd"
										clip-rule="evenodd"
										d="M27.7937 13.6889C27.7937 12.88 27.6691 12.0089 27.4822 11.2H14.7085V16.4889H22.0611C21.6935 18.2921 20.6928 19.6784 19.2609 20.5806L23.6401 23.9661C26.1568 21.6303 27.7937 18.1509 27.7937 13.6889Z"
										fill="#4285F4"
									/>
								</svg>