<svg width="500" height="500" viewBox="0 0 500 500" fill="none" xmlns="http://www.w3.org/2000/svg">
<path d="M247.894 260.646C254.283 260.488 260.236 291.75 261.19 330.467C262.144 369.188 257.739 400.705 251.352 400.861C244.962 401.019 239.009 369.757 238.055 331.038C237.1 292.319 241.504 260.802 247.894 260.646Z" fill="#FFAE4A"/>
<path d="M240.767 253.526C247.157 253.368 253.11 284.63 254.064 323.351C255.019 362.068 250.613 393.584 244.225 393.743C237.836 393.9 231.882 362.64 230.928 323.92C229.973 285.199 234.38 253.684 240.767 253.526Z" fill="#F59A38"/>
<g opacity="0.1">
<path d="M228.093 416.021C227.711 427.16 220.07 435.939 211.026 435.628C201.983 435.318 194.961 426.035 195.342 414.898C195.725 403.758 203.367 394.98 212.409 395.289C221.454 395.6 228.474 404.882 228.093 416.021Z" fill="black"/>
<path d="M203.94 427.614C202.355 435.527 195.674 440.863 189.016 439.53C182.359 438.196 178.246 430.7 179.831 422.787C181.415 414.873 188.096 409.539 194.753 410.871C201.412 412.205 205.524 419.7 203.94 427.614Z" fill="black"/>
<path d="M262.666 429.483C265.619 439.7 275.118 444.933 283.882 441.174C292.646 437.413 297.356 426.085 294.403 415.87C291.448 405.653 281.95 400.419 273.185 404.179C264.422 407.938 259.712 419.268 262.666 429.483Z" fill="black"/>
<path d="M292.158 429.471C293.742 437.384 300.423 442.718 307.08 441.385C313.737 440.051 317.851 432.555 316.265 424.644C314.682 416.729 308 411.394 301.343 412.728C294.685 414.06 290.572 421.556 292.158 429.471Z" fill="black"/>
<path d="M283.055 451.31C284.466 458.345 292.496 462.669 300.993 460.968C309.492 459.267 315.238 452.184 313.83 445.149C312.421 438.114 304.389 433.788 295.893 435.489C287.394 437.193 281.647 444.276 283.055 451.31Z" fill="black"/>
<path d="M279.237 462.262C287.869 464.42 295.166 461.119 295.538 454.888C295.907 448.659 289.21 441.858 280.578 439.7C271.946 437.54 264.648 440.841 264.278 447.07C263.906 453.302 270.604 460.102 279.237 462.262ZM218.395 414.161C219.979 422.074 226.661 427.409 233.319 426.075C239.976 424.743 244.088 417.247 242.504 409.334C240.919 401.419 234.237 396.086 227.58 397.418C220.923 398.75 216.81 406.246 218.395 414.161ZM250.934 406.096C248.053 413.347 250.002 419.967 255.287 420.88C260.571 421.793 267.19 416.656 270.071 409.406C272.952 402.155 271.002 395.536 265.719 394.623C260.434 393.708 253.815 398.847 250.934 406.096Z" fill="black"/>
<path d="M236.28 406.665C234.01 414.41 237.451 422.236 243.967 424.147C250.483 426.055 257.606 421.326 259.875 413.581C262.146 405.836 258.704 398.01 252.188 396.1C245.673 394.19 238.551 398.92 236.28 406.665ZM307.328 439.176C310.145 444.965 316.536 447.659 321.605 445.192C326.674 442.725 328.499 436.035 325.684 430.244C322.867 424.457 316.474 421.764 311.406 424.231C306.337 426.696 304.512 433.388 307.328 439.176Z" fill="black"/>
<path d="M305.222 443.476C308.424 450.058 315.695 453.122 321.46 450.317C327.225 447.512 329.302 439.901 326.098 433.317C322.895 426.733 315.625 423.67 309.86 426.476C304.094 429.279 302.019 436.891 305.222 443.476ZM220.889 446.429C217.702 452.559 218.888 460.355 223.536 463.843C228.186 467.329 234.537 465.188 237.722 459.058C240.91 452.928 239.724 445.131 235.075 441.643C230.425 438.156 224.074 440.299 220.889 446.429ZM255.866 449.122C252.728 456.063 250.024 466.298 255.351 469.857C260.68 473.414 272.024 468.947 275.161 462.008C278.297 455.067 276.521 446.558 271.194 442.999C265.865 439.441 259.003 442.183 255.866 449.122Z" fill="black"/>
<path d="M233.538 456.078L260.749 454.671C262.653 464.056 261.05 474.838 239.762 475C226.989 470.909 231.365 464.588 233.538 456.078Z" fill="black"/>
<path d="M238.158 443.092C237.63 449.98 241.776 456.688 247.421 458.074C253.064 459.461 258.068 455 258.596 448.113C259.126 441.224 254.979 434.516 249.335 433.13C243.692 431.743 238.688 436.203 238.158 443.092ZM315.489 441.559C316.752 446.394 321.206 449.416 325.438 448.31C329.672 447.204 332.08 442.39 330.817 437.555C329.553 432.722 325.1 429.698 320.866 430.804C316.633 431.91 314.227 436.725 315.489 441.559Z" fill="black"/>
<path d="M314.062 450.501C315.326 455.337 320.217 458.244 324.99 456.999C329.762 455.751 332.606 450.823 331.343 445.987C330.081 441.153 325.189 438.245 320.417 439.492C315.645 440.738 312.8 445.668 314.062 450.501Z" fill="black"/>
<path d="M304.692 450.286C305.942 453.379 309.496 455.393 312.63 454.783C315.762 454.172 317.29 451.17 316.038 448.078C314.787 444.984 311.234 442.969 308.1 443.581C304.967 444.19 303.441 447.194 304.692 450.286Z" fill="black"/>
<path d="M300.711 451.768C301.963 454.862 305.517 456.875 308.649 456.266C311.782 455.656 313.309 452.652 312.058 449.56C310.807 446.464 307.254 444.451 304.121 445.062C300.987 445.674 299.46 448.674 300.711 451.768Z" fill="black"/>
<path d="M311.793 449.817C313.044 452.911 316.597 454.925 319.73 454.315C322.863 453.705 324.39 450.702 323.139 447.608C321.888 444.516 318.334 442.502 315.201 443.113C312.068 443.722 310.541 446.723 311.793 449.817Z" fill="black"/>
<path d="M224.35 444.939C224.863 453.651 220.04 461.021 213.575 461.402C207.111 461.783 201.454 455.03 200.941 446.319C200.427 437.605 205.251 430.235 211.716 429.854C218.18 429.472 223.836 436.226 224.35 444.939Z" fill="black"/>
<path d="M194.186 456.572C202.817 458.732 210.116 455.431 210.486 449.201C210.856 442.97 204.159 436.17 195.527 434.01C186.894 431.852 179.596 435.153 179.226 441.384C178.855 447.613 185.553 454.413 194.186 456.572Z" fill="black"/>
<path d="M171.277 437.782C168.14 444.722 166.933 453.777 172.262 457.336C177.59 460.891 187.435 457.606 190.572 450.667C193.709 443.728 191.933 435.217 186.606 431.659C181.277 428.1 174.414 430.843 171.277 437.782ZM280.633 429.331C280.633 437.834 266.846 444.727 249.841 444.727C232.837 444.727 219.051 437.834 219.051 429.331C219.051 420.828 232.836 413.935 249.841 413.935C266.846 413.935 280.633 420.828 280.633 429.331Z" fill="black"/>
</g>
<path d="M228.328 417.587C227.945 428.726 220.303 437.505 211.261 437.194C202.218 436.884 195.195 427.603 195.578 416.464C195.96 405.326 203.602 396.547 212.645 396.857C221.688 397.167 228.71 406.45 228.328 417.587Z" fill="#C5E0E0"/>
<path d="M205.219 425.239C203.635 433.152 196.954 438.488 190.296 437.153C183.638 435.819 179.526 428.325 181.11 420.41C182.695 412.498 189.377 407.162 196.034 408.496C202.691 409.83 206.804 417.324 205.219 425.239Z" fill="#C5E0E0"/>
<path d="M263.944 427.108C266.898 437.324 276.398 442.557 285.161 438.796C293.925 435.038 298.635 423.709 295.681 413.493C292.728 403.276 283.229 398.044 274.465 401.803C265.702 405.563 260.991 416.891 263.944 427.108Z" fill="#C5E0E0"/>
<path d="M291.813 429.023C293.398 436.934 300.078 442.271 306.736 440.937C313.394 439.603 317.506 432.109 315.922 424.194C314.337 416.283 307.656 410.948 300.998 412.28C294.341 413.612 290.228 421.108 291.813 429.023Z" fill="#C5E0E0"/>
<path d="M282.593 439.556C284.394 448.556 291.994 454.625 299.566 453.108C307.138 451.591 311.816 443.066 310.014 434.065C308.211 425.064 300.612 418.997 293.04 420.514C285.469 422.03 280.79 430.554 282.593 439.556Z" fill="#C5E0E0"/>
<path d="M279.309 459.282C287.941 461.442 295.24 458.142 295.61 451.909C295.98 445.68 289.282 438.878 280.65 436.719C272.018 434.559 264.72 437.861 264.35 444.091C263.979 450.323 270.677 457.124 279.309 459.282ZM219.675 411.786C221.258 419.698 227.939 425.032 234.597 423.7C241.256 422.366 245.368 414.872 243.782 406.956C242.199 399.046 235.517 393.709 228.86 395.042C222.202 396.375 218.089 403.871 219.675 411.786ZM252.213 403.721C249.333 410.971 251.281 417.592 256.566 418.505C261.85 419.418 268.47 414.28 271.35 407.031C274.23 399.78 272.282 393.16 266.997 392.246C261.712 391.333 255.093 396.47 252.213 403.721Z" fill="#C5E0E0"/>
<path d="M237.561 404.29C235.29 412.033 238.731 419.861 245.247 421.77C251.762 423.68 258.884 418.949 261.155 411.206C263.425 403.459 259.984 395.633 253.469 393.724C246.953 391.814 239.831 396.543 237.561 404.29ZM308.608 436.801C311.424 442.59 317.816 445.282 322.884 442.815C327.954 440.349 329.779 433.658 326.962 427.869C324.146 422.08 317.754 419.388 312.685 421.854C307.617 424.319 305.791 431.011 308.608 436.801Z" fill="#C5E0E0"/>
<path d="M306.3 441.4C309.503 447.984 316.773 451.048 322.538 448.243C328.304 445.438 330.38 437.826 327.176 431.243C323.972 424.659 316.702 421.595 310.938 424.4C305.172 427.205 303.096 434.817 306.3 441.4ZM223.231 440.597C220.045 446.726 221.231 454.523 225.878 458.01C230.529 461.497 236.879 459.356 240.066 453.224C243.252 447.096 242.067 439.299 237.418 435.812C232.768 432.324 226.417 434.467 223.231 440.597ZM254.091 447.828C251.246 454.124 252.855 461.843 257.689 465.071C262.523 468.3 268.748 465.811 271.593 459.516C274.438 453.221 272.827 445.502 267.995 442.272C263.161 439.048 256.937 441.533 254.091 447.828Z" fill="#C5E0E0"/>
<path d="M239.438 440.715C238.909 447.605 243.055 454.312 248.698 455.699C254.344 457.084 259.347 452.625 259.875 445.736C260.404 438.847 256.258 432.139 250.614 430.755C244.97 429.368 239.966 433.828 239.438 440.715ZM312.881 445.104C314.143 449.939 318.598 452.963 322.831 451.855C327.065 450.75 329.471 445.935 328.209 441.1C326.945 436.267 322.491 433.244 318.259 434.349C314.025 435.457 311.617 440.27 312.881 445.104ZM292.511 450.557C293.761 453.651 297.315 455.664 300.448 455.055C303.582 454.445 305.108 451.441 303.857 448.348C302.607 445.254 299.052 443.241 295.918 443.85C292.785 444.462 291.26 447.463 292.511 450.557Z" fill="#C5E0E0"/>
<path d="M301.137 447.325C302.707 451.08 307.434 453.417 311.697 452.543C315.958 451.669 318.141 447.918 316.57 444.164C315 440.409 310.272 438.073 306.011 438.947C301.748 439.82 299.566 443.57 301.137 447.325Z" fill="#C5E0E0"/>
<path d="M226.436 442.651C226.948 451.363 222.124 458.732 215.66 459.116C209.195 459.496 203.538 452.743 203.025 444.031C202.512 435.318 207.336 427.949 213.8 427.567C220.265 427.187 225.922 433.94 226.436 442.651Z" fill="#C5E0E0"/>
<path d="M235.002 450.753L257.625 449.438C259.178 458.371 252.412 471.512 239.031 467.957C233.424 462.682 233.23 458.856 235.002 450.753Z" fill="#C5E0E0"/>
<path d="M251.121 442.35C268.126 442.35 281.911 435.457 281.911 426.955C281.911 418.452 268.126 411.56 251.121 411.56C234.116 411.56 220.33 418.452 220.33 426.955C220.33 435.457 234.116 442.35 251.121 442.35Z" fill="#C5E0E0"/>
<path d="M278.432 423.127C278.432 431.63 264.647 438.523 247.642 438.523C230.637 438.523 216.851 431.63 216.851 423.127C216.851 414.624 230.637 407.731 247.642 407.731C264.647 407.731 278.432 414.624 278.432 423.127Z" fill="white"/>
<path d="M221.259 409.658C220.877 420.797 214.274 429.611 206.509 429.344C198.745 429.078 192.761 419.832 193.144 408.693C193.525 397.556 200.129 388.742 207.893 389.008C215.658 389.274 221.642 398.519 221.259 409.658Z" fill="white"/>
<path d="M201.74 421.411C200.155 429.325 193.474 434.659 186.816 433.328C180.159 431.993 176.046 424.497 177.631 416.585C179.215 408.669 185.896 403.336 192.556 404.668C199.212 406.001 203.324 413.497 201.74 421.411Z" fill="white"/>
<path d="M270.488 424.601C272.212 434.379 279.596 438.857 286.978 434.604C294.36 430.352 298.946 418.977 297.22 409.2C295.494 399.424 288.111 394.944 280.73 399.196C273.348 403.449 268.762 414.822 270.488 424.601Z" fill="white"/>
<path d="M289.957 423.266C291.542 431.181 298.223 436.515 304.88 435.182C311.539 433.848 315.651 426.354 314.066 418.441C312.482 410.526 305.8 405.191 299.143 406.523C292.485 407.858 288.373 415.354 289.957 423.266Z" fill="white"/>
<path d="M283.05 436.43C285.528 445.022 292.321 449.791 298.221 447.082C304.122 444.372 306.898 435.209 304.42 426.618C301.943 418.026 295.151 413.257 289.25 415.966C283.349 418.676 280.573 427.839 283.05 436.43Z" fill="white"/>
<path d="M270.152 447.867C275.94 454.625 283.801 456.162 287.711 451.297C291.621 446.434 290.1 437.009 284.313 430.251C278.526 423.492 270.665 421.957 266.755 426.822C262.845 431.685 264.366 441.11 270.152 447.867ZM216.195 407.956C217.779 415.871 224.461 421.206 231.118 419.872C237.776 418.54 241.889 411.044 240.304 403.129C238.719 395.218 232.037 389.881 225.38 391.215C218.723 392.547 214.611 400.043 216.195 407.956ZM256.041 399.31C252.776 407.531 254.985 415.033 260.976 416.068C266.967 417.105 274.47 411.281 277.736 403.062C281.001 394.841 278.792 387.339 272.803 386.302C266.81 385.267 259.307 391.091 256.041 399.31Z" fill="white"/>
<path d="M260.545 412.054C257.664 419.306 259.614 425.924 264.898 426.837C270.182 427.752 276.8 422.614 279.682 415.363C282.563 408.112 280.613 401.493 275.329 400.58C270.045 399.667 263.425 404.803 260.545 412.054ZM245.431 416.206C253.496 416.501 260.235 411.237 260.481 404.452C260.729 397.666 254.39 391.928 246.325 391.634C238.26 391.341 231.522 396.605 231.274 403.389C231.027 410.172 237.366 415.912 245.431 416.206ZM305.129 432.973C307.945 438.762 314.337 441.454 319.405 438.989C324.474 436.523 326.299 429.83 323.483 424.043C320.666 418.253 314.275 415.561 309.206 418.028C304.137 420.493 302.312 427.184 305.129 432.973Z" fill="white"/>
<path d="M302.819 437.574C306.024 444.156 313.294 447.22 319.06 444.415C324.824 441.61 326.901 433.998 323.697 427.415C320.493 420.832 313.223 417.769 307.458 420.574C301.694 423.379 299.618 430.989 302.819 437.574Z" fill="white"/>
<path d="M304.42 426.618C303.582 424.17 302.399 421.837 300.774 419.859C299.936 418.893 299.021 418.002 297.986 417.262C296.934 416.554 295.778 416.004 294.556 415.714C292.11 415.06 289.442 415.767 287.453 417.325C285.434 418.887 284.053 421.173 283.137 423.582C283.842 421.1 285.146 418.699 287.193 417.001C289.209 415.302 292.076 414.531 294.68 415.19C295.976 415.514 297.182 416.109 298.269 416.86C299.33 417.648 300.286 418.565 301.096 419.599C302.695 421.683 303.794 424.105 304.42 426.618Z" fill="#E3E3E3"/>
<path d="M314.202 449.271C319.968 446.468 322.043 438.855 318.839 432.271C315.636 425.687 308.367 422.625 302.601 425.43L314.202 449.271Z" fill="white"/>
<path d="M314.202 449.271C317.114 447.754 319.099 444.86 319.773 441.738C320.476 438.606 320.009 435.262 318.597 432.39C317.208 429.507 314.866 427.074 311.966 425.696C309.093 424.3 305.593 424.077 302.601 425.43C304.041 424.659 305.688 424.28 307.334 424.268C308.984 424.27 310.628 424.65 312.14 425.319C315.177 426.665 317.61 429.192 319.082 432.154C320.502 435.14 320.991 438.613 320.175 441.834C319.769 443.437 319.054 444.965 318.037 446.264C317.012 447.553 315.697 448.613 314.202 449.271Z" fill="#E3E3E3"/>
<path d="M224.019 438.889C220.833 445.019 222.02 452.815 226.667 456.303C231.317 459.789 237.669 457.649 240.854 451.518C244.041 445.388 242.854 437.592 238.206 434.105C233.557 430.616 227.206 432.759 224.019 438.889ZM254.816 439.614C251.97 445.909 253.58 453.63 258.414 456.858C263.246 460.086 269.472 457.597 272.317 451.302C275.161 445.008 273.552 437.286 268.719 434.061C263.885 430.834 257.661 433.32 254.816 439.614Z" fill="white"/>
<path d="M194.258 448.809C202.891 450.969 210.188 447.668 210.559 441.436C210.929 435.208 204.231 428.403 195.598 426.245C186.967 424.086 179.669 427.388 179.298 433.617C178.928 439.85 185.625 446.651 194.258 448.809Z" fill="#C5E0E0"/>
<path d="M171.038 433.641C168.193 439.938 169.803 447.657 174.637 450.884C179.47 454.111 185.694 451.624 188.54 445.331C191.386 439.034 189.774 431.315 184.942 428.088C180.108 424.859 173.885 427.346 171.038 433.641Z" fill="#C5E0E0"/>
<path d="M185.101 437.393C190.888 444.152 198.749 445.689 202.66 440.824C206.57 435.96 205.049 426.537 199.262 419.777C193.474 413.018 185.613 411.483 181.703 416.348C177.792 421.212 179.315 430.636 185.101 437.393Z" fill="white"/>
<path d="M199.385 442.19C206.711 447.24 214.703 446.712 217.236 441.007C219.77 435.304 215.886 426.585 208.561 421.533C201.236 416.481 193.244 417.011 190.71 422.715C188.176 428.42 192.06 437.138 199.385 442.19ZM169.763 429.141C166.919 435.437 168.529 443.156 173.362 446.383C178.195 449.612 184.42 447.124 187.265 440.829C190.111 434.533 188.5 426.814 183.667 423.586C178.834 420.359 172.61 422.847 169.763 429.141Z" fill="white"/>
<path d="M205.967 424.154C209.561 422.796 211.511 419.142 210.322 415.995C209.132 412.849 205.254 411.397 201.659 412.755C198.063 414.113 196.113 417.767 197.302 420.915C198.491 424.061 202.371 425.512 205.967 424.154Z" fill="white"/>
<path d="M205.967 424.154C207.558 423.534 208.956 422.396 209.794 420.912C210.633 419.437 210.832 417.597 210.197 416.042C209.581 414.475 208.183 413.327 206.612 412.838C205.039 412.319 203.295 412.416 201.754 413.008C200.207 413.585 198.834 414.665 197.998 416.094C197.145 417.5 196.855 419.285 197.43 420.867C197.981 422.454 199.348 423.701 200.952 424.253C202.562 424.812 204.363 424.741 205.967 424.154ZM205.967 424.154C204.373 424.766 202.564 424.867 200.927 424.327C199.293 423.818 197.822 422.613 197.176 420.963C196.508 419.327 196.722 417.395 197.597 415.863C198.469 414.32 199.917 413.142 201.563 412.504C203.22 411.896 205.084 411.821 206.759 412.401C208.427 412.974 209.866 414.278 210.448 415.947C211.055 417.611 210.749 419.487 209.861 420.951C208.991 422.439 207.567 423.559 205.967 424.154Z" fill="#E3E3E3"/>
<path d="M199.686 442.372C205.781 441.153 209.859 435.836 208.791 430.499C207.725 425.159 201.919 421.817 195.823 423.036C189.727 424.255 185.65 429.569 186.717 434.909C187.783 440.249 193.59 443.587 199.686 442.372Z" fill="white"/>
<path d="M199.685 442.372C202.389 441.802 204.92 440.354 206.65 438.207C208.378 436.074 209.182 433.19 208.578 430.541C208.01 427.877 206.084 425.673 203.707 424.477C201.334 423.233 198.524 422.926 195.908 423.464C193.288 423.977 190.811 425.337 189.098 427.397C187.366 429.416 186.432 432.188 186.932 434.866C187.391 437.544 189.241 439.897 191.656 441.202C194.077 442.52 196.971 442.884 199.685 442.372ZM199.685 442.372C196.979 442.926 194.066 442.61 191.596 441.315C189.123 440.069 187.095 437.756 186.501 434.952C185.869 432.164 186.719 429.137 188.52 426.923C190.32 424.691 192.943 423.193 195.737 422.609C198.542 422.077 201.538 422.449 204.058 423.819C206.568 425.175 208.517 427.639 209.004 430.456C209.533 433.272 208.55 436.186 206.747 438.287C204.964 440.432 202.397 441.844 199.685 442.372Z" fill="#E3E3E3"/>
<path d="M188.659 434.848C188.831 430.248 187.028 425.832 183.667 423.585C178.834 420.358 172.61 422.847 169.763 429.14L188.659 434.848Z" fill="white"/>
<path d="M188.66 434.848C188.619 433.597 188.482 432.355 188.174 431.156C187.888 429.955 187.465 428.79 186.878 427.717C186.277 426.655 185.565 425.658 184.68 424.833C183.795 424.013 182.749 423.377 181.625 422.979C180.504 422.566 179.285 422.441 178.097 422.59C176.903 422.732 175.761 423.174 174.703 423.764C172.574 424.966 170.948 426.946 169.763 429.14C170.22 427.973 170.841 426.868 171.594 425.845C172.378 424.847 173.326 423.969 174.404 423.27C176.547 421.862 179.385 421.394 181.873 422.271C183.098 422.729 184.217 423.442 185.148 424.338C186.07 425.243 186.841 426.298 187.39 427.455C188.494 429.766 188.9 432.356 188.66 434.848Z" fill="#E3E3E3"/>
<path d="M268.141 449.379C275.067 445.994 278.279 438.333 275.314 432.265C272.351 426.199 264.33 424.023 257.404 427.409C250.478 430.794 247.267 438.454 250.231 444.522C253.197 450.587 261.215 452.764 268.141 449.379Z" fill="white"/>
<path d="M268.141 449.379C271.211 447.86 273.807 445.323 275.182 442.188C276.576 439.082 276.633 435.372 275.072 432.384C273.55 429.369 270.545 427.331 267.315 426.651C264.075 425.932 260.618 426.441 257.643 427.895C254.668 429.35 252.144 431.765 250.72 434.762C250.013 436.256 249.569 437.886 249.511 439.547C249.447 441.205 249.769 442.883 250.476 444.402C251.873 447.469 254.835 449.703 258.141 450.514C261.459 451.356 265.056 450.868 268.141 449.379ZM268.141 449.379C265.063 450.883 261.48 451.412 258.106 450.662C256.425 450.287 254.796 449.604 253.385 448.58C251.973 447.563 250.788 446.209 249.987 444.641C248.346 441.497 248.416 437.6 249.87 434.374C251.304 431.113 253.994 428.49 257.168 426.922C260.355 425.382 264.078 424.874 267.53 425.746C270.967 426.585 274.084 428.921 275.556 432.147C276.3 433.742 276.641 435.509 276.576 437.248C276.518 438.99 276.055 440.694 275.319 442.25C273.837 445.373 271.219 447.875 268.141 449.379Z" fill="#E3E3E3"/>
<path d="M235.959 436.89C235.429 443.777 239.577 450.483 245.22 451.871C250.863 453.258 255.867 448.796 256.397 441.908C256.926 435.021 252.779 428.313 247.134 426.927C241.492 425.54 236.487 430.001 235.959 436.89Z" fill="white"/>
<path d="M274.734 431.569C281.525 433.021 288.06 429.374 289.329 423.428C290.6 417.482 286.124 411.485 279.334 410.035C272.543 408.585 266.008 412.228 264.738 418.176C263.467 424.122 267.943 430.118 274.734 431.569Z" fill="white"/>
<path d="M274.734 431.569C277.756 432.189 280.996 431.832 283.727 430.399C286.451 428.986 288.575 426.389 289.146 423.39C289.762 420.393 288.772 417.248 286.856 414.943C284.963 412.595 282.198 411.019 279.256 410.401C276.318 409.766 273.151 410.073 270.463 411.443C267.775 412.765 265.586 415.228 264.923 418.215C264.218 421.186 265.096 424.423 267.004 426.826C268.911 429.249 271.721 430.899 274.734 431.569ZM274.734 431.569C271.714 430.934 268.872 429.317 266.918 426.894C265.943 425.691 265.175 424.302 264.752 422.796C264.324 421.294 264.245 419.682 264.554 418.136C265.149 415.017 267.36 412.325 270.168 410.872C272.984 409.396 276.312 409.031 279.412 409.669C282.502 410.355 285.39 412.046 287.357 414.544C289.324 417.019 290.243 420.378 289.512 423.468C289.161 425.005 288.431 426.443 287.427 427.639C286.427 428.842 285.158 429.795 283.777 430.495C281.004 431.909 277.749 432.224 274.734 431.569Z" fill="#E3E3E3"/>
<path d="M303.725 436.661C304.997 430.715 300.52 424.718 293.731 423.268C286.939 421.818 280.404 425.462 279.134 431.409L303.725 436.661Z" fill="white"/>
<path d="M303.726 436.661C304.242 433.59 303.216 430.454 301.278 428.155C299.348 425.832 296.602 424.242 293.652 423.634C290.711 422.986 287.554 423.313 284.844 424.647C282.136 425.953 279.919 428.396 279.134 431.409C279.372 429.876 280.041 428.412 280.984 427.157C281.946 425.911 283.191 424.888 284.579 424.134C287.372 422.622 290.711 422.276 293.808 422.901C296.89 423.597 299.797 425.275 301.728 427.797C302.686 429.052 303.406 430.494 303.774 432.024C304.122 433.555 304.134 435.164 303.726 436.661Z" fill="#E3E3E3"/>
<path d="M311.02 443.301C312.283 448.136 316.739 451.157 320.971 450.052C325.203 448.945 327.611 444.13 326.348 439.296C325.085 434.464 320.63 431.441 316.397 432.548C312.166 433.652 309.757 438.467 311.02 443.301Z" fill="white"/>
<path d="M251.353 453.252C254.399 455.595 258.531 455.333 260.582 452.664C262.635 449.999 261.83 445.936 258.784 443.592C255.737 441.25 251.603 441.513 249.552 444.179C247.5 446.846 248.307 450.909 251.353 453.252Z" fill="white"/>
<path d="M251.353 453.252C252.717 454.279 254.42 454.87 256.123 454.802C257.819 454.74 259.488 453.941 260.476 452.582C261.486 451.235 261.728 449.442 261.318 447.849C260.932 446.239 259.932 444.805 258.619 443.805C257.315 442.794 255.673 442.195 254.018 442.235C252.374 442.25 250.703 442.941 249.659 444.262C248.6 445.565 248.257 447.384 248.631 449.038C249.003 450.702 250.01 452.197 251.353 453.252ZM251.353 453.252C249.994 452.218 248.956 450.733 248.554 449.056C248.128 447.399 248.38 445.514 249.444 444.097C250.485 442.669 252.241 441.835 254.003 441.773C255.775 441.704 257.539 442.315 258.947 443.378C260.335 444.469 261.38 446.015 261.767 447.745C262.157 449.465 261.803 451.375 260.689 452.746C259.594 454.139 257.837 454.866 256.126 454.881C254.402 454.922 252.701 454.3 251.353 453.252Z" fill="#E3E3E3"/>
<path d="M252.588 443.113C258.222 440.357 260.836 434.124 258.425 429.189C256.015 424.254 249.494 422.484 243.861 425.238C238.227 427.991 235.614 434.225 238.023 439.159C240.434 444.096 246.954 445.864 252.588 443.113Z" fill="white"/>
<path d="M252.588 443.113C255.079 441.863 257.177 439.801 258.313 437.262C259.452 434.738 259.497 431.718 258.229 429.288C256.994 426.834 254.549 425.178 251.923 424.62C249.289 424.015 246.468 424.437 244.055 425.634C241.63 426.806 239.563 428.769 238.421 431.219C237.25 433.633 237.048 436.577 238.222 439.061C239.357 441.556 241.764 443.378 244.455 444.033C247.155 444.698 250.072 444.311 252.588 443.113ZM252.588 443.113C250.091 444.349 247.168 444.788 244.425 444.158C241.693 443.577 239.122 441.839 237.824 439.255C236.492 436.698 236.547 433.527 237.735 430.905C238.919 428.265 241.092 426.13 243.669 424.843C246.268 423.604 249.287 423.198 252.097 423.889C254.893 424.567 257.428 426.472 258.623 429.096C259.861 431.708 259.649 434.803 258.429 437.315C257.24 439.865 255.097 441.901 252.588 443.113Z" fill="#E3E3E3"/>
<path d="M292.263 448.751C293.34 452.442 296.832 454.668 300.061 453.725C303.292 452.783 305.037 449.028 303.96 445.337C302.884 441.647 299.392 439.422 296.162 440.365C292.931 441.307 291.186 445.062 292.263 448.751Z" fill="white"/>
<path d="M302.882 446.242C303.959 449.931 307.745 452.071 311.341 451.022C314.934 449.973 316.975 446.132 315.898 442.443C314.821 438.753 311.035 436.612 307.44 437.662C303.845 438.71 301.805 442.552 302.882 446.242Z" fill="white"/>
<path d="M174.099 445.323C174.127 443.188 174.574 441.002 175.495 438.965C178.34 432.672 184.565 430.183 189.398 433.412C191.423 434.764 192.878 436.904 193.678 439.397L174.099 445.323Z" fill="white"/>
<path d="M174.099 445.323C174.019 444.021 174.146 442.705 174.408 441.413C174.684 440.121 175.167 438.88 175.761 437.689C177 435.349 178.951 433.269 181.494 432.229C182.758 431.725 184.144 431.489 185.51 431.613C186.871 431.744 188.199 432.21 189.315 432.971C190.452 433.699 191.391 434.692 192.129 435.79C192.841 436.909 193.376 438.127 193.679 439.397C193.187 438.191 192.582 437.038 191.778 436.042C190.998 435.035 190.055 434.154 188.958 433.547C186.807 432.252 184.113 432.077 181.824 433.045C179.504 433.971 177.669 435.865 176.35 438.017C175.714 439.116 175.177 440.285 174.824 441.52C174.429 442.746 174.218 444.026 174.099 445.323Z" fill="#E3E3E3"/>
<path d="M229.907 440.082C227.893 448.573 221.152 454.245 214.85 452.749C208.55 451.256 205.075 443.159 207.09 434.668C209.104 426.178 215.845 420.507 222.146 422.001C228.447 423.495 231.922 431.591 229.907 440.082Z" fill="white"/>
<path d="M235.209 448.343L257.983 446.252C259.535 455.188 248.889 468.875 239.592 464.692C233.984 459.417 233.437 456.444 235.209 448.343Z" fill="white"/>
<path d="M268.41 392.288C273.947 393.552 276.877 399.49 275.863 406.391C275.944 406.439 276.023 406.488 276.101 406.538C277.053 405.636 278.073 404.857 279.154 404.232C286.036 400.269 292.917 403.895 295.216 412.33C295.957 411.986 296.743 411.726 297.568 411.561C303.06 410.461 308.565 413.902 311.216 419.583C312.161 419.388 313.131 419.352 314.096 419.448C313.463 419.288 312.82 419.182 312.176 419.147C310.159 411.957 303.853 407.271 297.568 408.529C296.743 408.695 295.957 408.955 295.216 409.299C292.917 400.864 286.036 397.236 279.154 401.202C278.384 401.644 277.646 402.17 276.941 402.76C278.973 395.485 276.649 389.245 271.226 388.309C266.879 387.556 261.743 390.422 257.999 395.185C261.226 392.682 264.978 391.507 268.41 392.288ZM177.534 418.293C177.713 418.267 177.893 418.24 178.074 418.22C179.751 410.946 185.828 405.965 192.167 406.927C192.5 406.977 192.826 407.048 193.147 407.127C194.263 397.779 199.884 390.647 206.749 390.559C210.965 390.507 214.778 393.121 217.409 397.3C218.965 394.648 221.354 392.68 224.321 391.94C228.127 390.99 232.042 392.264 235.05 395.016C237.663 392.802 241.267 391.414 245.263 391.371C249.432 391.327 253.209 392.758 255.897 395.087C255.422 395.692 254.974 396.325 254.558 396.995C252.04 395.337 248.858 394.361 245.405 394.399C241.411 394.442 237.807 395.831 235.193 398.044C232.185 395.291 228.269 394.017 224.464 394.967C221.497 395.708 219.108 397.677 217.554 400.329C214.922 396.149 211.108 393.534 206.892 393.589C200.028 393.676 194.405 400.808 193.29 410.155C192.967 410.076 192.643 410.004 192.31 409.955C186.344 409.05 180.612 413.409 178.56 419.99C178.223 419.892 177.88 419.823 177.534 419.765V418.293H177.534Z" fill="#D5F5F5"/>
<path d="M260.878 407.462C255.889 414.146 239.47 414.978 235.936 407.462L247.02 324.374L260.878 407.462Z" fill="white"/>
<path d="M252.597 419.641C252.67 418.151 252.39 416.66 251.711 415.27C249.302 410.334 242.78 408.565 237.148 411.319C231.513 414.072 228.9 420.306 231.309 425.241L252.597 419.641Z" fill="white"/>
<path d="M252.597 419.641C252.618 416.451 250.853 413.46 248.225 411.9C245.576 410.358 242.296 410.069 239.369 410.934C236.429 411.777 233.795 413.704 232.176 416.318C230.525 418.904 230.08 422.296 231.309 425.242C230.531 423.855 230.188 422.227 230.233 420.612C230.293 418.989 230.805 417.399 231.591 415.976C233.173 413.107 235.988 411.004 239.124 410.088C242.26 409.179 245.821 409.522 248.585 411.329C249.944 412.245 251.069 413.502 251.783 414.96C252.491 416.417 252.773 418.065 252.597 419.641Z" fill="#E3E3E3"/>
<path d="M247.134 324.832L259.709 401.175C259.904 404.108 258.894 406.476 257.443 408.291C257.158 406.52 250.534 363.089 247.591 339.087C246.302 328.577 247.134 324.832 247.134 324.832Z" fill="#D3F0F0"/>
<path d="M210.052 431.639C206.081 423.867 207.54 415.179 213.307 412.234C219.074 409.288 226.967 413.2 230.936 420.972L210.052 431.639Z" fill="white"/>
<path d="M210.052 431.639C208.294 428.477 207.322 424.795 207.619 421.107C207.756 419.269 208.272 417.442 209.185 415.812C210.094 414.185 211.457 412.778 213.136 411.9C214.83 411.053 216.77 410.775 218.621 410.992C220.476 411.208 222.26 411.859 223.829 412.826C226.992 414.748 229.405 417.694 230.936 420.972C230.025 419.405 228.974 417.927 227.725 416.635C226.497 415.33 225.093 414.19 223.539 413.325C221.985 412.472 220.298 411.841 218.548 411.671C216.807 411.49 215.024 411.775 213.477 412.568C211.927 413.355 210.651 414.634 209.777 416.15C208.89 417.668 208.41 419.405 208.191 421.164C207.981 422.93 208.082 424.736 208.419 426.496C208.734 428.265 209.316 429.983 210.052 431.639Z" fill="#E3E3E3"/>
<path d="M237.646 442.183C240.833 436.053 239.647 428.258 234.998 424.771C230.349 421.283 223.998 423.426 220.81 429.555C219.221 432.615 218.719 436.091 219.195 439.24L237.646 442.183Z" fill="white"/>
<path d="M237.646 442.183C238.451 440.435 238.968 438.568 239.131 436.672C239.314 434.782 239.189 432.856 238.659 431.045C238.129 429.247 237.306 427.505 236.009 426.162C235.394 425.463 234.63 424.92 233.842 424.449C233.031 424.011 232.154 423.716 231.25 423.564C230.342 423.445 229.415 423.444 228.509 423.623C227.614 423.828 226.72 424.108 225.915 424.581C224.264 425.455 222.935 426.849 221.849 428.376C220.771 429.923 220.011 431.696 219.573 433.545C219.104 435.391 219.001 437.327 219.195 439.24C218.48 435.456 219.24 431.358 221.368 428.057C222.425 426.411 223.842 424.948 225.584 423.984C226.438 423.47 227.397 423.152 228.367 422.92C229.35 422.714 230.365 422.698 231.364 422.823C232.357 423 233.315 423.336 234.192 423.825C235.044 424.344 235.859 424.944 236.51 425.699C237.869 427.158 238.75 428.997 239.215 430.898C240.163 434.714 239.532 438.829 237.646 442.183Z" fill="#E3E3E3"/>
<path d="M210.289 445.068C214.164 448.049 219.42 447.714 222.029 444.322C224.64 440.928 223.615 435.761 219.741 432.782C215.866 429.801 210.609 430.135 208 433.527C205.39 436.922 206.415 442.089 210.289 445.068Z" fill="white"/>
<path d="M210.288 445.068C212.023 446.375 214.19 447.126 216.357 447.04C218.514 446.961 220.637 445.945 221.894 444.217C223.178 442.503 223.486 440.222 222.965 438.196C222.475 436.148 221.202 434.324 219.531 433.054C217.872 431.767 215.785 431.003 213.68 431.054C211.588 431.072 209.463 431.952 208.136 433.633C206.789 435.291 206.352 437.603 206.827 439.708C207.299 441.824 208.58 443.726 210.288 445.068ZM210.288 445.068C208.56 443.753 207.24 441.864 206.73 439.731C206.188 437.622 206.51 435.225 207.862 433.423C209.186 431.605 211.419 430.545 213.661 430.466C215.915 430.378 218.158 431.157 219.949 432.51C221.715 433.896 223.044 435.863 223.536 438.064C224.032 440.251 223.581 442.68 222.165 444.425C220.771 446.195 218.536 447.121 216.36 447.139C214.167 447.192 212.003 446.401 210.288 445.068Z" fill="#E3E3E3"/>
<path d="M257.837 230.909C262.606 230.791 267.246 262.085 268.201 300.804C269.155 339.523 266.063 371.006 261.293 371.124C256.524 371.243 251.882 339.948 250.929 301.23C249.974 262.51 253.067 231.026 257.837 230.909Z" fill="#FFC417"/>
<path d="M234.902 234.954C239.672 234.838 244.312 266.13 245.267 304.851C246.222 343.57 243.129 375.053 238.359 375.171C233.589 375.289 228.949 343.995 227.994 305.277C227.039 266.557 230.132 235.073 234.902 234.954Z" fill="#FFAB4A"/>
<path d="M244.636 244.239C249.405 244.121 254.046 275.413 255.001 314.134C255.955 352.853 252.862 384.337 248.093 384.454C243.323 384.572 238.683 353.278 237.728 314.559C236.773 275.839 239.866 244.355 244.636 244.239Z" fill="#FFA23B"/>
<path d="M246.951 228.734C251.722 228.616 256.361 259.91 257.315 298.629C258.27 337.35 255.178 368.833 250.409 368.951C245.638 369.067 240.997 337.775 240.044 299.056C239.089 260.335 242.182 228.853 246.951 228.734Z" fill="#FFA14A"/>
<path d="M237.743 220.548C242.513 220.431 247.153 251.724 248.107 290.443C249.062 329.164 245.969 360.647 241.2 360.765C236.43 360.881 231.79 329.591 230.836 290.87C229.88 252.149 232.973 220.666 237.743 220.548Z" fill="#FFD957"/>
<path d="M254.822 203.304C259.592 203.186 264.231 234.48 265.186 273.201C266.14 311.918 263.048 343.403 258.277 343.52C253.509 343.639 248.869 312.345 247.914 273.626C246.959 234.905 250.053 203.422 254.822 203.304Z" fill="#FFCE3B"/>
<path d="M249.064 223.437C252.824 223.345 256.483 248.017 257.235 278.546C257.988 309.075 255.549 333.897 251.789 333.989C248.028 334.083 244.369 309.41 243.617 278.881C242.864 248.353 245.304 223.529 249.064 223.437Z" fill="#FFD64F"/>
<path d="M242.525 216.498C246.285 216.406 249.943 241.079 250.696 271.608C251.449 302.136 249.01 326.96 245.249 327.052C241.488 327.145 237.831 302.471 237.077 271.945C236.324 241.416 238.764 216.592 242.525 216.498Z" fill="#FFE07D"/>
<path d="M245.354 187.937C249.115 187.844 252.773 212.517 253.525 243.046C254.279 273.572 251.84 298.398 248.08 298.491C244.32 298.581 240.66 273.91 239.908 243.381C239.155 212.854 241.593 188.03 245.354 187.937Z" fill="#473A17"/>
<path d="M241.341 267.889C242.766 268.695 246.273 269.033 249.175 268.643C251.499 268.334 252.73 267.65 252.401 266.979C253.062 268.33 253.943 270.131 254.605 271.482C254.935 272.158 255.377 273.057 255.708 273.733C256.367 275.082 257.251 276.884 257.911 278.234C258.572 279.586 259.455 281.386 260.115 282.737C260.446 283.413 260.887 284.314 261.217 284.988C261.878 286.339 262.761 288.14 263.422 289.491C264.084 290.841 264.965 292.642 265.626 293.992C265.956 294.669 266.398 295.569 266.728 296.245C267.062 296.924 267.45 297.718 267.838 298.511C267.959 301.28 268.055 304.111 268.139 306.977C267.234 307.826 266.165 308.63 264.917 309.376C255.673 314.904 240.467 315.058 230.955 309.72C229.879 309.118 228.928 308.469 228.091 307.787C228.071 307.116 228.044 306.464 228.027 305.79C227.92 301.471 227.867 297.249 227.857 293.143C232.17 284.414 236.483 275.687 240.796 266.958C240.643 267.267 240.81 267.589 241.341 267.889Z" fill="#CCCCCC"/>
<path d="M271.564 291.8C266.654 266.295 261.748 240.794 256.839 215.287C257.141 216.852 256.275 218.482 254.231 219.704C250.605 221.871 244.639 221.932 240.909 219.839C238.744 218.623 237.806 216.953 238.107 215.341C233.343 240.872 228.581 266.404 223.817 291.935C223.05 296.047 225.439 300.308 230.954 303.402C240.467 308.739 255.672 308.584 264.917 303.058C270.126 299.944 272.332 295.79 271.564 291.8Z" fill="#48565E"/>
<path d="M291.316 171.112L286.753 168.461L287.016 261.503L291.578 264.154L291.316 171.112Z" fill="#C5C5C5"/>
<path d="M291.315 171.112L291.578 264.154L312.113 252.299L311.945 193.44C311.939 191.234 311.301 189.459 310.129 188.383L291.315 171.112Z" fill="#DC6418"/>
<path d="M208.103 171.112L212.666 168.461L212.401 261.503L207.839 264.154L208.103 171.112Z" fill="#C5C5C5"/>
<path d="M208.103 171.112L207.839 264.154L187.306 252.299L187.472 193.44C187.479 191.234 188.117 189.459 189.289 188.383L208.103 171.112Z" fill="#DC6418"/>
<path d="M297.225 263.458C297.865 261.083 298.199 258.669 298.205 256.192V256.175C298.205 256.179 298.205 256.186 298.205 256.192C298.205 256.08 298.208 255.971 298.208 255.861C298.209 256.21 298.189 256.559 298.166 256.906C298.163 256.978 298.159 257.048 298.156 257.119C296.854 269.812 283.537 277.03 272.408 280.417C252.601 286.554 219.591 284.058 206.53 266C204.631 263.009 203.547 259.734 203.306 256.138C203.26 258.987 203.719 261.936 204.663 264.853C204.665 264.857 204.665 264.862 204.667 264.866L204.682 264.908C204.877 265.504 205.093 266.095 205.318 266.682L205.447 267.043C205.496 267.156 205.549 267.275 205.602 267.393C206.025 268.417 206.518 269.447 207.092 270.483C207.108 270.513 207.125 270.547 207.141 270.578L207.17 270.628C207.524 271.255 207.905 271.885 208.321 272.514L208.375 272.604C208.419 272.664 208.465 272.728 208.51 272.791C209.195 273.805 209.963 274.819 210.824 275.821C210.97 276.001 211.112 276.177 211.246 276.341C211.8 276.925 212.419 277.586 212.975 278.161C215.202 280.331 217.657 282.276 220.538 283.966H220.539C232.948 291.656 249.982 293.467 264.704 290.211C264.816 290.19 264.934 290.164 265.038 290.142C265.982 289.915 266.997 289.655 267.943 289.417C268.873 289.157 270.101 288.755 271.025 288.471C271.694 288.223 273.134 287.692 273.815 287.438C274.777 287.048 276.033 286.47 276.981 286.048L279.597 284.691C280.634 284.084 281.773 283.408 282.789 282.735C282.797 282.732 282.806 282.726 282.814 282.721L282.817 282.718C287.467 279.629 291.478 275.565 294.236 270.734C294.542 270.218 294.769 269.791 295.042 269.215C295.398 268.492 295.729 267.754 296.03 266.999C296.077 266.892 296.123 266.785 296.174 266.67L296.304 266.292C296.531 265.687 296.743 265.076 296.941 264.46L296.895 264.59C296.897 264.582 296.9 264.572 296.903 264.562C296.919 264.518 296.934 264.474 296.949 264.431C297.048 264.1 297.136 263.784 297.225 263.458Z" fill="#828282"/>
<path d="M298.134 257.374C298.166 256.871 298.208 256.368 298.208 255.861L297.905 89.9561C296.864 109.806 269.092 117.234 252.642 117.538C235.11 118.286 204.28 111.255 203.004 90.2324L203.307 256.138C203.184 269.484 219.929 278.815 233.071 281.536C248.246 284.896 264.666 284.072 279.059 277.998C287.768 274.216 297.058 267.519 298.134 257.374Z" fill="#F1F1F1"/>
<path d="M297.665 92.7738C297.814 91.883 297.903 90.981 297.903 90.0771C297.903 90.1421 297.903 90.2113 297.903 90.2686C297.91 89.8695 297.901 89.4623 297.896 89.0631C297.896 89.0872 297.896 89.1151 297.896 89.1406C297.799 86.044 297.79 86.406 297.611 84.4811C297.607 84.4395 297.603 84.3933 297.6 84.353C297.457 83.1413 297.256 81.5653 297.025 80.3795L297.038 80.4625C296.834 79.317 296.583 78.1966 296.314 77.0778C295.683 74.5683 294.945 72.272 293.996 69.9228C293.997 69.9266 293.999 69.9308 294.001 69.9346C292.311 65.8178 290.573 62.5651 287.67 58.5133C286.949 57.4931 286.12 56.5033 285.251 55.4453C292.827 64.339 288.727 74.2875 279.743 80.117C271.214 85.6995 260.816 87.8088 250.724 87.9296C241.602 87.9613 232.307 86.3141 224.163 82.0841C213.693 76.782 206.819 66.0151 215.469 55.6353C215.409 55.7083 215.341 55.7908 215.275 55.8705C215.289 55.8536 215.301 55.8368 215.315 55.82C214.924 56.2965 214.54 56.7758 214.169 57.2446C213.797 57.7378 213.423 58.2368 213.067 58.7186C212.691 59.2463 212.278 59.8508 211.919 60.3791C206.344 68.8243 203.381 78.3378 203.034 88.3131C203.033 88.354 203.031 88.3991 203.029 88.4385C203.021 88.9765 203.011 89.6941 203.005 90.2321C202.816 100.226 213.055 108.92 223.978 112.959C223.978 112.959 223.978 112.958 223.978 112.958C224.486 113.154 224.999 113.34 225.51 113.529C226.882 114.013 228.27 114.455 229.672 114.85V114.849C231.32 115.308 232.987 115.706 234.664 116.048C234.664 116.048 234.664 116.048 234.664 116.047C235.116 116.134 235.57 116.224 236.023 116.309C236.024 116.309 236.024 116.309 236.024 116.309C237.129 116.506 238.239 116.686 239.351 116.84C239.35 116.84 239.348 116.838 239.347 116.836C240.872 117.051 242.405 117.205 243.939 117.332C243.938 117.332 243.938 117.331 243.937 117.33C245.48 117.451 247.027 117.522 248.574 117.561C248.574 117.561 248.574 117.561 248.573 117.561C250.182 117.591 251.792 117.578 253.4 117.521C253.399 117.521 253.399 117.521 253.399 117.521C255.142 117.449 256.883 117.335 258.616 117.157C258.616 117.157 258.615 117.156 258.614 117.156C260.615 116.947 262.607 116.667 264.586 116.311C264.583 116.311 264.578 116.31 264.573 116.309C267.43 115.792 270.254 115.104 273.021 114.237C273.007 114.238 272.994 114.239 272.979 114.241C277.547 112.791 281.692 110.987 285.563 108.507C285.552 108.518 285.538 108.531 285.527 108.542C287.477 107.277 289.363 105.877 291.036 104.273C291.035 104.274 291.033 104.275 291.033 104.276C292.05 103.296 292.997 102.26 293.849 101.14C293.847 101.145 293.844 101.152 293.841 101.158C294.521 100.258 295.148 99.3173 295.686 98.3271C295.686 98.3298 295.685 98.3333 295.683 98.336C296.151 97.4668 296.564 96.5683 296.901 95.6411C296.9 95.6415 296.9 95.6423 296.9 95.643C297.211 94.7666 297.46 93.87 297.629 92.9558C297.628 92.9635 297.627 92.9715 297.627 92.9783C297.638 92.91 297.654 92.842 297.665 92.7738Z" fill="#DFDFE0"/>
<path d="M266.904 36.1318C266.899 35.9976 266.898 35.8638 266.888 35.7296L266.889 35.73C266.87 35.5258 266.852 35.3205 266.808 35.1193C266.81 35.122 266.811 35.125 266.814 35.1276C266.773 34.9253 266.728 34.7243 266.669 34.5258C266.67 34.527 266.671 34.5285 266.671 34.5296C266.61 34.3255 266.541 34.1228 266.46 33.926C266.461 33.9275 266.463 33.9298 266.463 33.931C266.377 33.726 266.285 33.523 266.18 33.3265C266.181 33.3288 266.183 33.3315 266.185 33.3333C266.074 33.1271 265.956 32.9261 265.829 32.7303H265.83C265.673 32.494 265.508 32.2661 265.326 32.0478C265.343 32.0696 265.366 32.0953 265.384 32.1158C265.224 31.9116 265.062 31.7376 264.879 31.535C263.763 30.203 261.739 28.5901 260.395 27.8043C260.475 27.8521 260.56 27.9048 260.631 27.9476C260.11 27.6226 259.426 27.2505 259.042 27.0571C259.031 27.0513 259.017 27.0445 259.006 27.0383C258.074 26.5921 258.162 26.6241 256.95 26.1581L256.994 26.1726L256.914 26.1436L256.84 26.1188C256.562 26.0186 256.271 25.9208 255.991 25.8381L255.982 25.8351C255.657 25.738 255.319 25.652 254.978 25.5601L254.854 25.5326C254.639 25.4803 254.403 25.4286 254.152 25.3781L254.074 25.3606C253.544 25.2596 253.003 25.171 252.342 25.1045L252.272 25.0961C252.009 25.0693 251.658 25.0483 251.394 25.0281L250.719 25.0066C250.733 25.0066 250.746 25.0055 250.76 25.0055C250.489 24.9966 250.206 24.9986 249.653 25.0105C249.089 25.0365 248.487 25.0728 247.907 25.149L247.915 25.1481C247.3 25.2161 246.63 25.35 246.032 25.4758C245.259 25.674 245.181 25.6678 244.173 25.9958C244.177 25.9935 244.183 25.9916 244.188 25.9893L244.031 26.0413L243.964 26.0658C243.305 26.2821 242.435 26.658 241.888 26.9226C241.86 26.9345 241.831 26.9483 241.805 26.9605L241.74 26.9945C240.091 27.8035 238.766 28.7231 237.446 29.864C237.416 29.8911 237.391 29.9133 237.363 29.9396C237.152 30.1231 236.981 30.28 236.796 30.4691C236.566 30.6905 236.372 30.8851 236.201 31.063C236.188 31.0775 236.171 31.0936 236.157 31.1073C236.138 31.128 236.117 31.1525 236.097 31.1743C233.986 33.2516 232.938 36.082 234.347 38.8651C234.347 38.8631 234.347 38.8616 234.348 38.8605C234.595 39.3621 234.91 39.8271 235.255 40.2683C235.255 40.2683 235.255 40.2668 235.255 40.266C235.547 40.6185 235.862 40.9523 236.194 41.2696C236.194 41.2661 236.194 41.2623 236.194 41.2581C236.482 41.545 236.808 41.7881 237.126 42.0463C237.125 42.0448 237.125 42.0425 237.124 42.041C237.425 42.267 237.741 42.4723 238.055 42.6861C238.055 42.6823 238.054 42.6788 238.053 42.6755C238.352 42.879 238.668 43.0571 238.99 43.2311V43.2303C239.295 43.3948 239.606 43.5481 239.919 43.6948V43.6945C240.224 43.8348 240.533 43.969 240.845 44.0943C241.146 44.2133 241.45 44.326 241.755 44.4343C241.755 44.4335 241.755 44.4331 241.755 44.4331C242.057 44.5383 242.361 44.634 242.666 44.7268V44.726C242.807 44.7678 242.947 44.8086 243.087 44.8471L243.088 44.8475C243.251 44.8926 243.415 44.935 243.578 44.9783V44.978C243.863 45.0506 244.15 45.116 244.439 45.1803V45.18C244.715 45.24 244.994 45.2943 245.274 45.3466V45.3463C245.528 45.3938 245.784 45.4331 246.041 45.4748V45.4745C246.279 45.5096 246.517 45.5415 246.756 45.5731V45.5728C246.877 45.587 246.997 45.6003 247.117 45.6156C247.207 45.624 247.296 45.6328 247.385 45.644V45.6436C247.595 45.664 247.806 45.682 248.016 45.7006C248.185 45.711 248.352 45.7243 248.52 45.7355C248.686 45.744 248.853 45.7523 249.02 45.7611C249.187 45.7673 249.355 45.7718 249.521 45.7788V45.7776C249.664 45.7818 249.807 45.7823 249.949 45.7856C249.949 45.7856 249.949 45.7856 249.948 45.7856C250.088 45.786 250.227 45.786 250.367 45.7875C250.367 45.7875 250.367 45.7868 250.367 45.786C250.506 45.7845 250.646 45.7845 250.786 45.7825L250.786 45.7821C250.924 45.7775 251.062 45.7753 251.202 45.7721C251.201 45.7713 251.201 45.771 251.201 45.771C251.334 45.7656 251.469 45.7606 251.603 45.7558C251.602 45.755 251.602 45.755 251.602 45.7543C251.736 45.7475 251.871 45.7416 252.004 45.7345C252.004 45.7333 252.003 45.733 252.002 45.7321C252.137 45.723 252.271 45.7161 252.405 45.7065C252.404 45.7061 252.404 45.7056 252.403 45.705C252.547 45.6916 252.69 45.6825 252.833 45.6713C252.833 45.6713 252.833 45.6701 252.832 45.6701C252.991 45.6545 253.151 45.6391 253.31 45.6235L253.309 45.6226C253.468 45.6016 253.627 45.5848 253.785 45.5683C253.783 45.5668 253.78 45.5656 253.777 45.5641C253.961 45.542 254.145 45.5186 254.328 45.4941C254.328 45.4941 254.323 45.493 254.319 45.4926C254.623 45.4441 254.925 45.3966 255.228 45.3473C255.218 45.3461 255.204 45.3443 255.194 45.3428C255.915 45.2128 256.624 45.0548 257.316 44.8666C257.31 44.8713 257.304 44.877 257.297 44.882C257.551 44.8066 257.803 44.7313 258.055 44.6541C258.051 44.6583 258.044 44.6633 258.04 44.6671C258.266 44.5923 258.492 44.5188 258.715 44.4423C258.713 44.4446 258.711 44.4473 258.71 44.4498C258.886 44.384 259.065 44.3255 259.239 44.2571C259.237 44.2583 259.237 44.2601 259.236 44.2618C259.408 44.1903 259.585 44.1306 259.756 44.0565C259.755 44.0576 259.754 44.0603 259.752 44.0615C259.929 43.9843 260.106 43.9111 260.284 43.8375V43.8378C260.46 43.7571 260.635 43.6765 260.812 43.5953V43.5961C261.002 43.5025 261.194 43.4103 261.378 43.3081C261.377 43.3105 261.377 43.3128 261.377 43.315C261.604 43.1971 261.829 43.0745 262.043 42.9386C262.043 42.9416 262.041 42.9463 262.04 42.9493C262.289 42.7948 262.535 42.6411 262.781 42.489C262.781 42.4898 262.781 42.4901 262.781 42.4901C263.061 42.292 263.343 42.0956 263.616 41.893L263.616 41.8938C263.911 41.6463 264.212 41.4055 264.49 41.1413C264.49 41.1421 264.49 41.1428 264.49 41.1428C264.743 40.8831 265.007 40.632 265.231 40.3463C265.232 40.3493 265.232 40.352 265.232 40.3551C265.43 40.1105 265.621 39.8611 265.796 39.5988C265.796 39.6 265.796 39.6015 265.796 39.6026C265.944 39.3743 266.083 39.1411 266.208 38.9006C266.208 38.9006 266.209 38.9018 266.209 38.9025C266.314 38.6815 266.423 38.4613 266.507 38.2303C266.507 38.2318 266.507 38.2331 266.508 38.2341C266.584 38.02 266.658 37.8048 266.716 37.5861C266.764 37.3746 266.816 37.1643 266.844 36.9503C266.844 36.951 266.844 36.9521 266.845 36.9533C266.873 36.7486 266.887 36.5433 266.9 36.3373L266.901 36.3385C266.902 36.2695 266.903 36.2006 266.904 36.1318Z" fill="#E6E6E6"/>
<path d="M250.784 25.0044C250.775 25.0044 250.769 25.0052 250.759 25.0056C250.837 25.0071 250.915 25.0089 250.981 25.0101C250.921 25.0086 250.844 25.0062 250.784 25.0044ZM244.203 25.9836C244.197 25.9854 244.193 25.9874 244.188 25.9892L244.423 25.9117L244.203 25.9836Z" fill="#C9C9C9"/>
<path d="M289.222 65.4617C289.344 60.7087 286.589 56.74 283.491 53.378C277.451 46.2818 271.235 38.9822 265.202 31.896C268.139 35.2347 266.977 39.4005 263.607 41.9C256.618 46.9697 245.063 47.0718 237.797 42.5087C233.973 40.1477 232.155 35.6828 235.379 31.9773C228.352 40.4913 220.986 48.7488 214.146 57.4053C205.442 70.9362 220.141 82.0228 232.189 85.3545C244.704 89.0538 258.483 88.8488 270.818 84.5397C279.219 81.489 288.939 75.359 289.222 65.4617Z" fill="#F2F2F2"/>
<path d="M263.31 41.5188C263.31 45.5175 260.07 48.7591 256.072 48.7591C246.468 48.3776 246.471 34.6593 256.072 34.2788C260.07 34.279 263.31 37.5206 263.31 41.5188Z" fill="#BABABA"/>
<path d="M202.244 242.574C202.258 242.399 202.271 242.227 202.294 242.052C202.342 241.69 202.408 241.323 202.483 240.951C202.509 240.829 202.537 240.705 202.566 240.581C202.609 240.394 202.654 240.208 202.703 240.021C202.742 239.873 202.782 239.729 202.826 239.584C202.868 239.438 202.912 239.293 202.957 239.148C203.011 238.984 203.066 238.82 203.122 238.658C203.165 238.534 203.209 238.412 203.255 238.29C203.322 238.108 203.393 237.927 203.467 237.748C203.509 237.644 203.551 237.539 203.594 237.436C203.711 237.162 203.832 236.888 203.962 236.618L222.62 197.714L218.058 195.062L199.402 233.967C199.289 234.201 199.182 234.435 199.08 234.671C199.064 234.709 199.05 234.749 199.033 234.787C198.989 234.889 198.949 234.992 198.907 235.096C198.857 235.215 198.807 235.335 198.761 235.452C198.737 235.513 198.717 235.575 198.694 235.637C198.648 235.761 198.605 235.884 198.561 236.006C198.53 236.096 198.495 236.186 198.464 236.277C198.44 236.35 198.42 236.424 198.398 236.497C198.35 236.642 198.307 236.786 198.264 236.933C198.241 237.011 198.213 237.089 198.192 237.168C198.174 237.234 198.161 237.301 198.142 237.367C198.093 237.557 198.048 237.743 198.005 237.928C197.986 238.011 197.962 238.094 197.945 238.173C197.936 238.216 197.931 238.257 197.924 238.302C197.847 238.67 197.781 239.039 197.733 239.4C197.733 239.401 197.733 239.401 197.733 239.403C197.711 239.576 197.698 239.744 197.683 239.914C197.672 240.03 197.656 240.149 197.648 240.261C197.63 240.545 197.621 240.825 197.622 241.102L197.789 299.959L202.35 302.61L202.182 243.751C202.182 243.477 202.191 243.197 202.21 242.914C202.216 242.802 202.232 242.685 202.244 242.574Z" fill="#FFA14A"/>
<path d="M222.62 197.714L222.883 290.755L202.349 302.61L202.182 243.751C202.176 241.548 202.802 239.039 203.962 236.618L222.62 197.714Z" fill="#E76E23"/>
<path d="M297.175 242.574C297.159 242.399 297.146 242.227 297.123 242.052C297.077 241.69 297.01 241.323 296.934 240.951C296.909 240.829 296.88 240.705 296.853 240.581C296.809 240.394 296.764 240.208 296.714 240.021C296.675 239.873 296.636 239.729 296.593 239.584C296.55 239.438 296.506 239.293 296.46 239.148C296.407 238.984 296.353 238.82 296.294 238.658C296.252 238.534 296.208 238.412 296.164 238.29C296.096 238.108 296.025 237.927 295.95 237.748C295.908 237.644 295.868 237.539 295.823 237.436C295.707 237.162 295.586 236.888 295.455 236.618L276.799 197.714L281.36 195.062L300.016 233.967C300.128 234.201 300.237 234.435 300.338 234.671C300.354 234.709 300.368 234.749 300.385 234.787C300.43 234.889 300.47 234.992 300.512 235.096C300.56 235.215 300.612 235.335 300.657 235.452C300.681 235.513 300.702 235.575 300.724 235.637C300.77 235.761 300.813 235.884 300.856 236.006C300.888 236.096 300.923 236.186 300.953 236.277C300.979 236.35 300.998 236.424 301.021 236.497C301.067 236.642 301.112 236.786 301.154 236.933C301.177 237.011 301.204 237.089 301.226 237.168C301.245 237.234 301.257 237.301 301.275 237.367C301.326 237.557 301.37 237.743 301.413 237.928C301.433 238.011 301.456 238.094 301.474 238.173C301.482 238.216 301.486 238.257 301.496 238.302C301.571 238.67 301.638 239.039 301.684 239.4C301.684 239.401 301.685 239.401 301.685 239.403C301.707 239.576 301.72 239.744 301.736 239.914C301.746 240.03 301.762 240.149 301.769 240.261C301.788 240.545 301.798 240.825 301.797 241.102L301.63 299.959L297.069 302.61L297.235 243.751C297.236 243.477 297.227 243.197 297.208 242.914C297.202 242.802 297.185 242.685 297.175 242.574Z" fill="#FFA14A"/>
<path d="M276.799 197.714L276.535 290.755L297.069 302.61L297.235 243.751C297.242 241.548 296.616 239.039 295.455 236.618L276.799 197.714Z" fill="#E76E23"/>
<path d="M288.902 152.062C283.721 152.062 280.448 148.478 280 143.987C279.255 136.552 284.24 122.082 289.039 116.779C290.689 114.956 292.525 114.032 294.494 114.032C295.737 114.032 296.306 114.327 297.333 115.057C300.484 117.296 301.026 120.768 300.873 127.078C300.517 141.826 297.459 145.392 296.152 147.423L296.011 147.644L295.846 147.848C293.077 151.256 290.83 152.062 288.902 152.062Z" fill="#8F8F8F"/>
<path d="M290.485 151.666C286.469 151.666 283.916 147.812 283.554 144.185C282.863 137.289 287.649 122.223 292.091 117.315C293.349 115.926 294.691 115.22 296.078 115.22C296.909 115.22 297.711 115.479 298.402 115.97C300.487 117.453 301.272 120.799 301.109 127.517C300.766 141.708 297.919 146.136 296.704 148.027L296.619 148.156L296.522 148.275C294.246 151.078 291.983 151.666 290.485 151.666Z" fill="#636363"/>
<path d="M299.13 127.45C298.805 140.863 296.252 144.833 295.163 146.528C293.015 149.173 289.877 149.691 288.151 148.697C286.792 147.915 287.281 145.684 287.102 143.909C286.474 137.624 289.893 122.323 293.745 118.428C294.634 117.527 296.881 117.728 297.587 118.23C299.323 119.463 299.178 125.475 299.13 127.45Z" fill="#919191"/>
<path d="M297.15 127.451C296.826 140.863 294.273 144.833 293.183 146.528C289.172 151.466 285.505 147.732 285.122 143.909C284.349 136.171 291.845 115.555 295.607 118.23C297.343 119.463 297.199 125.475 297.15 127.451Z" fill="#EEEEEE"/>
<mask id="mask0_916_11956" style="mask-type:luminance" maskUnits="userSpaceOnUse" x="281" y="120" width="21" height="29">
<path d="M290.741 126.354C299.747 136.298 300.633 140.934 301.01 142.914C301.507 149.256 296.276 149.077 293.365 146.57C287.472 141.495 278.7 121.389 283.27 120.735C285.378 120.432 289.416 124.889 290.741 126.354Z" fill="white"/>
</mask>
<g mask="url(#mask0_916_11956)">
<path d="M301.043 121.459L278.673 142.727L284.072 148.405L306.442 127.137L301.043 121.459Z" fill="#6E6E6E"/>
</g>
<path d="M211.903 151.682C217.084 151.682 220.356 148.097 220.805 143.606C221.549 136.171 216.564 121.701 211.766 116.398C210.117 114.575 208.281 113.651 206.31 113.651C205.067 113.651 204.498 113.945 203.471 114.677C200.322 116.915 199.778 120.388 199.931 126.697C200.288 141.445 203.346 145.012 204.652 147.043L204.794 147.264L204.96 147.467C207.728 150.875 209.975 151.682 211.903 151.682Z" fill="#8F8F8F"/>
<path d="M210.32 151.286C214.335 151.286 216.889 147.431 217.252 143.804C217.942 136.909 213.155 121.841 208.714 116.935C207.457 115.545 206.115 114.839 204.727 114.839C203.897 114.839 203.093 115.099 202.403 115.59C200.317 117.072 199.533 120.418 199.695 127.136C200.039 141.328 202.886 145.756 204.102 147.646L204.185 147.776L204.282 147.895C206.558 150.697 208.821 151.286 210.32 151.286Z" fill="#636363"/>
<path d="M201.674 127.069C201.999 140.482 204.553 144.452 205.642 146.147C207.789 148.792 210.928 149.31 212.653 148.316C214.013 147.535 213.523 145.303 213.702 143.529C214.33 137.242 210.911 121.942 207.06 118.047C206.17 117.146 203.923 117.347 203.217 117.849C201.481 119.082 201.627 125.094 201.674 127.069Z" fill="#919191"/>
<path d="M203.654 127.069C203.979 140.482 206.531 144.452 207.622 146.147C211.632 151.086 215.298 147.351 215.68 143.529C216.456 135.79 208.96 115.175 205.195 117.848C203.461 119.081 203.606 125.094 203.654 127.069Z" fill="#EEEEEE"/>
<mask id="mask1_916_11956" style="mask-type:luminance" maskUnits="userSpaceOnUse" x="197" y="121" width="20" height="28">
<path d="M206.445 143.126C215.451 133.182 216.337 128.546 216.714 126.566C217.211 120.223 211.981 120.404 209.07 122.911C203.176 127.985 194.404 148.09 198.975 148.747C201.081 149.048 205.119 144.591 206.445 143.126Z" fill="white"/>
</mask>
<g mask="url(#mask1_916_11956)">
<path d="M194.376 126.753L216.748 148.021L222.145 142.344L199.774 121.075L194.376 126.753Z" fill="#6E6E6E"/>
</g>
<path d="M263.761 139.021C259.952 135.179 254.573 132.974 249.005 132.974C244.208 132.974 239.815 134.599 236.304 137.677C231.194 142.153 229.323 148.831 231.423 155.103C233.791 162.18 240.611 166.972 249.222 167.608L249.417 167.622L249.613 167.619C262.027 167.306 267.923 158.447 268.724 152.932C268.797 152.432 268.844 151.814 268.849 151.319C268.887 146.736 267.08 142.368 263.761 139.021ZM264.805 152.366C264.392 155.207 260.698 163.379 249.513 163.659C234.841 162.575 230.236 148.258 238.914 140.654C248.486 132.269 264.993 139.025 264.889 151.286C264.886 151.611 264.852 152.044 264.805 152.366Z" fill="#6E6E6E"/>
<path d="M249.222 165.232C240.611 164.596 233.791 159.805 231.423 152.729C229.323 146.455 231.194 139.777 236.304 135.301C239.815 132.224 244.208 130.598 249.005 130.598C254.573 130.598 259.952 132.803 263.761 136.645C267.08 139.992 268.887 144.36 268.848 148.944C268.844 149.439 268.796 150.056 268.724 150.557C267.923 156.071 262.026 164.932 249.613 165.242L249.417 165.247L249.222 165.232Z" fill="#8F8F8F"/>
<path d="M249.222 167.608C240.611 166.972 233.791 162.18 231.423 155.103C229.323 148.831 231.194 142.153 236.304 137.677C239.815 134.599 244.208 132.974 249.005 132.974C254.573 132.974 259.952 135.179 263.761 139.021C267.08 142.368 268.887 146.736 268.848 151.319C268.844 151.814 268.796 152.432 268.724 152.932C267.923 158.448 262.026 167.306 249.613 167.619L249.417 167.622L249.222 167.608Z" fill="#636363"/>
<path d="M264.805 152.366C264.392 155.207 260.698 163.379 249.513 163.659C234.84 162.575 230.236 148.258 238.914 140.654C248.486 132.269 264.993 139.025 264.889 151.286C264.886 151.611 264.852 152.044 264.805 152.366Z" fill="#919191"/>
<path d="M249.513 161.68C260.698 161.399 264.391 153.227 264.804 150.386C264.819 150.29 264.831 150.183 264.842 150.073C263.893 138.589 248.165 132.549 238.913 140.654C236.239 142.997 234.831 145.978 234.586 149.012C235.107 155.157 240.344 161.002 249.513 161.68Z" fill="#EEEEEE"/>
<mask id="mask2_916_11956" style="mask-type:luminance" maskUnits="userSpaceOnUse" x="234" y="136" width="38" height="37">
<path d="M270.903 151.874C269.574 146.629 266.062 141.996 261.267 139.167C257.135 136.729 252.526 135.897 247.939 136.763C241.262 138.022 236.258 142.823 234.879 149.292C233.322 156.59 236.761 164.182 243.854 169.106L244.015 169.217L244.185 169.314C255.035 175.353 264.616 170.72 268.108 166.376C268.425 165.983 268.78 165.475 269.035 165.051C271.397 161.123 272.061 156.443 270.903 151.874ZM265.02 163.897C263.221 166.134 255.887 171.296 246.111 165.853C234.026 157.464 237.335 142.793 248.673 140.654C261.178 138.296 271.962 152.503 265.641 163.01C265.474 163.289 265.224 163.644 265.02 163.897Z" fill="white"/>
</mask>
<g mask="url(#mask2_916_11956)">
<path d="M266.296 165.925L226.475 142.429L221.311 151.181L261.132 174.677L266.296 165.925Z" fill="#1F1F1F"/>
</g>
<mask id="mask3_916_11956" style="mask-type:luminance" maskUnits="userSpaceOnUse" x="230" y="131" width="38" height="37">
<path d="M267.069 146.831C265.74 141.585 262.228 136.953 257.432 134.124C253.3 131.687 248.691 130.855 244.104 131.721C237.428 132.981 232.423 137.782 231.045 144.251C229.489 151.549 232.928 159.141 240.022 164.065L240.183 164.176L240.353 164.273C251.204 170.311 260.784 165.677 264.276 161.333C264.592 160.939 264.947 160.431 265.203 160.007C267.564 156.079 268.228 151.399 267.069 146.831ZM261.188 158.854C259.389 161.091 252.055 166.253 242.279 160.812C230.193 152.424 233.501 137.752 244.838 135.612C257.343 133.253 268.128 147.459 261.809 157.967C261.642 158.245 261.392 158.601 261.188 158.854Z" fill="white"/>
</mask>
<g mask="url(#mask3_916_11956)">
<path d="M272.009 159.023L232.185 135.53L230.203 138.889L270.027 162.382L272.009 159.023Z" fill="#6E6E6E"/>
</g>
<mask id="mask4_916_11956" style="mask-type:luminance" maskUnits="userSpaceOnUse" x="234" y="136" width="31" height="26">
<path d="M249.513 161.68C260.698 161.399 264.391 153.228 264.804 150.387C264.819 150.29 264.831 150.184 264.842 150.073C263.893 138.59 248.165 132.55 238.913 140.655C236.239 142.997 234.831 145.979 234.586 149.012C235.107 155.157 240.344 161.003 249.513 161.68Z" fill="white"/>
</mask>
<g mask="url(#mask4_916_11956)">
<path d="M261.637 173.041L221.818 149.547L226.665 141.328L266.485 164.821L261.637 173.041Z" fill="#545454"/>
</g>
<mask id="mask5_916_11956" style="mask-type:luminance" maskUnits="userSpaceOnUse" x="238" y="135" width="27" height="29">
<path d="M262.26 156.187C267.701 146.411 262.539 139.078 260.302 137.279C260.226 137.217 260.141 137.153 260.051 137.087C249.678 132.07 236.485 142.548 238.765 154.634C239.424 158.128 241.276 160.855 243.764 162.608C249.322 165.281 257.017 163.74 262.26 156.187Z" fill="white"/>
</mask>
<g mask="url(#mask5_916_11956)">
<path d="M232.164 134.337L230.183 137.696L270.007 161.189L271.988 157.829L232.164 134.337Z" fill="#6E6E6E"/>
</g>
</svg>
