<svg width="473" height="350" viewBox="0 0 473 350" fill="none" xmlns="http://www.w3.org/2000/svg">
<path d="M365.409 202.116C419.219 202.116 462.84 158.476 462.84 104.644C462.84 50.8124 419.219 7.17297 365.409 7.17297C311.599 7.17297 267.978 50.8124 267.978 104.644C267.978 158.476 311.599 202.116 365.409 202.116Z" fill="#F2F2F2"/>
<path d="M463.34 187.929V173.087C463.34 171.686 463.064 170.299 462.528 169.004C461.992 167.709 461.206 166.533 460.216 165.542C459.225 164.551 458.049 163.765 456.755 163.229C455.461 162.693 454.074 162.417 452.673 162.417H423.179C420.35 162.417 417.637 161.292 415.637 159.291C413.637 157.29 412.513 154.576 412.513 151.746V136.904C412.513 131.011 425.444 126.234 431.335 126.234H432.523C435.352 126.234 438.065 125.109 440.066 123.108C442.066 121.107 443.19 118.393 443.19 115.563V100.721C443.19 97.8913 442.066 95.1771 440.066 93.176C438.065 91.1748 435.352 90.0505 432.523 90.0505H72.1405C70.7397 90.0505 69.3527 90.3265 68.0586 90.8628C66.7644 91.3991 65.5886 92.1851 64.5981 93.176C63.6076 94.1669 62.8219 95.3432 62.2859 96.6378C61.7498 97.9325 61.4739 99.3201 61.4739 100.721V115.563C61.4739 116.964 61.7498 118.352 62.2859 119.646C62.8219 120.941 63.6076 122.117 64.5981 123.108C65.5886 124.099 66.7644 124.885 68.0586 125.421C69.3527 125.958 70.7397 126.234 72.1405 126.234C73.5412 126.234 74.9282 126.51 76.2224 127.046C77.5165 127.582 78.6924 128.368 79.6828 129.359C80.6733 130.35 81.459 131.526 81.995 132.821C82.5311 134.116 82.807 135.503 82.807 136.904V151.746C82.807 154.576 81.6832 157.29 79.6828 159.291C77.6825 161.292 74.9694 162.417 72.1405 162.417H30.8921C28.0632 162.417 25.3501 163.541 23.3497 165.542C21.3494 167.543 20.2256 170.257 20.2256 173.087V187.929C20.2256 190.759 21.3494 193.473 23.3497 195.474C25.3501 197.475 28.0632 198.6 30.8921 198.6H47.0773C48.4781 198.6 49.8651 198.876 51.1592 199.412C52.4534 199.948 53.6292 200.734 54.6197 201.725C55.6102 202.716 56.3959 203.892 56.9319 205.187C57.468 206.482 57.7439 207.869 57.7439 209.271V224.112C57.7439 226.942 56.6201 229.656 54.6197 231.657C52.6193 233.658 49.9063 234.783 47.0773 234.783H47.0382C44.2093 234.783 41.4962 235.907 39.4958 237.908C37.4955 239.909 36.3717 242.624 36.3717 245.454V260.295C36.3717 263.125 37.4955 265.839 39.4958 267.84C41.4962 269.841 44.2093 270.966 47.0382 270.966H49.3799C52.2088 270.966 54.9219 272.09 56.9223 274.091C58.9226 276.092 60.0464 278.807 60.0464 281.637V296.478C60.0464 297.879 59.7705 299.267 59.2345 300.562C58.6984 301.856 57.9127 303.033 56.9223 304.023C55.9318 305.014 54.7559 305.8 53.4618 306.337C52.1677 306.873 50.7806 307.149 49.3799 307.149H35.4146C32.5856 307.149 29.8726 308.273 27.8722 310.274C25.8718 312.275 24.748 314.99 24.748 317.82V332.661C24.748 335.491 25.8718 338.205 27.8722 340.206C29.8725 342.208 32.5856 343.332 35.4146 343.332H430.095C432.924 343.332 435.637 342.208 437.637 340.206C439.637 338.205 440.761 335.491 440.761 332.661V317.82C440.761 314.99 439.637 312.275 437.637 310.274C435.637 308.273 432.924 307.149 430.095 307.149H420.846C419.446 307.149 418.059 306.873 416.764 306.337C415.47 305.8 414.294 305.014 413.304 304.023C412.314 303.032 411.528 301.856 410.992 300.561C410.456 299.267 410.18 297.879 410.18 296.478V281.637C410.18 278.807 411.304 276.092 413.304 274.091C415.304 272.09 418.017 270.966 420.846 270.966H442.653C445.482 270.966 448.195 269.841 450.195 267.84C452.196 265.839 453.32 263.125 453.32 260.295V245.454C453.32 244.052 453.044 242.665 452.508 241.37C451.972 240.075 451.186 238.899 450.195 237.908C449.205 236.917 448.029 236.131 446.735 235.595C445.441 235.059 444.054 234.783 442.653 234.783H436.038C434.637 234.783 433.25 234.507 431.956 233.97C430.662 233.434 429.486 232.648 428.496 231.657C427.505 230.666 426.719 229.49 426.183 228.195C425.647 226.901 425.371 225.513 425.371 224.112V209.271C425.371 206.44 426.495 203.726 428.496 201.725C430.496 199.724 433.209 198.6 436.038 198.6H452.673C454.074 198.6 455.461 198.324 456.755 197.787C458.049 197.251 459.225 196.465 460.216 195.474C461.206 194.483 461.992 193.307 462.528 192.012C463.064 190.718 463.34 189.33 463.34 187.929Z" fill="#F2F2F2"/>
<path d="M355.19 103.89C313.634 103.187 272.207 91.3246 234.629 69.1785C197.086 91.3246 155.659 103.187 114.094 103.89C105.624 194.351 132.991 303.202 234.629 343.643C336.302 303.202 363.566 194.351 355.19 103.89Z" fill="#E77127"/>
<path d="M326.879 127.965C295.082 127.426 263.383 118.35 234.63 101.404C205.902 118.35 174.203 127.426 142.399 127.965C135.918 197.183 156.858 280.473 234.63 311.417C312.427 280.473 333.289 197.183 326.879 127.965Z" fill="#F2F2F2"/>
<path d="M367.811 161.082C400.757 161.082 427.464 134.363 427.464 101.405C427.464 68.4459 400.757 41.7275 367.811 41.7275C334.866 41.7275 308.159 68.4459 308.159 101.405C308.159 134.363 334.866 161.082 367.811 161.082Z" fill="#EE781D"/>
<path d="M369.537 124.777H338.17C337.564 124.777 336.969 124.617 336.445 124.315C335.921 124.012 335.485 123.576 335.182 123.051C334.88 122.527 334.72 121.932 334.72 121.326C334.72 120.72 334.88 120.125 335.182 119.601L350.866 92.4246L366.55 65.2486C366.852 64.724 367.288 64.2884 367.812 63.9855C368.337 63.6826 368.931 63.5232 369.537 63.5232C370.142 63.5232 370.737 63.6826 371.262 63.9855C371.786 64.2884 372.222 64.724 372.524 65.2486L388.208 92.4246L403.891 119.601C404.194 120.125 404.354 120.72 404.354 121.326C404.354 121.932 404.194 122.527 403.891 123.051C403.589 123.576 403.153 124.012 402.629 124.315C402.105 124.617 401.51 124.777 400.904 124.777L369.537 124.777Z" fill="#F9AE2B"/>
<path d="M371.263 79.8374C371.263 78.884 370.49 78.1111 369.537 78.1111C368.584 78.1111 367.812 78.884 367.812 79.8374V105.573C367.812 106.526 368.584 107.299 369.537 107.299C370.49 107.299 371.263 106.526 371.263 105.573V79.8374Z" fill="white"/>
<path d="M373.645 115.958C373.87 113.688 372.212 111.666 369.944 111.441C367.675 111.216 365.653 112.874 365.429 115.144C365.204 117.413 366.861 119.436 369.13 119.66C371.399 119.885 373.42 118.227 373.645 115.958Z" fill="white"/>
<path d="M219.237 192.374V171.411C219.237 169.309 219.653 167.228 220.462 165.288C221.271 163.348 222.456 161.587 223.949 160.108C225.441 158.629 227.212 157.46 229.159 156.669C231.106 155.878 233.19 155.481 235.291 155.501H237.039C239.14 155.481 241.224 155.877 243.172 156.668C245.119 157.458 246.89 158.627 248.383 160.106C249.876 161.586 251.061 163.347 251.869 165.287C252.678 167.228 253.094 169.309 253.093 171.411V178.473C253.097 178.947 253.286 179.4 253.62 179.736C253.954 180.071 254.406 180.263 254.879 180.269L263.333 180.308C263.57 180.308 263.804 180.263 264.023 180.173C264.242 180.083 264.441 179.951 264.608 179.784C264.776 179.617 264.909 179.419 265 179.201C265.091 178.982 265.138 178.748 265.138 178.512V172.58C265.139 168.941 264.423 165.338 263.031 161.976C261.638 158.614 259.597 155.561 257.023 152.989C254.45 150.417 251.395 148.379 248.033 146.989C244.671 145.6 241.069 144.888 237.431 144.893H234.899C231.262 144.889 227.661 145.603 224.301 146.993C220.94 148.383 217.886 150.422 215.314 152.994C212.742 155.565 210.701 158.618 209.309 161.979C207.917 165.34 207.201 168.942 207.201 172.58V192.935L219.237 192.374Z" fill="#EE781D"/>
<path d="M269.139 252.653C271.255 252.648 273.283 251.805 274.779 250.308C276.276 248.811 277.119 246.782 277.124 244.665V199.23C277.119 197.113 276.276 195.084 274.779 193.587C273.283 192.09 271.255 191.247 269.139 191.242H203.202C201.085 191.247 199.057 192.09 197.561 193.587C196.064 195.084 195.222 197.113 195.216 199.23V244.665C195.222 246.782 196.064 248.811 197.561 250.308C199.057 251.805 201.085 252.648 203.202 252.653H269.139Z" fill="#F9AE2B"/>
<path d="M236.17 206.826C233.903 206.834 231.731 207.738 230.128 209.342C228.525 210.946 227.622 213.119 227.615 215.387C227.654 216.675 227.988 217.936 228.591 219.075C229.194 220.213 230.05 221.198 231.093 221.953V231.999C231.093 233.346 231.628 234.638 232.58 235.591C233.532 236.543 234.823 237.078 236.17 237.078C237.516 237.078 238.808 236.543 239.76 235.591C240.712 234.638 241.247 233.346 241.247 231.999V221.953C242.288 221.196 243.143 220.211 243.746 219.073C244.349 217.935 244.684 216.674 244.725 215.387C244.718 213.119 243.814 210.946 242.212 209.342C240.609 207.738 238.437 206.834 236.17 206.826Z" fill="#EE781D"/>
<path d="M73.5981 182.525H98.3254" stroke="#B9D4DB" stroke-width="3" stroke-miterlimit="10"/>
<path d="M73.5981 189.655H98.3254" stroke="#B9D4DB" stroke-width="3" stroke-miterlimit="10"/>
<path d="M73.5981 196.785H98.3254" stroke="#B9D4DB" stroke-width="3" stroke-miterlimit="10"/>
<path d="M420.072 29.9923H444.8" stroke="#B9D4DB" stroke-width="3" stroke-miterlimit="10"/>
<path d="M420.072 37.1221H444.8" stroke="#B9D4DB" stroke-width="3" stroke-miterlimit="10"/>
<path d="M420.072 44.2517H444.8" stroke="#B9D4DB" stroke-width="3" stroke-miterlimit="10"/>
<path d="M373.666 209.561H398.393" stroke="#B9D4DB" stroke-width="3" stroke-miterlimit="10"/>
<path d="M373.666 216.691H398.393" stroke="#B9D4DB" stroke-width="3" stroke-miterlimit="10"/>
<path d="M373.666 223.821H398.393" stroke="#B9D4DB" stroke-width="3" stroke-miterlimit="10"/>
<path d="M158.094 78.5771C165.039 78.5771 170.669 72.9447 170.669 65.9967C170.669 59.0487 165.039 53.4163 158.094 53.4163C151.149 53.4163 145.519 59.0487 145.519 65.9967C145.519 72.9447 151.149 78.5771 158.094 78.5771Z" fill="#F5F5F5"/>
<path d="M161.243 47.0885C164.861 47.0885 167.793 44.1547 167.793 40.5356C167.793 36.9165 164.861 33.9827 161.243 33.9827C157.626 33.9827 154.693 36.9165 154.693 40.5356C154.693 44.1547 157.626 47.0885 161.243 47.0885Z" fill="#F5F5F5"/>
<path d="M184.298 45.0138C186.385 45.0138 188.076 43.3215 188.076 41.2339C188.076 39.1464 186.385 37.4541 184.298 37.4541C182.211 37.4541 180.52 39.1464 180.52 41.2339C180.52 43.3215 182.211 45.0138 184.298 45.0138Z" fill="#F5F5F5"/>
<path d="M186.54 71.2703C191.542 71.2703 195.598 67.2132 195.598 62.2086C195.598 57.204 191.542 53.147 186.54 53.147C181.537 53.147 177.482 57.204 177.482 62.2086C177.482 67.2132 181.537 71.2703 186.54 71.2703Z" fill="#F5F5F5"/>
<path d="M338.522 328.758C345.467 328.758 351.097 323.125 351.097 316.177C351.097 309.229 345.467 303.597 338.522 303.597C331.577 303.597 325.947 309.229 325.947 316.177C325.947 323.125 331.577 328.758 338.522 328.758Z" fill="#F9AE2B"/>
<path d="M320.937 304.057C324.555 304.057 327.487 301.123 327.487 297.504C327.487 293.885 324.555 290.951 320.937 290.951C317.319 290.951 314.387 293.885 314.387 297.504C314.387 301.123 317.319 304.057 320.937 304.057Z" fill="#F9AE2B"/>
<path d="M336.186 283.972C338.272 283.972 339.964 282.28 339.964 280.192C339.964 278.105 338.272 276.413 336.186 276.413C334.099 276.413 332.407 278.105 332.407 280.192C332.407 282.28 334.099 283.972 336.186 283.972Z" fill="#F9AE2B"/>
<path d="M353.759 300.912C358.762 300.912 362.817 296.855 362.817 291.85C362.817 286.846 358.762 282.789 353.759 282.789C348.757 282.789 344.701 286.846 344.701 291.85C344.701 296.855 348.757 300.912 353.759 300.912Z" fill="#F9AE2B"/>
<path d="M97.0181 308.958C103.963 308.958 109.593 303.325 109.593 296.377C109.593 289.429 103.963 283.797 97.0181 283.797C90.073 283.797 84.4429 289.429 84.4429 296.377C84.4429 303.325 90.073 308.958 97.0181 308.958Z" fill="#F9AE2B"/>
<path d="M79.433 284.257C83.0506 284.257 85.9833 281.323 85.9833 277.704C85.9833 274.085 83.0506 271.151 79.433 271.151C75.8154 271.151 72.8828 274.085 72.8828 277.704C72.8828 281.323 75.8154 284.257 79.433 284.257Z" fill="#F9AE2B"/>
<path d="M94.6816 264.172C96.7683 264.172 98.4599 262.479 98.4599 260.392C98.4599 258.304 96.7683 256.612 94.6816 256.612C92.5949 256.612 90.9033 258.304 90.9033 260.392C90.9033 262.479 92.5949 264.172 94.6816 264.172Z" fill="#F9AE2B"/>
<path d="M112.255 281.111C117.258 281.111 121.313 277.054 121.313 272.049C121.313 267.045 117.258 262.988 112.255 262.988C107.253 262.988 103.197 267.045 103.197 272.049C103.197 277.054 107.253 281.111 112.255 281.111Z" fill="#F9AE2B"/>
</svg>
