<svg width="484" height="460" viewBox="0 0 484 460" fill="none" xmlns="http://www.w3.org/2000/svg">
<path fill-rule="evenodd" clip-rule="evenodd" d="M240.128 70.2695C347.485 160.807 460.178 126.109 472.814 230.31C486.236 341.07 450.332 274.41 363.858 343.516C237.657 444.381 48.1526 409.189 41.1341 229.258C36.4632 109.387 154.834 -1.65665 240.128 70.2695Z" fill="#F2F2F2"/>
<path d="M12.433 312.738C13.3792 310.641 13.9457 308.501 15.0617 306.734C16.3204 305.012 18.4371 303.683 20.6268 304.463C30.4288 307.637 40.2862 307.565 45.5909 299.467C45.5548 299.59 45.5404 299.719 45.5481 299.847C45.5496 299.966 45.6923 300.011 45.8108 300.01C45.9322 300.245 46.3846 300.429 46.623 300.545C47.8621 301.099 49.2603 301.153 50.6098 300.994C52.3125 300.713 53.6969 299.582 55.1799 298.759C56.137 298.186 57.147 297.705 58.1958 297.324C58.2197 297.875 58.1625 298.427 58.0261 298.962C57.9984 298.953 57.9691 298.951 57.9404 298.956C57.9118 298.96 57.8845 298.971 57.8606 298.987C56.6717 300.613 54.1895 301.117 52.1186 302.304C50.3516 303.154 48.8987 304.499 47.6612 306.031C46.4899 307.398 45.5337 308.936 44.8255 310.591C43.1629 314.19 42.7137 318.177 42.5241 322.089C42.5092 322.871 42.1107 327.071 43.4295 326.391C44.6927 325.025 45.359 323.311 46.7464 322.417C50.7641 319.571 55.7828 319.132 59.3422 315.629C62.9231 311.936 65.5147 304.819 61.0822 300.844C60.4263 300.281 59.6742 299.84 58.8621 299.544C58.7194 299.498 58.6237 299.428 58.481 299.383C58.683 298.641 58.7696 297.872 58.7377 297.104C59.5803 296.843 60.4578 296.713 61.3399 296.717C62.643 296.701 63.9961 296.898 65.2721 296.598C67.4703 296.121 69.2016 294.275 69.8151 292.111C69.9963 291.422 70.2703 290.565 70.2602 289.736C71.3609 290.6 72.5555 291.415 73.9116 291.848C75.8614 292.394 78.2993 292.151 79.0542 289.914C79.5109 288.486 79.161 286.998 79.0253 285.578C78.8953 284.632 79.1863 283.23 79.3619 282.066C79.4574 282.596 79.6569 283.101 79.9486 283.552C80.3113 284.14 80.7209 284.704 81.1306 285.268C80.9311 288.351 80.9015 291.764 82.5931 294.469C78.3913 293.832 77.4536 300.574 71.5841 297.28C70.8218 296.958 68.7648 295.395 68.4981 296.844C68.4324 297.295 68.6266 297.671 68.7736 298.073C69.1647 299.066 69.7033 299.994 70.3712 300.826C72.391 303.242 75.8726 305.025 79.0142 304.181C80.1246 303.907 81.1566 303.017 81.8373 302.488C82.6484 301.91 83.5473 301.468 84.4992 301.176C86.4347 300.537 88.5172 300.298 90.2342 299.235C90.6297 298.975 90.9921 298.668 91.3131 298.321C91.5931 299.905 92.6781 301.433 95.0176 302.85C98.1895 304.494 101.328 305.38 103.872 308.003C104.303 308.377 105.171 309.599 105.748 310.255C106.469 311.076 106.985 310.691 107.139 309.717C108.231 305.936 108.418 301.786 106.667 298.158C105.863 296.249 104.556 294.061 104.038 292.361C103.711 290.801 103.743 289.592 103.842 287.932C104.05 285.541 104.765 283.222 105.939 281.129C106.356 280.318 106.987 279.575 107.499 278.835C108.661 280.859 108.883 283.486 108.458 285.553C107.783 288.524 106.114 291.648 107.384 294.69C107.899 296.153 108.887 297.491 110.456 297.875C111.312 298.149 112.26 298.138 113.093 298.483C113.57 298.654 114.026 298.879 114.452 299.154L114.666 299.222C114.707 299.211 114.746 299.191 114.779 299.164C114.812 299.137 114.839 299.103 114.859 299.065C114.878 299.027 114.89 298.985 114.893 298.943C114.895 298.9 114.889 298.857 114.875 298.817C115.248 298.386 115.517 297.055 115.679 296.793C117.583 291.58 120.483 288.417 118.513 282.279C118.271 281.497 117.977 280.733 117.632 279.991C118.176 279.89 118.695 279.741 119.239 279.64C122.192 278.893 125.322 279.068 127.853 280.625C128.688 281.089 129.81 281.763 130.314 282.278C130.625 282.535 130.797 282.983 131.201 283.073C131.981 282.969 131.329 281.934 131.276 281.484C130.584 279.099 130.224 276.781 130.337 274.457C130.359 270.334 132.612 266.61 133.748 262.567C134.558 259.05 133.848 255.243 132.198 252.04C129.894 247.684 124.767 245.021 119.954 246.786L119.2 247.174C117.443 244.92 114.818 243.412 112.129 242.473C110.415 241.807 108.61 241.544 106.873 240.949C103.778 239.802 100.156 238.092 97.241 240.071C97.2867 239.928 97.3566 239.832 97.3795 239.761C99.2376 236.658 99.3343 232.912 99.6709 229.401C99.7378 227.692 100.028 226 100.534 224.367C100.537 224.373 100.541 224.379 100.547 224.383C100.552 224.388 100.558 224.391 100.565 224.393C100.571 224.395 100.579 224.396 100.586 224.396C100.592 224.395 100.599 224.393 100.605 224.389C101.717 224.234 102.768 224.885 104.05 225.059C105.208 225.171 106.373 225.189 107.534 225.111C107.802 225.748 108.07 226.384 108.48 226.948C109.444 228.24 110.759 229.172 112.236 229.841C115.548 231.294 117.053 228.432 118.494 226.021C119.029 225.209 119.947 224.676 120.862 223.907C121.778 223.147 122.532 222.211 123.08 221.154C123.96 219.509 124.267 217.443 123.535 215.675C122.999 214.52 121.761 214.085 120.62 213.72C118.86 213.196 117.08 212.981 115.365 212.314C114.128 211.879 113.006 211.205 111.698 210.866C110.7 210.546 109.61 210.63 108.592 210.737C107.504 210.977 106.394 211.109 105.28 211.133C105.91 208.424 106.42 205.479 108.032 203.635C109.457 201.888 111.58 201.151 113.736 201.054C114.056 201.016 114.381 201.053 114.685 201.161C115.606 202.832 116.764 204.501 118.666 205.07C120.024 205.622 121.726 205.341 122.757 204.333C122.927 204.122 123.068 203.889 123.175 203.641C123.99 206.38 125.715 207.875 128.698 207.65C129.527 207.639 130.331 207.464 131.159 207.335C131.49 207.284 131.868 207.208 132.127 207.015C132.691 206.606 132.751 205.681 132.154 205.333C131.296 204.94 130.259 205.356 129.384 205.508C128.415 205.71 127.802 206.025 127.064 205.75C125.921 205.266 124.91 203.999 123.904 203.087C125.44 202.713 126.804 201.89 127.688 200.6C128.67 199.497 129.778 198.987 131.267 198.637C132.661 198.336 134.172 197.915 135.13 196.765C136.482 194.877 136.493 191.891 134.696 190.254C132.012 187.822 128.831 189.283 128.922 192.931C128.912 194.069 129.072 195.536 128.821 196.321C128.455 197.344 127.564 198.161 126.411 198.815C125.444 199.253 124.455 199.763 123.802 200.576C123.793 197.899 121.928 196.594 119.679 194.773C117.874 193.322 115.799 192.243 113.574 191.601C112.67 191.351 111.647 190.984 110.703 191.351C109.69 191.813 109.918 193.067 110.472 193.795C111.633 195.7 113.922 196.905 114.041 198.87C114.164 199.224 113.982 199.795 114.034 200.245C111.735 200.178 109.328 201.06 107.785 202.809C105.656 205.039 105.291 208.147 104.615 210.999C102.767 211.117 100.872 211.14 99.0263 211.375C98.9551 211.352 98.908 211.377 98.838 211.472C98.7791 211.443 98.7119 211.436 98.6481 211.451C98.5911 211.472 98.5406 211.508 98.5014 211.554C98.4622 211.601 98.4357 211.657 98.4245 211.716C98.4133 211.776 98.4177 211.838 98.4374 211.895C98.4571 211.953 98.4914 212.004 98.5368 212.045C100.319 212.948 101.868 214.251 103.062 215.853C101.845 219.043 100.342 222.142 99.5528 225.469C98.7667 229.033 99.076 232.987 98.1195 236.222C97.7129 237.861 96.9678 238.961 96.2757 240.509C96.3456 240.414 96.2528 240.581 96.1601 240.748C95.957 240.952 95.7986 241.196 95.6948 241.464L95.6234 241.441C91.9835 240.277 88.344 243.047 85.253 244.103C84.2382 244.447 83.1262 244.603 82.2985 244.731C81.3993 244.837 78.8642 244.892 80.6571 246.173C82.4728 247.383 84.4755 248.378 86.2455 249.731C87.2519 250.643 88.1926 252.006 88.8722 253.325C90.6939 256.975 92.0945 261.083 94.6926 264.274C94.6697 264.351 94.6707 264.434 94.6954 264.511C95.7876 266.63 94.7959 268.87 92.6534 270.033C91.6643 270.543 90.1256 270.68 88.9253 271.358C85.4951 269.907 81.7572 272.37 79.8959 275.236C79.178 276.619 78.9369 278.233 78.8842 279.751C78.8816 280.217 78.9031 280.684 78.9485 281.148C78.8691 281.042 78.7637 280.959 78.6426 280.907C78.5215 280.854 78.3889 280.834 78.2576 280.848C77.0273 281.005 76.2196 282.793 75.7286 283.344C75.075 284.157 73.9888 284.478 72.9954 284.633C74.2156 281.679 74.694 278.095 74.7616 275.914C74.753 275.203 74.9328 274.396 74.83 273.733C74.8748 273.713 74.9147 273.683 74.947 273.646C74.9792 273.609 75.003 273.565 75.0169 273.518C75.0826 273.067 76.1172 272.414 76.5583 271.65C77.0921 270.72 77.2447 269.628 77.2318 268.562C77.3471 266.356 76.4449 264.258 75.0731 262.521C73.7711 260.688 71.4143 259.817 69.7686 258.936C67.5018 257.66 65.6589 256.166 64.8008 253.807C64.4222 252.73 64.279 251.584 64.381 250.447C64.6234 248.951 64.5233 246.558 62.3951 246.94C59.4064 248.659 59.5169 255.814 60.2879 258.814C61.3861 263.374 63.2749 268.66 62.5445 272.911C62.2763 274.241 61.6952 275.196 60.7477 275.208C60.6764 275.185 60.6285 275.209 60.5578 275.186C59.5827 272.947 58.325 270.853 57.0202 268.783C56.9232 268.595 56.8033 268.478 56.7061 268.289C57.189 267.588 57.5781 266.827 57.8636 266.025C58.2451 265.002 58.5182 263.942 58.6783 262.863C58.9366 262.67 58.7881 262.151 58.761 261.867C58.6252 260.446 57.8986 259.152 57.3376 257.831C56.4124 255.805 56.3609 253.507 55.4813 251.337C54.315 248.958 51.9925 246.995 49.3118 246.767C49.0984 246.743 48.8824 246.753 48.6725 246.799C48.4036 245.044 48.2869 243.269 48.3237 241.494C49.5982 241.076 50.7487 240.185 51.2067 238.876C51.4702 238.295 51.5924 237.66 51.5632 237.022C53.0276 236.625 54.6077 235.99 55.2298 234.537C55.3669 234.109 55.5038 233.68 55.5938 233.276C55.9529 233.978 56.4073 234.626 56.9442 235.203C58.8842 236.886 60.8182 234.161 61.7 232.634C62.9544 230.557 65.6835 228.912 66.5039 226.224C67.42 223.606 67.12 220.363 65.1514 218.278C63.831 216.872 62.0183 215.899 60.1169 215.448C58.6758 215.229 57.2023 215.411 55.8577 215.974L55.8106 215.998C54.7077 215.299 53.449 214.882 52.1464 214.787C50.248 214.573 48.481 215.424 46.6632 215.943C46.1507 216.059 45.6226 216.089 45.1002 216.033L45.0288 216.01C44.97 215.981 44.9028 215.973 44.839 215.989C44.0609 214.363 43.2829 212.737 42.5991 211.063C42.0137 209.696 41.404 208.281 40.8416 206.842C41.6669 206.955 42.5066 206.888 43.3037 206.647C44.6025 206.275 45.6059 204.984 45.494 203.61C45.4125 202.758 44.9758 201.911 45.0157 201.294C44.9859 200.772 45.431 200.365 45.8248 199.625C46.4257 198.362 45.7917 196.9 45.0908 195.771C43.9073 193.937 41.5264 193.018 39.3512 193.424C38.5704 193.528 38.0237 193.393 37.3343 193.211C38.6931 191.915 39.0925 189.683 40.1185 188.319C40.3509 188.025 40.6093 187.752 40.8907 187.504C40.8723 187.569 40.8743 187.637 40.8963 187.701C40.9183 187.764 40.9592 187.819 41.0136 187.858C41.021 187.967 41.0548 188.072 41.1121 188.165C41.6707 190.271 42.6631 192.236 44.0258 193.936C45.0622 195.369 46.5454 196.512 48.3709 196.585C49.3443 196.739 50.2394 196.277 51.0158 195.818C51.8864 195.31 52.7813 194.848 53.6762 194.387C54.8099 193.816 56.0879 193.596 57.3474 193.754C58.607 193.911 59.7911 194.44 60.7489 195.273C61.3943 195.716 61.9025 196.586 62.5976 197.241C62.6392 197.311 62.7036 197.365 62.7799 197.393C62.8563 197.422 62.94 197.423 63.0173 197.397C63.0945 197.371 63.1605 197.32 63.2044 197.251C63.2483 197.182 63.2673 197.101 63.2584 197.02C63.2085 196.807 62.9929 196.62 62.8959 196.432C61.6653 194.622 60.7601 192.287 59.3853 190.313C57.601 187.776 55.6496 185.145 52.9987 183.471C51.233 182.474 49.1433 182.12 47.1293 182.144C46.1277 182.16 45.1433 182.407 44.2529 182.866C43.3624 183.325 42.5898 183.983 41.9953 184.789C41.6105 185.356 41.3069 185.974 41.0933 186.625C41.0082 186.66 40.9348 186.718 40.882 186.794C39.1666 187.976 38.8099 189.828 37.9293 191.474C37.4654 192.309 37.1159 192.788 36.4336 193.199L36.2451 193.296C35.1044 189.115 34.1518 184.837 34.4571 180.687C34.471 180.471 34.5001 180.257 34.5442 180.046C34.8752 179.994 35.2306 179.99 35.5375 179.892C36.7423 179.569 37.4401 178.494 37.7812 177.305C38.3305 175.711 38.379 173.838 37.3425 172.405C37.174 172.194 36.9085 171.794 36.6458 171.631C36.6766 171.548 36.6917 171.459 36.6905 171.37C37.5256 171.834 38.3507 171.469 39.0314 170.939L39.0556 170.986C39.3668 171.243 39.8393 171.119 40.1962 171.233C40.5287 171.3 41.4551 171.478 41.7421 171.688C42.6484 172.175 43.0354 172.81 43.6378 173.632C44.1686 174.309 44.8702 174.832 45.6704 175.148C47.4347 176.027 49.5672 176.001 50.5095 177.482C51.2575 178.587 51.7529 180.358 52.7393 181.579C53.2698 182.244 53.8646 182.856 54.5152 183.406C54.8506 183.709 55.2574 184.036 55.7086 184.102C56.8708 184.159 56.2165 183.006 56.0195 182.392C55.7272 181.53 55.5646 180.63 55.5369 179.72C55.4711 178.204 56.3317 176.867 56.2871 175.161C56.3657 173.809 55.9473 172.534 55.2934 171.381C54.4962 169.809 53.3438 168.443 51.9274 167.393C50.9063 166.65 49.736 166.137 48.4973 165.89C47.2587 165.644 45.9812 165.669 44.7532 165.964C43.573 166.334 42.5866 167.08 41.6231 167.755C40.1902 168.792 38.7673 170.658 37.537 170.815C37.0873 170.867 37.0859 170.749 36.6805 170.541C36.99 168.712 37.2054 166.932 37.5149 165.104C37.736 163.798 38.404 162.202 39.288 160.793C39.3594 160.816 39.4072 160.792 39.5006 160.743C40.3946 160.163 41.6331 160.717 43.012 161.079C45.4813 161.476 48.0649 161.516 48.0261 158.317C48.0147 157.369 47.9288 156.162 48.11 155.472C48.404 154.308 48.7906 152.976 48.1845 151.798C49.1707 151.052 50.1812 150.352 51.2161 149.7C52.9733 148.633 54.837 147.753 56.7769 147.073C57.4921 147.42 58.2086 147.885 58.9922 148.018C60.512 148.307 62.5007 148.117 63.7826 148.291C65.327 148.628 66.3561 149.468 67.8336 150.138C69.3808 150.712 71.1065 150.359 72.7179 150.363C73.2394 150.333 74.3781 150.461 73.894 149.638C71.0332 146.284 67.8643 142.91 63.7204 141.23C60.7443 140.081 55.82 140.473 54.9168 144.157C54.9297 145.223 55.3651 145.952 55.5178 146.827C55.0041 147.021 54.5005 147.241 54.0092 147.486C51.8224 148.514 49.755 149.779 47.8442 151.258C47.2403 150.317 46.3067 149.547 45.3988 148.942C44.3953 148.266 43.4161 147.638 42.25 147.226C39.9646 146.377 37.4224 147.806 35.6314 148.61C34.9177 148.959 34.1334 149.138 33.339 149.135C32.6995 149.167 31.9873 149.057 31.4707 149.442C30.5787 150.141 30.7843 151.465 31.2454 152.36C31.5609 152.972 32.2288 153.343 32.8484 153.62C33.8248 154.011 35.482 153.873 36.1942 153.982C37.0964 154.114 37.693 154.462 38.127 155.073C38.3078 155.353 38.3948 155.684 38.3754 156.018C38.3355 156.634 38.1529 157.205 38.1599 157.798C38.0746 158.557 38.3915 159.287 38.8254 159.898C38.864 159.981 38.9218 160.054 38.9939 160.11C37.9934 161.638 37.2314 163.283 36.9217 165.111C36.5679 167.201 36.3555 169.218 35.9532 171.213C35.8594 171.149 35.7544 171.102 35.6435 171.075C33.237 169.99 30.0008 166.949 26.965 168.692C25.5034 169.326 24.433 170.95 23.3997 171.721C21.3787 173.12 19.1805 173.597 16.9394 172.487C15.1295 171.75 14.6471 173.012 15.5893 174.494C16.3374 175.599 17.3908 176.486 18.5371 177.207C19.4449 177.812 20.4227 178.322 21.5603 178.331C23.2887 178.216 25.1512 177.435 26.529 177.679C27.835 177.9 29.0511 178.525 30.2889 178.96C31.3836 179.35 32.6197 179.667 33.8287 179.699C33.7846 179.911 33.7556 180.125 33.7418 180.34C33.5779 182.451 33.7692 184.558 34.0791 186.663C34.4346 188.626 34.8617 190.612 35.3829 192.549C34.7398 192.274 34.0329 192.184 33.3416 192.289C32.017 192.495 30.9366 193.29 29.7104 193.803C28.578 194.266 26.8272 194.454 26.0579 193.539C25.2171 192.601 24.6088 191.305 23.3242 190.894C22.3259 190.693 22.4607 191.995 22.4921 192.634C22.5294 193.747 23.0633 194.784 23.6201 195.748C24.5185 197.33 25.7673 198.685 27.2706 199.709C29.1104 200.966 30.8476 201.561 32.7091 202.629C34.1907 203.654 35.6511 204.869 37.3653 205.535C38.2148 205.905 39.0995 206.188 40.0061 206.38C40.4459 207.464 40.9097 208.596 41.3494 209.681C42.9342 213.335 44.7059 216.773 45.9823 220.407C43.7026 220.032 41.4247 219.775 39.2773 218.616C38.0853 218.039 36.5357 217.228 35.2677 216.272C33.7846 215.129 30.8139 212.487 29.855 215.484C29.4954 217.1 30.1323 218.799 31.0488 220.115C32.3249 221.782 33.9794 223.373 34.7589 225.117C36.2822 229.577 37.2934 234.779 41.0562 238.264C42.5422 239.644 44.1724 241.188 46.2834 241.352C46.7214 241.366 47.1593 241.321 47.5852 241.218C47.5639 241.408 47.5896 241.574 47.5682 241.763C47.5875 243.31 47.7251 244.854 47.9796 246.379C44.4769 246.754 41.1852 248.927 38.9663 251.56C36.4331 254.905 34.4023 258.602 32.9382 262.534C32.4816 263.961 31.5753 265.442 32.0442 266.93C32.4625 268.204 33.8714 269.088 35.2231 269.166C36.2423 269.177 37.1843 268.692 38.152 268.372C38.5218 268.232 38.9004 268.117 39.2853 268.027C39.1278 269.148 38.6924 270.212 38.0188 271.122C37.0171 272.533 35.4709 274.045 34.6164 275.856C33.7532 275.341 32.7876 275.02 31.7874 274.918C30.7873 274.816 29.7768 274.933 28.827 275.263C26.3492 276.122 24.6699 278.299 22.794 279.981C21.6467 281.108 20.8259 281.829 19.218 282.062C17.7749 282.269 15.3783 282.014 13.7026 282.579C11.9784 283.05 10.7867 284.439 10.0946 285.988C8.17369 289.779 8.36962 294.209 8.41998 298.355C8.58597 302.263 8.53918 306.221 9.1547 310.077C9.45598 311.471 9.5947 313.128 10.1785 314.377C11.31 315.88 12.1304 313.191 12.433 312.738ZM103.736 216.696C104.414 217.897 104.926 219.123 105.51 220.372C106.068 221.455 106.65 222.467 107.114 223.599C107.271 223.918 107.402 224.249 107.505 224.589C106.226 224.652 104.804 224.669 103.782 224.421C102.903 224.219 102.021 223.779 101.097 223.838C101.059 223.851 101.017 223.852 100.978 223.839C101.732 221.484 102.77 219.101 103.736 216.696ZM96.6469 241.807C96.8017 241.716 96.9179 241.571 96.9737 241.4C99.4322 238.882 102.74 240.098 106.312 241.477C108.55 242.35 110.946 242.605 113.115 243.574C114.9 244.263 116.954 245.589 118.178 246.807C118.442 247.058 118.683 247.333 118.899 247.627C116.947 248.812 115.427 250.607 114.791 252.843C113.416 256.652 113.469 261.035 112.588 264.648C111.838 267.24 110.658 269.577 108.856 271.518C107.479 269.307 105.301 269.476 102.987 270.191C101.829 270.489 100.954 270.642 100.378 269.986C99.9456 269.494 99.6774 268.857 99.3371 268.198C99.5041 268.291 99.7181 268.359 99.8851 268.451C101.074 268.792 102.376 268.658 103.558 268.406C106.178 267.593 107.303 264.569 107.652 262.124C107.708 261.429 107.594 260.731 107.319 260.09C107.782 260.018 108.229 259.869 108.641 259.648C109.512 259.139 110.166 258.326 110.772 257.536C112.216 255.48 112.54 252.87 111.942 250.436C110.671 245.31 106.433 243.679 101.55 243.572C99.8899 243.474 98.1041 242.784 96.3656 242.071C96.5769 241.903 96.5998 241.831 96.6469 241.807ZM90.7532 271.667C91.9579 271.344 93.1867 271.068 94.1245 270.228C95.1498 269.328 95.8023 268.078 95.954 266.722C95.9768 266.34 95.9402 265.956 95.8454 265.586C95.9646 265.703 96.0852 265.82 96.2294 265.984C95.7286 267.672 95.5845 269.475 95.4877 271.254C95.4521 272.226 95.5108 273.149 95.9247 274.068C95.949 274.116 95.9019 274.14 95.9262 274.188C96.8013 276.002 98.6699 277.662 99.5877 279.096C100.631 281.122 99.7851 283.644 98.4778 285.271C97.0535 287.018 95.2694 288.415 93.5581 289.952L93.4854 289.81C93.193 289.266 92.8013 288.78 92.3305 288.379C90.5574 286.789 88.1138 286.558 86.4152 285.228C85.6501 284.668 85.3059 283.653 85.7484 283.008C85.7955 282.983 85.8183 282.912 85.8654 282.889C86.1238 282.696 86.4064 282.55 86.6648 282.358C88.7115 281.124 90.9193 279.509 91.316 277.04C91.4551 275.809 91.416 274.565 91.2001 273.345C91.0817 272.778 90.9326 272.218 90.7532 271.667ZM46.8316 286.49C47.0393 286.421 47.2528 286.371 47.4696 286.34C48.1562 286.285 48.5126 286.399 49.2025 286.58C50.9397 287.175 52.8025 288.361 54.7304 289.096C54.6833 289.12 54.6833 289.12 54.6605 289.191C54.1582 290.762 53.0093 291.771 51.2608 292.195C49.842 292.448 48.7874 293.41 48.0194 294.58C47.8143 294.862 47.6279 295.158 47.4614 295.464C47.6213 294.964 47.8281 294.441 47.988 293.941C48.3576 292.548 48.4208 291.092 48.1732 289.673C47.9708 288.585 47.4598 287.477 46.8316 286.49ZM38.8584 271.942C39.6276 270.89 39.9688 269.701 40.1427 268.419C40.5681 268.319 41.0178 268.266 41.3959 268.19C43.597 267.95 45.4283 268.497 47.1041 269.899C48.3731 270.973 49.8535 271.88 51.5363 271.906C53.5959 271.739 55.3116 270.557 56.5246 268.978C58.1435 271.541 59.691 274.082 60.7932 277.031C61.4041 278.564 61.8012 280.029 62.2224 281.54C61.8392 281.747 61.4005 281.827 60.9692 281.769C60.1628 281.707 58.9709 281.129 57.9959 280.857C54.9284 279.993 51.6869 280.412 48.7132 281.348C47.2501 281.864 45.6987 282.902 44.5397 283.082C44.405 283.081 44.2705 283.09 44.1374 283.11C41.7407 282.855 39.3127 281.96 37.9366 279.868C37.2856 278.951 36.7988 277.891 35.9366 277.143C35.7452 277.003 35.5539 276.863 35.3385 276.677C36.218 275.03 37.624 273.71 38.8584 271.941V271.942Z" fill="url(#paint0_linear_51_193)"/>
<path fill-rule="evenodd" clip-rule="evenodd" d="M56.501 334.829C57.0294 338.568 58.7873 342.412 61.1965 346.128C64.294 350.903 68.3634 355.513 71.5222 359.44C74.3001 362.966 77.2378 366.319 80.2862 369.553C83.347 372.797 86.5551 375.882 89.8986 378.847C94.3427 382.811 99.0444 386.475 103.973 389.817C115.589 397.656 128.962 403.902 144.745 407.992C145.138 408.081 145.546 408.093 145.943 408.025C146.341 407.957 146.721 407.812 147.063 407.597C147.404 407.382 147.7 407.102 147.934 406.773C148.167 406.444 148.333 406.072 148.423 405.679C148.512 405.285 148.524 404.878 148.456 404.48C148.388 404.083 148.243 403.702 148.028 403.361C147.813 403.019 147.533 402.723 147.204 402.49C146.875 402.257 146.503 402.091 146.109 402.001C130.733 398.929 117.432 393.82 105.964 386.743C101.032 383.718 96.3684 380.274 92.025 376.451C88.7735 373.568 85.7067 370.483 82.8429 367.214C79.9911 363.941 77.308 360.525 74.804 356.979C72.0139 352.975 68.3385 348.277 65.6957 343.442C64.012 340.357 62.7949 337.223 62.6227 334.231C62.5398 333.422 62.14 332.679 61.5107 332.164C60.8813 331.649 60.0737 331.405 59.2645 331.484C58.4553 331.563 57.7103 331.959 57.1925 332.586C56.6747 333.213 56.4263 334.019 56.5015 334.829L56.501 334.829ZM147.286 40.9886C149.831 38.9838 152.695 37.4275 155.719 36.185C160.451 34.2379 165.553 33.0186 170.432 32.0144C181.741 29.7145 193.479 29.1884 204.837 30.9117C216.207 32.6375 227.159 36.598 236.907 43.1065C245.044 48.6195 252.259 55.3799 259.548 61.9905C264.502 66.498 269.492 70.9391 274.876 74.8454C280.666 79.0621 286.898 82.673 293.966 85.1227C299.804 87.1631 305.692 88.1133 311.605 88.5669C325.052 89.5982 338.634 87.9068 352.045 90.7943C357.589 91.9964 362.653 94.0982 367.41 96.7496C374.736 100.83 381.337 106.226 387.864 111.752C388.175 112.011 388.534 112.206 388.921 112.325C389.307 112.445 389.714 112.487 390.117 112.449C390.52 112.411 390.912 112.294 391.269 112.104C391.627 111.915 391.943 111.656 392.201 111.344C392.458 111.031 392.651 110.671 392.769 110.284C392.887 109.897 392.927 109.49 392.888 109.087C392.848 108.684 392.729 108.293 392.537 107.937C392.346 107.58 392.086 107.264 391.772 107.008C384.803 101.43 377.747 96.0219 369.991 91.9693C364.706 89.2128 359.125 87.0672 353.028 85.9118C339.335 83.2961 325.568 85.3059 311.875 84.5524C306.282 84.2451 300.701 83.4572 295.145 81.6404C288.385 79.4095 282.399 76.0698 276.831 72.1204C271.508 68.3467 266.567 64.0409 261.699 59.6193C254.299 52.9018 247.072 45.9298 238.849 40.2619C228.781 33.2335 217.375 28.9019 205.513 26.795C193.676 24.6919 181.372 24.8233 169.473 26.8786C164.224 27.771 158.742 28.908 153.616 30.8095C150.027 32.1395 146.622 33.8591 143.562 36.0999C142.913 36.5939 142.488 37.3252 142.379 38.1328C142.27 38.9405 142.486 39.7584 142.98 40.4067C143.474 41.055 144.205 41.4804 145.013 41.5896C145.821 41.6987 146.638 41.4824 147.287 40.9885L147.286 40.9886Z" fill="#F7F7F7"/>
<path fill-rule="evenodd" clip-rule="evenodd" d="M262.016 139.922C262.014 134.638 259.915 129.571 256.179 125.835C252.444 122.098 247.378 119.997 242.094 119.993H95.1156C89.8321 119.997 84.766 122.098 81.0306 125.835C77.2953 129.571 75.1961 134.638 75.1943 139.922V347.546C75.1961 352.829 77.2952 357.896 81.0306 361.633C84.7659 365.37 89.8319 367.471 95.1156 367.475H242.095C247.379 367.471 252.445 365.37 256.18 361.633C259.915 357.896 262.015 352.829 262.016 347.546L262.016 139.922Z" fill="white"/>
<mask id="mask0_51_193" style="mask-type:luminance" maskUnits="userSpaceOnUse" x="75" y="119" width="188" height="249">
<path d="M262.016 139.922C262.014 134.638 259.915 129.571 256.179 125.835C252.444 122.098 247.378 119.997 242.094 119.993H95.1156C89.8321 119.997 84.766 122.098 81.0306 125.835C77.2953 129.571 75.1961 134.638 75.1943 139.922V347.546C75.1961 352.829 77.2952 357.896 81.0306 361.633C84.7659 365.37 89.8319 367.471 95.1156 367.475H242.095C247.379 367.471 252.445 365.37 256.18 361.633C259.915 357.896 262.015 352.829 262.016 347.546L262.016 139.922Z" fill="white"/>
</mask>
<g mask="url(#mask0_51_193)">
<path fill-rule="evenodd" clip-rule="evenodd" d="M284.171 152.45V123.869C284.171 121.73 282.023 119.994 279.385 119.994H57.8288C55.1904 119.994 53.043 121.73 53.043 123.869V152.45C53.043 154.589 55.1904 156.325 57.8288 156.325H279.385C282.023 156.325 284.171 154.589 284.171 152.45Z" fill="#DC6418"/>
<path d="M95.9393 143.082C98.658 143.082 100.862 140.878 100.862 138.159C100.862 135.44 98.658 133.236 95.9393 133.236C93.2206 133.236 91.0166 135.44 91.0166 138.159C91.0166 140.878 93.2206 143.082 95.9393 143.082Z" fill="#FFDB4D"/>
<path d="M111.536 143.082C114.255 143.082 116.459 140.878 116.459 138.159C116.459 135.44 114.255 133.236 111.536 133.236C108.817 133.236 106.613 135.44 106.613 138.159C106.613 140.878 108.817 143.082 111.536 143.082Z" fill="#FFDB4D"/>
<path d="M127.604 143.082C130.323 143.082 132.527 140.878 132.527 138.159C132.527 135.44 130.323 133.236 127.604 133.236C124.886 133.236 122.682 135.44 122.682 138.159C122.682 140.878 124.886 143.082 127.604 143.082Z" fill="#FFDB4D"/>
</g>
<path d="M129.395 243.732C148.101 243.732 163.266 228.568 163.266 209.861C163.266 191.154 148.101 175.989 129.395 175.989C110.688 175.989 95.5229 191.154 95.5229 209.861C95.5229 228.568 110.688 243.732 129.395 243.732Z" fill="#F0F0F0"/>
<mask id="mask1_51_193" style="mask-type:luminance" maskUnits="userSpaceOnUse" x="95" y="175" width="69" height="69">
<path d="M129.395 243.732C148.101 243.732 163.266 228.568 163.266 209.861C163.266 191.154 148.101 175.989 129.395 175.989C110.688 175.989 95.5229 191.154 95.5229 209.861C95.5229 228.568 110.688 243.732 129.395 243.732Z" fill="white"/>
</mask>
<g mask="url(#mask1_51_193)">
<path fill-rule="evenodd" clip-rule="evenodd" d="M97.1188 226.627C113.725 200.238 121.395 198.807 130.713 209.299C140.042 219.791 142.894 222.875 153.551 218.034C164.196 213.194 169.162 218.44 172.444 225.673C175.727 232.905 131.857 252.699 123.743 252.539C115.63 252.379 80.5001 253.017 97.1188 226.627Z" fill="url(#paint1_linear_51_193)"/>
</g>
<path d="M148.468 203.245C155.041 203.245 160.369 197.916 160.369 191.343C160.369 184.77 155.041 179.441 148.468 179.441C141.894 179.441 136.566 184.77 136.566 191.343C136.566 197.916 141.894 203.245 148.468 203.245Z" fill="url(#paint2_linear_51_193)"/>
<path fill-rule="evenodd" clip-rule="evenodd" d="M161.918 270.569C161.92 270.177 161.843 269.787 161.694 269.424C161.544 269.061 161.323 268.731 161.046 268.454C160.768 268.176 160.437 267.957 160.074 267.807C159.711 267.658 159.321 267.582 158.929 267.584H105.243C104.851 267.584 104.463 267.661 104.101 267.811C103.739 267.961 103.411 268.181 103.134 268.458C102.857 268.736 102.638 269.065 102.489 269.427C102.34 269.789 102.264 270.178 102.265 270.569V270.572C102.264 270.963 102.34 271.351 102.489 271.714C102.638 272.076 102.857 272.405 103.134 272.683C103.411 272.96 103.739 273.18 104.101 273.33C104.463 273.48 104.851 273.557 105.243 273.556H158.929C159.321 273.558 159.711 273.483 160.074 273.333C160.437 273.184 160.768 272.965 161.046 272.687C161.324 272.41 161.544 272.08 161.694 271.717C161.844 271.354 161.92 270.964 161.918 270.572V270.569Z" fill="#F0F0F0"/>
<path fill-rule="evenodd" clip-rule="evenodd" d="M253.153 215.471C253.152 213.085 252.202 210.797 250.515 209.111C248.827 207.424 246.538 206.477 244.152 206.478H182.038C180.857 206.478 179.688 206.71 178.598 207.162C177.507 207.614 176.516 208.277 175.682 209.112C174.848 209.947 174.186 210.939 173.735 212.03C173.284 213.121 173.052 214.29 173.053 215.471V215.473C173.052 216.653 173.284 217.822 173.735 218.913C174.186 220.004 174.848 220.995 175.682 221.83C176.517 222.665 177.507 223.328 178.598 223.779C179.689 224.231 180.857 224.464 182.038 224.463H244.152C246.538 224.464 248.827 223.518 250.514 221.832C252.202 220.146 253.151 217.859 253.153 215.473V215.471Z" fill="#F6F6F6"/>
<path fill-rule="evenodd" clip-rule="evenodd" d="M158.186 312.22C158.186 311.43 157.872 310.671 157.314 310.111C156.755 309.552 155.997 309.237 155.206 309.235H103.58C102.789 309.237 102.031 309.552 101.473 310.111C100.914 310.671 100.6 311.43 100.6 312.22V312.223C100.6 313.013 100.914 313.772 101.473 314.331C102.031 314.891 102.789 315.206 103.58 315.207H155.207C155.998 315.206 156.756 314.891 157.314 314.331C157.873 313.772 158.187 313.013 158.187 312.223L158.186 312.22ZM228.71 311.884C228.71 311.093 228.396 310.334 227.838 309.775C227.279 309.215 226.521 308.9 225.73 308.899H174.104C173.313 308.9 172.555 309.215 171.997 309.775C171.438 310.334 171.124 311.093 171.124 311.884V311.886C171.124 312.677 171.438 313.435 171.997 313.995C172.556 314.554 173.313 314.869 174.104 314.87H225.731C226.522 314.869 227.28 314.554 227.838 313.995C228.397 313.435 228.711 312.677 228.711 311.886L228.71 311.884ZM228.708 281.647C228.709 281.255 228.633 280.867 228.484 280.505C228.335 280.142 228.116 279.813 227.839 279.536C227.275 278.976 226.513 278.662 225.718 278.662H105.256C104.462 278.662 103.7 278.976 103.136 279.536C102.859 279.813 102.639 280.142 102.49 280.505C102.341 280.867 102.265 281.255 102.267 281.647V281.649C102.265 282.041 102.341 282.429 102.49 282.791C102.639 283.153 102.859 283.483 103.136 283.76C103.7 284.319 104.462 284.633 105.256 284.633H225.718C226.513 284.633 227.275 284.319 227.839 283.76C228.116 283.482 228.335 283.153 228.484 282.791C228.633 282.429 228.709 282.041 228.708 281.649V281.647ZM158.186 323.298C158.186 322.507 157.872 321.749 157.314 321.189C156.755 320.629 155.997 320.314 155.206 320.313H103.58C102.789 320.314 102.031 320.629 101.473 321.189C100.914 321.749 100.6 322.507 100.6 323.298V323.3C100.6 324.091 100.914 324.849 101.473 325.409C102.031 325.968 102.789 326.283 103.58 326.285H155.207C155.998 326.283 156.756 325.968 157.314 325.409C157.873 324.849 158.187 324.091 158.187 323.3L158.186 323.298ZM228.71 322.961C228.71 322.17 228.396 321.412 227.838 320.852C227.279 320.292 226.521 319.977 225.73 319.976H174.104C173.313 319.977 172.555 320.292 171.997 320.852C171.438 321.412 171.124 322.17 171.124 322.961V322.963C171.124 323.754 171.438 324.512 171.997 325.072C172.556 325.631 173.313 325.946 174.104 325.948H225.731C226.522 325.946 227.28 325.632 227.838 325.072C228.397 324.512 228.711 323.754 228.711 322.963L228.71 322.961ZM228.708 293.397C228.709 293.005 228.633 292.617 228.484 292.254C228.335 291.892 228.116 291.563 227.839 291.286C227.275 290.726 226.513 290.412 225.718 290.411H105.256C104.462 290.412 103.7 290.726 103.136 291.286C102.859 291.563 102.639 291.892 102.49 292.254C102.341 292.617 102.265 293.005 102.267 293.397V293.399C102.265 293.791 102.341 294.179 102.49 294.541C102.639 294.903 102.859 295.232 103.136 295.509C103.7 296.069 104.462 296.383 105.256 296.383H225.718C226.513 296.383 227.275 296.069 227.839 295.509C228.116 295.232 228.335 294.903 228.484 294.541C228.633 294.179 228.709 293.79 228.708 293.399V293.397ZM158.186 335.048C158.186 334.257 157.872 333.498 157.314 332.939C156.755 332.379 155.997 332.064 155.206 332.062H103.58C102.789 332.064 102.031 332.379 101.473 332.939C100.914 333.498 100.6 334.257 100.6 335.048V335.05C100.6 335.841 100.914 336.599 101.473 337.159C102.031 337.718 102.789 338.033 103.58 338.034H155.207C155.998 338.033 156.756 337.718 157.314 337.159C157.873 336.599 158.187 335.841 158.187 335.05L158.186 335.048ZM228.71 334.711C228.71 333.92 228.396 333.162 227.838 332.602C227.279 332.042 226.521 331.727 225.73 331.726H174.104C173.313 331.727 172.555 332.042 171.997 332.602C171.438 333.162 171.124 333.92 171.124 334.711V334.713C171.124 335.504 171.438 336.262 171.997 336.822C172.556 337.381 173.313 337.696 174.104 337.698H225.731C226.522 337.696 227.28 337.381 227.838 336.822C228.397 336.262 228.711 335.504 228.711 334.713L228.71 334.711Z" fill="#F0F0F0"/>
<path fill-rule="evenodd" clip-rule="evenodd" d="M378.565 155.043C390.364 155.043 398.966 165.908 397.287 180.655C396.095 191.105 383.34 201.985 370.719 207.2C359.818 211.705 359.759 195.222 359.759 180.38C359.759 165.538 366.774 155.043 378.565 155.043Z" fill="url(#paint3_linear_51_193)"/>
<path fill-rule="evenodd" clip-rule="evenodd" d="M369.566 233.476C380.91 259.76 304.898 343.97 279.558 341.809C254.213 339.637 217.505 220.465 217.505 220.465L206.825 206.479L234.997 210.044L233.036 213.869C233.036 213.869 272.767 283.034 283.565 288.213C288.933 290.791 302.93 248.453 332.639 231.619C365.035 213.278 363.077 218.442 369.566 233.476Z" fill="url(#paint4_linear_51_193)"/>
<mask id="mask2_51_193" style="mask-type:luminance" maskUnits="userSpaceOnUse" x="206" y="206" width="165" height="136">
<path d="M369.566 233.476C380.91 259.76 304.898 343.97 279.558 341.809C254.213 339.637 217.505 220.465 217.505 220.465L206.825 206.479L234.997 210.044L233.036 213.869C233.036 213.869 272.767 283.034 283.565 288.213C288.933 290.791 302.93 248.453 332.639 231.619C365.035 213.278 363.077 218.442 369.566 233.476Z" fill="white"/>
</mask>
<g mask="url(#mask2_51_193)">
<path fill-rule="evenodd" clip-rule="evenodd" d="M298.67 251.032C307.036 249.826 320.891 252.083 325.638 259.829C328.36 264.269 327.467 269.556 328.766 274.414C331.66 285.242 341.753 295.648 353.651 295.217C368.213 294.704 372.94 275.222 375.699 264.151C379.398 249.247 383.062 230.13 370.581 218.275C368.351 216.154 365.792 214.477 363.042 213.126C359.392 211.347 355.496 210.126 351.483 209.504C346.477 208.7 341.26 208.667 336.261 209.563C328.041 211.053 320.398 215.235 314.04 220.567C305.8 227.501 299.796 236.051 295.026 245.638L298.67 251.032Z" fill="url(#paint5_linear_51_193)"/>
</g>
<path fill-rule="evenodd" clip-rule="evenodd" d="M386.088 214.694C425.886 218.195 439.339 219.076 437.21 292.659C435.062 367.697 336.471 365.062 336.471 365.062C336.471 365.062 350.949 318.127 339.323 278.106C325.268 229.793 357.977 212.22 386.088 214.694Z" fill="url(#paint6_linear_51_193)"/>
<path fill-rule="evenodd" clip-rule="evenodd" d="M288.794 196.922C288.793 193.443 287.411 190.108 284.952 187.648C282.493 185.189 279.157 183.806 275.679 183.804H201.08C197.6 183.804 194.264 185.187 191.804 187.647C189.344 190.107 187.961 193.443 187.961 196.923C187.961 200.402 189.344 203.738 191.804 206.198C194.264 208.659 197.6 210.041 201.08 210.041H275.679C279.158 210.039 282.493 208.656 284.952 206.196C287.412 203.736 288.794 200.4 288.794 196.922Z" fill="#DC6418"/>
<path d="M207.443 191.2V193.133C206.977 193.043 206.504 192.995 206.029 192.989C204.776 192.989 203.854 193.257 203.264 193.792C202.674 194.328 202.329 195.23 202.256 196.502H202.354C202.858 195.628 203.706 195.191 204.898 195.191C205.919 195.191 206.73 195.512 207.332 196.154C207.934 196.795 208.23 197.673 208.23 198.788C208.23 200.009 207.885 200.974 207.197 201.682C206.509 202.392 205.562 202.746 204.37 202.746C203.587 202.764 202.816 202.547 202.157 202.124C201.51 201.686 201.012 201.06 200.731 200.33C200.412 199.549 200.252 198.606 200.252 197.502C200.252 195.396 200.719 193.802 201.678 192.722C202.637 191.641 204.05 191.099 205.931 191.099C206.437 191.094 206.942 191.127 207.443 191.2ZM206.115 198.846C206.115 198.253 205.968 197.796 205.673 197.477C205.365 197.157 204.935 196.998 204.37 196.998C203.862 196.981 203.366 197.157 202.981 197.489C202.808 197.623 202.667 197.794 202.569 197.99C202.471 198.186 202.418 198.401 202.415 198.62C202.395 199.197 202.582 199.762 202.944 200.212C203.109 200.401 203.311 200.556 203.537 200.666C203.763 200.775 204.009 200.839 204.26 200.852C204.511 200.866 204.762 200.828 204.998 200.743C205.235 200.657 205.451 200.525 205.636 200.355C205.956 200.022 206.115 199.519 206.115 198.846ZM218.875 196.62V196.678C220.682 196.903 221.592 197.808 221.592 199.392C221.592 200.435 221.21 201.255 220.424 201.851C219.649 202.447 218.531 202.746 217.08 202.746C215.839 202.746 214.757 202.541 213.835 202.132V200.115C214.805 200.589 215.867 200.842 216.945 200.855C217.769 200.855 218.383 200.726 218.789 200.468C218.989 200.342 219.151 200.165 219.259 199.956C219.368 199.746 219.417 199.511 219.404 199.276C219.404 198.676 219.17 198.253 218.715 198.007C218.26 197.762 217.535 197.637 216.527 197.637H215.567V195.864H216.477C217.362 195.864 218.026 195.75 218.48 195.52C218.935 195.29 219.169 194.884 219.169 194.302C219.177 194.12 219.143 193.938 219.071 193.771C218.998 193.604 218.889 193.455 218.751 193.336C218.48 193.106 218.05 192.99 217.472 192.99C217.047 192.992 216.624 193.059 216.219 193.188C215.759 193.344 215.321 193.557 214.916 193.823L213.846 192.201C214.967 191.487 216.267 191.105 217.595 191.1C218.751 191.1 219.66 191.342 220.324 191.828C220.642 192.048 220.899 192.345 221.073 192.691C221.247 193.036 221.332 193.42 221.32 193.806C221.333 194.462 221.106 195.101 220.681 195.6C220.263 196.089 219.649 196.43 218.875 196.62ZM232.826 196.603C233.661 197.039 234.264 197.507 234.645 198.002C235.09 198.588 235.284 199.327 235.185 200.056C235.086 200.786 234.702 201.446 234.116 201.892C233.379 202.461 232.42 202.745 231.252 202.745C229.998 202.745 229.015 202.476 228.314 201.939C227.626 201.401 227.27 200.656 227.27 199.703C227.26 199.081 227.449 198.471 227.811 197.964C228.155 197.466 228.708 197.037 229.445 196.678C228.228 195.922 227.614 194.976 227.614 193.839C227.605 193.447 227.693 193.06 227.872 192.711C228.05 192.363 228.312 192.064 228.634 191.842C229.31 191.347 230.183 191.099 231.252 191.098C232.322 191.098 233.194 191.344 233.858 191.835C234.18 192.062 234.441 192.366 234.617 192.718C234.793 193.071 234.878 193.462 234.866 193.855C234.866 195.032 234.177 195.948 232.826 196.603ZM231.252 195.679C231.83 195.438 232.223 195.188 232.444 194.927C232.662 194.677 232.78 194.355 232.776 194.024C232.783 193.856 232.748 193.69 232.675 193.539C232.602 193.388 232.494 193.257 232.358 193.158C232.026 192.931 231.629 192.819 231.227 192.839C230.839 192.823 230.455 192.932 230.133 193.15C229.997 193.249 229.887 193.381 229.814 193.534C229.741 193.686 229.707 193.855 229.716 194.024C229.712 194.356 229.835 194.678 230.06 194.923C230.403 195.251 230.809 195.508 231.252 195.679V195.679ZM231.117 197.587C229.937 198.084 229.347 198.745 229.347 199.569C229.338 199.772 229.377 199.974 229.463 200.159C229.549 200.343 229.678 200.504 229.839 200.627C230.158 200.885 230.625 201.015 231.215 201.015C231.83 201.015 232.297 200.889 232.629 200.641C232.791 200.519 232.921 200.359 233.007 200.175C233.092 199.991 233.132 199.789 233.121 199.586C233.113 199.225 232.968 198.879 232.715 198.62C232.432 198.317 231.977 198.011 231.351 197.703L231.117 197.587ZM248.793 202.577H240.889V200.905L243.827 197.998C244.921 196.911 245.609 196.158 245.879 195.737C246.143 195.353 246.288 194.9 246.298 194.434C246.308 194.246 246.277 194.058 246.207 193.884C246.137 193.709 246.029 193.552 245.892 193.423C245.601 193.167 245.222 193.036 244.835 193.056C244.387 193.057 243.944 193.147 243.532 193.321C243.006 193.559 242.514 193.865 242.069 194.233L240.852 192.712C241.301 192.363 241.773 192.044 242.266 191.759C242.642 191.552 243.042 191.393 243.458 191.284C243.927 191.158 244.41 191.095 244.896 191.099C245.965 191.099 246.826 191.39 247.477 191.973C247.795 192.249 248.048 192.591 248.218 192.976C248.388 193.361 248.471 193.779 248.461 194.2C248.461 194.741 248.352 195.277 248.141 195.776C247.9 196.325 247.572 196.833 247.17 197.279C246.544 197.986 245.879 198.657 245.179 199.291L243.851 200.526V200.618H248.793L248.793 202.577ZM255.062 202.645V200.704C255.525 200.81 256 200.861 256.475 200.855C257.741 200.855 258.675 200.579 259.278 200.028C259.88 199.476 260.2 198.558 260.249 197.275H260.151C259.856 197.786 259.511 198.14 259.093 198.339C258.614 198.551 258.093 198.653 257.569 198.637C256.537 198.637 255.725 198.314 255.148 197.667C254.558 197.019 254.263 196.116 254.263 194.957C254.263 193.763 254.607 192.823 255.307 192.133C255.996 191.445 256.942 191.099 258.11 191.099C259.389 191.099 260.396 191.553 261.134 192.461C261.884 193.368 262.253 194.66 262.253 196.335C262.253 198.425 261.773 200.016 260.827 201.108C259.88 202.201 258.467 202.747 256.586 202.747C256.076 202.754 255.566 202.719 255.062 202.645ZM256.377 194.923C256.377 196.194 256.955 196.83 258.098 196.83C258.614 196.847 259.118 196.67 259.511 196.335C259.684 196.201 259.824 196.031 259.922 195.836C260.02 195.641 260.073 195.427 260.078 195.209C260.089 194.644 259.902 194.094 259.549 193.654C259.386 193.46 259.185 193.301 258.958 193.188C258.731 193.074 258.484 193.008 258.231 192.993C257.978 192.978 257.724 193.015 257.486 193.101C257.248 193.188 257.03 193.322 256.845 193.495C256.537 193.83 256.377 194.306 256.377 194.923ZM271.828 202.745C270.525 202.745 269.541 202.255 268.878 201.275C268.214 200.295 267.882 198.853 267.882 196.947C267.882 194.976 268.214 193.508 268.866 192.544C269.517 191.581 270.513 191.099 271.828 191.099C274.458 191.099 275.786 193.044 275.786 196.931C275.786 198.954 275.454 200.427 274.815 201.355C274.163 202.282 273.168 202.745 271.828 202.745ZM271.828 200.855C272.467 200.855 272.922 200.548 273.192 199.934C273.475 199.321 273.61 198.32 273.61 196.931C273.61 195.519 273.475 194.51 273.192 193.901C272.922 193.294 272.467 192.99 271.828 192.989C271.628 192.979 271.429 193.013 271.244 193.089C271.059 193.164 270.893 193.28 270.758 193.427C270.5 193.718 270.316 194.15 270.205 194.721C270.09 195.458 270.037 196.202 270.046 196.947C270.046 198.325 270.193 199.321 270.463 199.934C270.746 200.548 271.201 200.854 271.828 200.855Z" fill="white"/>
<path fill-rule="evenodd" clip-rule="evenodd" d="M229.016 210.04C228.893 208.578 232.052 203.524 233.366 202.745C234.633 201.998 236.771 203.905 236.907 205.367C237.03 206.83 235.431 210.74 234.116 211.518C232.801 212.297 229.139 211.502 229.016 210.04Z" fill="#FFC299"/>
<path fill-rule="evenodd" clip-rule="evenodd" d="M379.813 155.044C379.813 155.044 382.394 160.749 380.526 165.245C380.034 166.431 378.879 167.298 377.944 168.157C375.547 170.335 372.536 171.495 369.943 173.345C369.168 173.889 367.521 174.942 367.62 176.073C367.755 177.392 370.349 176.772 371.062 176.56C373.864 175.721 376.077 174.729 377.589 177.012C379.125 179.343 377.896 185.074 376.311 188.957C376.027 189.646 374.749 192.563 376.212 192.855C377.159 193.041 377.995 191.943 378.511 191.326C379.998 189.514 380.391 183.331 381.866 181.5C382.555 180.652 383.612 179.684 384.595 181.215C387.619 185.938 384.571 190.8 381.203 192.419C377.146 194.378 376.63 204.253 376.63 204.253C376.63 204.253 385.431 207.011 388.16 199.929C392.991 201.611 402.148 200.458 402.087 191.146C410.765 187.549 414.747 173.929 406.61 169.218C407.79 168.644 408.515 166.966 408.835 165.804C412.166 154.063 398.436 140.895 385.505 148.258C382.652 149.88 380.575 151.972 379.813 155.044Z" fill="url(#paint7_linear_51_193)"/>
<path d="M258.203 435.746C282.523 435.746 302.238 416.031 302.238 391.711C302.238 367.392 282.523 347.677 258.203 347.677C233.883 347.677 214.168 367.392 214.168 391.711C214.168 416.031 233.883 435.746 258.203 435.746Z" fill="#DC6418"/>
<path fill-rule="evenodd" clip-rule="evenodd" d="M232.404 395.556L246.982 413.737C247.581 414.483 248.345 415.08 249.214 415.479C250.084 415.878 251.034 416.068 251.99 416.035C252.946 416.002 253.882 415.747 254.721 415.289C255.561 414.831 256.283 414.183 256.828 413.398L284.055 374.164C284.984 372.824 285.343 371.17 285.053 369.566C284.762 367.961 283.847 366.538 282.507 365.609C281.167 364.679 279.513 364.32 277.908 364.611C276.304 364.901 274.88 365.817 273.951 367.157L251.42 399.624L241.992 387.867C240.969 386.605 239.489 385.799 237.874 385.626C236.259 385.453 234.641 385.926 233.374 386.942C232.107 387.958 231.294 389.434 231.112 391.048C230.93 392.662 231.395 394.283 232.404 395.555V395.556Z" fill="white"/>
<path fill-rule="evenodd" clip-rule="evenodd" d="M417.837 223.094C446.354 225.597 487.95 326.026 470.41 353.759C452.857 381.492 342.143 384.356 312.569 389.49C290.1 409.118 280.917 384.701 284.138 384.669C298.446 384.526 298.065 373.05 298.065 373.05C298.065 373.05 298.298 371.849 294.254 366.967C298.716 363.827 308.685 372.891 308.685 372.891C308.685 372.891 415.465 331.816 425.151 324.774C429.969 321.274 399.891 288.831 398.662 254.706C398.244 243.009 401.526 221.662 417.837 223.094Z" fill="url(#paint8_linear_51_193)"/>
<mask id="mask3_51_193" style="mask-type:luminance" maskUnits="userSpaceOnUse" x="283" y="223" width="192" height="175">
<path d="M417.837 223.094C446.354 225.597 487.95 326.026 470.41 353.759C452.857 381.492 342.143 384.356 312.569 389.49C290.1 409.118 280.917 384.701 284.138 384.669C298.446 384.526 298.065 373.05 298.065 373.05C298.065 373.05 298.298 371.849 294.254 366.967C298.716 363.827 308.685 372.891 308.685 372.891C308.685 372.891 415.465 331.816 425.151 324.774C429.969 321.274 399.891 288.831 398.662 254.706C398.244 243.009 401.526 221.662 417.837 223.094Z" fill="white"/>
</mask>
<g mask="url(#mask3_51_193)">
<path fill-rule="evenodd" clip-rule="evenodd" d="M399.608 293.819C402.521 285.884 411.089 274.765 420.16 274.267C425.36 273.981 429.588 277.279 434.48 278.443C445.383 281.04 459.334 277.102 464.608 266.427C471.073 253.37 456.176 239.955 447.743 232.268C436.386 221.933 421.303 209.628 404.943 214.978C402.018 215.934 399.326 217.389 396.83 219.167C393.531 221.535 390.606 224.383 388.152 227.618C385.067 231.642 382.559 236.216 380.974 241.042C378.38 248.983 378.429 257.695 380.101 265.823C382.289 276.367 386.96 285.712 393.13 294.464L399.608 293.819Z" fill="url(#paint9_linear_51_193)"/>
</g>
<defs>
<linearGradient id="paint0_linear_51_193" x1="16.6063" y1="157.381" x2="129.827" y2="350.925" gradientUnits="userSpaceOnUse">
<stop stop-color="white"/>
<stop offset="0.61" stop-color="#F3F3F3"/>
<stop offset="0.82" stop-color="#EF8843"/>
<stop offset="1" stop-color="#EF8843"/>
</linearGradient>
<linearGradient id="paint1_linear_51_193" x1="142.763" y1="214.002" x2="119.265" y2="256.436" gradientUnits="userSpaceOnUse">
<stop stop-color="#EF8843"/>
<stop offset="1" stop-color="white"/>
</linearGradient>
<linearGradient id="paint2_linear_51_193" x1="153.378" y1="180.707" x2="128.562" y2="229.689" gradientUnits="userSpaceOnUse">
<stop stop-color="#EF8843"/>
<stop offset="1" stop-color="white"/>
</linearGradient>
<linearGradient id="paint3_linear_51_193" x1="363.108" y1="160.909" x2="395.342" y2="209.746" gradientUnits="userSpaceOnUse">
<stop stop-color="#FBC19A"/>
<stop offset="0.64" stop-color="#FCA586"/>
<stop offset="0.84" stop-color="#FD7E50"/>
<stop offset="1" stop-color="#EC7322"/>
</linearGradient>
<linearGradient id="paint4_linear_51_193" x1="288.279" y1="233.385" x2="351.054" y2="340.648" gradientUnits="userSpaceOnUse">
<stop stop-color="#FAB98D"/>
<stop offset="0.63" stop-color="#FBA484"/>
<stop offset="0.83" stop-color="#FD7D4E"/>
<stop offset="1" stop-color="#EC7322"/>
</linearGradient>
<linearGradient id="paint5_linear_51_193" x1="332.968" y1="232.342" x2="364.343" y2="289.574" gradientUnits="userSpaceOnUse">
<stop stop-color="#565656"/>
<stop offset="0.54" stop-color="#4D4D4D"/>
<stop offset="1" stop-color="#2B2B2B"/>
</linearGradient>
<linearGradient id="paint6_linear_51_193" x1="343.171" y1="239.692" x2="418.297" y2="347.01" gradientUnits="userSpaceOnUse">
<stop stop-color="#565656"/>
<stop offset="0.51" stop-color="#4B4B4B"/>
<stop offset="1" stop-color="#2B2B2B"/>
</linearGradient>
<linearGradient id="paint7_linear_51_193" x1="377.065" y1="201.005" x2="406.487" y2="145.203" gradientUnits="userSpaceOnUse">
<stop/>
<stop offset="1" stop-color="#404040"/>
</linearGradient>
<linearGradient id="paint8_linear_51_193" x1="376.527" y1="338.913" x2="388.964" y2="421.584" gradientUnits="userSpaceOnUse">
<stop stop-color="#FBC19A"/>
<stop offset="0.47" stop-color="#F8875E"/>
<stop offset="1" stop-color="#EC7322"/>
</linearGradient>
<linearGradient id="paint9_linear_51_193" x1="432.71" y1="222.21" x2="407.763" y2="302.971" gradientUnits="userSpaceOnUse">
<stop stop-color="#565656"/>
<stop offset="0.49" stop-color="#4B4B4B"/>
<stop offset="1" stop-color="#2B2B2B"/>
</linearGradient>
</defs>
</svg>
