<svg width="389" height="389" viewBox="0 0 389 389" fill="none" xmlns="http://www.w3.org/2000/svg">
<path d="M254.842 183.07C275.047 183.07 291.427 166.69 291.427 146.485C291.427 126.279 275.047 109.899 254.842 109.899C234.636 109.899 218.256 126.279 218.256 146.485C218.256 166.69 234.636 183.07 254.842 183.07Z" fill="url(#paint0_linear_52_885)"/>
<path d="M254.903 183.435L254.902 182.705C256.166 182.703 257.429 182.636 258.686 182.504L258.763 183.23C257.481 183.365 256.192 183.434 254.903 183.435ZM251.041 183.243C249.758 183.112 248.483 182.913 247.221 182.649L247.371 181.935C248.608 182.194 249.858 182.388 251.115 182.517L251.041 183.243ZM262.582 182.624L262.429 181.91C263.661 181.647 264.892 181.316 266.09 180.926L266.316 181.62C265.09 182.019 263.843 182.354 262.582 182.624ZM243.482 181.657C242.255 181.26 241.049 180.799 239.869 180.277L240.165 179.609C241.321 180.122 242.503 180.574 243.706 180.962L243.482 181.657ZM269.924 180.227L269.626 179.561C270.779 179.044 271.905 178.467 272.999 177.833L273.365 178.465C272.249 179.112 271.101 179.7 269.924 180.227ZM236.421 178.524C235.304 177.88 234.22 177.178 233.176 176.421L233.605 175.83C234.628 176.572 235.69 177.26 236.785 177.891L236.421 178.524ZM276.603 176.352L276.172 175.762C277.193 175.016 278.175 174.218 279.113 173.371L279.603 173.912C278.646 174.777 277.644 175.591 276.603 176.352ZM230.168 173.991C229.208 173.129 228.294 172.218 227.428 171.262L227.97 170.772C228.818 171.71 229.715 172.603 230.655 173.448L230.168 173.991ZM282.333 171.174L281.79 170.686C282.635 169.746 283.431 168.762 284.174 167.739L284.765 168.167C284.007 169.211 283.195 170.215 282.333 171.174ZM224.988 168.262C224.227 167.221 223.521 166.141 222.873 165.026L223.504 164.659C224.139 165.752 224.831 166.811 225.577 167.832L224.988 168.262ZM286.869 164.923L286.237 164.558C286.869 163.463 287.443 162.335 287.957 161.18L288.624 161.476C288.1 162.655 287.514 163.806 286.869 164.923ZM221.107 161.586C220.58 160.409 220.115 159.205 219.714 157.979L220.408 157.752C220.801 158.954 221.257 160.134 221.774 161.288L221.107 161.586ZM290.007 157.864L289.312 157.639C289.701 156.436 290.026 155.213 290.286 153.976L291.001 154.126C290.735 155.388 290.403 156.636 290.007 157.864ZM218.708 154.245C218.438 152.984 218.235 151.709 218.099 150.427L218.825 150.35C218.958 151.607 219.158 152.856 219.422 154.092L218.708 154.245ZM291.596 150.306L290.87 150.231C290.997 148.995 291.062 147.735 291.062 146.485L291.792 146.445V146.485C291.792 147.759 291.726 149.045 291.596 150.306ZM218.621 146.566H217.891V146.485C217.891 145.199 217.958 143.9 218.09 142.624L218.816 142.699C218.686 143.957 218.621 145.22 218.621 146.484V146.566ZM290.862 142.661C290.73 141.403 290.533 140.154 290.27 138.917L290.984 138.765C291.252 140.027 291.454 141.302 291.588 142.584L290.862 142.661ZM219.404 138.956L218.69 138.804C218.957 137.542 219.29 136.295 219.688 135.068L220.383 135.293C219.993 136.496 219.667 137.719 219.404 138.956ZM289.288 135.256C288.896 134.055 288.441 132.874 287.925 131.719L288.592 131.422C289.118 132.599 289.582 133.804 289.982 135.03L289.288 135.256ZM221.742 131.754L221.076 131.457C221.601 130.279 222.188 129.129 222.834 128.012L223.466 128.377C222.833 129.472 222.258 130.599 221.742 131.754ZM286.2 128.346C285.565 127.253 284.874 126.193 284.129 125.171L284.72 124.741C285.479 125.783 286.184 126.864 286.831 127.98L286.2 128.346ZM225.533 125.2L224.942 124.77C225.702 123.728 226.514 122.725 227.377 121.766L227.92 122.255C227.074 123.195 226.277 124.178 225.533 125.2ZM281.74 122.229C280.893 121.29 279.998 120.396 279.057 119.55L279.546 119.008C280.505 119.87 281.418 120.782 282.282 121.74L281.74 122.229ZM230.599 119.573L230.111 119.031C231.069 118.168 232.071 117.355 233.114 116.595L233.543 117.186C232.521 117.93 231.539 118.727 230.599 119.573ZM276.111 117.164C275.088 116.421 274.027 115.732 272.932 115.099L273.297 114.467C274.414 115.112 275.497 115.815 276.54 116.574L276.111 117.164ZM236.72 115.117L236.354 114.486C237.47 113.84 238.62 113.252 239.797 112.726L240.094 113.393C238.94 113.909 237.814 114.484 236.72 115.117ZM269.555 113.378C268.399 112.864 267.218 112.411 266.015 112.021L266.24 111.327C267.467 111.724 268.673 112.186 269.852 112.711L269.555 113.378ZM243.632 112.033L243.406 111.338C244.633 110.94 245.88 110.606 247.142 110.338L247.293 111.053C246.057 111.315 244.835 111.642 243.632 112.033ZM262.352 111.044C261.115 110.784 259.865 110.588 258.608 110.458L258.683 109.732C259.962 109.864 261.248 110.066 262.502 110.33L262.352 111.044ZM251.037 110.462L250.961 109.736C252.244 109.603 253.533 109.536 254.822 109.535V110.265C253.558 110.266 252.295 110.331 251.037 110.462Z" fill="#E2DCE3"/>
<path d="M103.411 112.86C119.709 112.86 132.921 99.648 132.921 83.3503C132.921 67.0527 119.709 53.8408 103.411 53.8408C87.1137 53.8408 73.9019 67.0527 73.9019 83.3503C73.9019 99.648 87.1137 112.86 103.411 112.86Z" fill="url(#paint1_linear_52_885)"/>
<path d="M103.442 113.231C102.738 113.231 102.024 113.205 101.32 113.155L101.372 112.427C102.635 112.517 103.919 112.524 105.183 112.448L105.227 113.177C104.635 113.213 104.035 113.231 103.442 113.231ZM109.102 112.686L108.963 111.969C110.21 111.726 111.441 111.402 112.646 110.998L112.878 111.69C111.642 112.104 110.381 112.437 109.102 112.686ZM97.448 112.624L97.3657 112.607C96.0885 112.343 94.8296 111.997 93.597 111.57L93.836 110.881C95.0378 111.296 96.2651 111.634 97.5103 111.891L97.5964 111.909L97.448 112.624ZM116.492 110.211L116.172 109.554C117.315 108.997 118.42 108.365 119.481 107.665L119.883 108.274C118.796 108.992 117.663 109.639 116.492 110.211ZM89.9976 110.053C88.8318 109.468 87.7058 108.807 86.627 108.074L87.0372 107.47C88.0897 108.185 89.188 108.83 90.3251 109.4L89.9976 110.053ZM122.996 105.913L122.518 105.361C123.479 104.528 124.384 103.633 125.229 102.682L125.775 103.166C124.909 104.141 123.98 105.058 122.996 105.913ZM83.5454 105.669C82.5725 104.801 81.6572 103.871 80.8055 102.884L81.3583 102.407C82.1896 103.37 83.0826 104.278 84.0316 105.125L83.5454 105.669ZM128.172 100.08L127.567 99.6713C128.28 98.6171 128.922 97.5173 129.49 96.379L130.144 96.7045C129.561 97.8718 128.902 98.9994 128.172 100.08ZM78.4514 99.7666C77.7354 98.6776 77.0909 97.5432 76.5218 96.3707L77.1788 96.0524C77.734 97.1964 78.363 98.3032 79.0617 99.3656L78.4514 99.7666ZM131.653 93.1017L130.963 92.8647C131.369 91.6822 131.7 90.4752 131.953 89.2508L131.965 89.1889L132.681 89.3335L132.668 89.4002C132.408 90.6542 132.069 91.8905 131.653 93.1017ZM75.0501 92.7538C74.6392 91.5175 74.3097 90.2556 74.0637 88.9763L74.7805 88.8385C75.0208 90.0865 75.3423 91.3175 75.7431 92.5236L75.0501 92.7538ZM133.215 85.464L132.487 85.4114C132.578 84.1431 132.586 82.8702 132.511 81.6008L133.239 81.557C133.317 82.8585 133.309 84.1637 133.215 85.464ZM73.5809 85.0995C73.5477 84.5271 73.531 83.9539 73.5308 83.3806C73.5308 82.6554 73.558 81.9196 73.6115 81.1925L74.3396 81.2461C74.2874 81.9564 74.2611 82.6684 74.2608 83.3806C74.2608 83.9354 74.2773 84.4999 74.3094 85.0571L73.5809 85.0995ZM132.035 77.8199C131.793 76.5723 131.47 75.3418 131.067 74.1363L131.759 73.9047C132.172 75.1404 132.504 76.4017 132.752 77.6807L132.035 77.8199ZM74.8701 77.4496L74.1503 77.3255L74.1551 77.3021C74.4177 76.0331 74.7612 74.7823 75.1835 73.5572L75.8736 73.7957C75.4613 74.9909 75.1261 76.2114 74.8701 77.4496ZM129.626 70.6095C129.069 69.4663 128.438 68.3606 127.738 67.2992L128.347 66.8972C129.065 67.9853 129.711 69.1187 130.282 70.2902L129.626 70.6095ZM77.3521 70.2829L76.699 69.9564C77.2831 68.79 77.9435 67.6633 78.6758 66.5838L79.2797 66.9935C78.5657 68.0465 77.9217 69.1453 77.3521 70.2829ZM125.437 64.2609C124.604 63.2993 123.71 62.3928 122.76 61.5472L123.245 61.0017C124.219 61.8682 125.135 62.7973 125.989 63.783L125.437 64.2609ZM81.6226 63.9859L81.0775 63.5007C81.9445 62.5271 82.8742 61.6112 83.8607 60.7589L84.3377 61.3112C83.3756 62.143 82.4687 63.0365 81.6226 63.9859ZM119.75 59.2069C118.697 58.4938 117.597 57.8506 116.459 57.2811L116.786 56.628C117.952 57.2114 119.079 57.8708 120.16 58.6019L119.75 59.2069ZM87.3784 59.0122L86.9769 58.4024C88.0655 57.6858 89.1993 57.0404 90.3714 56.4703L90.6901 57.1269C89.5466 57.6831 88.4404 58.3128 87.3784 59.0122ZM112.946 55.806C111.757 55.3968 110.543 55.0639 109.311 54.8093L109.416 54.0857L109.458 54.0944C110.72 54.3553 111.965 54.6967 113.184 55.1164L112.946 55.806ZM94.218 55.6883L93.9868 54.9957C95.2228 54.5838 96.4846 54.2533 97.7638 54.0064L97.902 54.7232C96.6542 54.9638 95.4235 55.2862 94.218 55.6883ZM105.494 54.2764C104.226 54.1844 102.953 54.1753 101.683 54.2492L101.64 53.5207C102.942 53.4445 104.247 53.4538 105.547 53.5484L105.494 54.2764Z" fill="#E2DCE3"/>
<path d="M155.655 385.474C180.222 385.474 200.138 365.559 200.138 340.991C200.138 316.424 180.222 296.509 155.655 296.509C131.088 296.509 111.172 316.424 111.172 340.991C111.172 365.559 131.088 385.474 155.655 385.474Z" fill="url(#paint2_linear_52_885)"/>
<path d="M155.695 385.839L155.694 385.109C156.974 385.107 158.268 385.05 159.539 384.938L159.603 385.665C158.304 385.779 157 385.837 155.695 385.839ZM151.786 385.672C150.486 385.56 149.192 385.392 147.907 385.168L148.032 384.448C149.297 384.669 150.57 384.835 151.849 384.945L151.786 385.672ZM163.482 385.154L163.355 384.436C164.619 384.212 165.873 383.934 167.113 383.602L167.302 384.308C166.041 384.645 164.767 384.928 163.482 385.154ZM144.085 384.329C142.825 383.993 141.579 383.603 140.353 383.159L140.601 382.473C141.808 382.909 143.033 383.293 144.273 383.623L144.085 384.329ZM171.034 383.131L170.783 382.445C171.99 382.006 173.176 381.514 174.339 380.971L174.648 381.632C173.466 382.184 172.26 382.684 171.034 383.131ZM136.737 381.666C135.554 381.117 134.396 380.515 133.266 379.863L133.631 379.231C134.742 379.872 135.881 380.464 137.045 381.005L136.737 381.666ZM178.118 379.821L177.752 379.189C178.863 378.545 179.945 377.853 180.995 377.115L181.415 377.712C180.347 378.462 179.247 379.166 178.118 379.821ZM129.967 377.762C128.899 377.014 127.864 376.22 126.865 375.381L127.334 374.822C128.317 375.647 129.335 376.428 130.386 377.164L129.967 377.762ZM184.515 375.323L184.045 374.765C185.016 373.946 185.953 373.086 186.852 372.187L187.395 372.676L187.365 372.707C186.452 373.619 185.501 374.491 184.515 375.323ZM123.98 372.741L123.94 372.701C123.019 371.779 122.137 370.818 121.298 369.821L121.857 369.351C122.683 370.334 123.551 371.28 124.459 372.187L124.496 372.224L123.98 372.741ZM190.037 369.791L189.479 369.322C190.304 368.339 191.085 367.321 191.821 366.271L192.419 366.69C191.671 367.758 190.876 368.792 190.037 369.791ZM118.912 366.719C118.162 365.651 117.459 364.55 116.806 363.42L117.438 363.055C118.081 364.166 118.772 365.249 119.509 366.3L118.912 366.719ZM194.521 363.392L193.888 363.027C194.53 361.915 195.122 360.776 195.663 359.613L196.325 359.921C195.774 361.104 195.173 362.262 194.521 363.392ZM114.998 359.949C114.447 358.766 113.948 357.56 113.502 356.333L114.188 356.084C114.627 357.29 115.117 358.477 115.659 359.641L114.998 359.949ZM197.818 356.307L197.132 356.058C197.569 354.851 197.953 353.626 198.284 352.386L198.989 352.574C198.653 353.835 198.262 355.08 197.818 356.307ZM112.328 352.6C111.992 351.34 111.71 350.065 111.485 348.779L112.204 348.653C112.426 349.917 112.703 351.172 113.034 352.412L112.328 352.6ZM199.831 348.753L199.111 348.627C199.332 347.363 199.498 346.089 199.608 344.811L200.335 344.873C200.223 346.173 200.055 347.468 199.831 348.753ZM110.977 344.9C110.865 343.6 110.808 342.296 110.808 340.992H111.538C111.538 342.27 111.594 343.564 111.705 344.837L110.977 344.9ZM199.773 340.965C199.772 339.682 199.716 338.399 199.604 337.12L200.331 337.057C200.444 338.353 200.503 339.668 200.503 340.965H199.773ZM111.705 337.146L110.977 337.083C111.091 335.783 111.26 334.489 111.485 333.203L112.204 333.33C111.982 334.594 111.816 335.867 111.705 337.146ZM199.103 333.304C198.879 332.04 198.602 330.786 198.27 329.545L198.976 329.357C199.312 330.618 199.594 331.892 199.821 333.177L199.103 333.304ZM113.034 329.572L112.328 329.384C112.665 328.124 113.056 326.878 113.501 325.652L114.188 325.901C113.749 327.107 113.364 328.332 113.034 329.572ZM197.114 325.875C196.675 324.668 196.183 323.482 195.64 322.318L196.301 322.009C196.853 323.192 197.353 324.398 197.8 325.624L197.114 325.875ZM115.658 322.346L114.997 322.037C115.548 320.855 116.151 319.697 116.803 318.568L117.436 318.933C116.794 320.044 116.201 321.183 115.658 322.346ZM193.86 318.906C193.216 317.795 192.524 316.713 191.786 315.662L192.384 315.242C193.134 316.31 193.837 317.411 194.491 318.54L193.86 318.906ZM119.504 315.691L118.907 315.272C119.656 314.205 120.451 313.171 121.29 312.172L121.849 312.642C121.023 313.624 120.241 314.641 119.504 315.691ZM189.437 312.611C188.615 311.636 187.753 310.697 186.851 309.795L187.091 309.519L187.362 309.274C188.28 310.192 189.159 311.148 189.996 312.141L189.437 312.611ZM124.46 309.795L123.924 309.298L123.964 309.26C124.876 308.347 125.827 307.474 126.815 306.643L127.285 307.202C126.307 308.026 125.364 308.891 124.46 309.795ZM183.995 307.176C183.013 306.351 181.996 305.569 180.946 304.833L181.365 304.235C182.432 304.984 183.467 305.779 184.465 306.618L183.995 307.176ZM130.337 304.852L129.917 304.255C130.985 303.505 132.085 302.802 133.215 302.148L133.581 302.78C132.469 303.423 131.387 304.114 130.337 304.852ZM177.702 302.765C176.591 302.123 175.452 301.531 174.289 300.989L174.598 300.327C175.78 300.879 176.938 301.481 178.067 302.133L177.702 302.765ZM136.994 301.001L136.686 300.34C137.868 299.789 139.075 299.289 140.301 298.843L140.551 299.529C139.344 299.968 138.158 300.459 136.994 301.001ZM170.733 299.519C169.527 299.082 168.302 298.697 167.062 298.366L167.25 297.661C168.511 297.997 169.756 298.388 170.982 298.833L170.733 299.519ZM144.222 298.373L144.034 297.668C145.294 297.332 146.569 297.05 147.854 296.824L147.981 297.543C146.716 297.765 145.462 298.042 144.222 298.373ZM163.304 297.538C162.04 297.317 160.766 297.151 159.487 297.04L159.551 296.313C160.844 296.425 162.149 296.596 163.43 296.82L163.304 297.538ZM151.797 297.041L151.733 296.314C153.033 296.201 154.337 296.144 155.642 296.144V296.874C154.359 296.874 153.076 296.93 151.797 297.041Z" fill="#E2DCE3"/>
<path d="M271.873 129.201L285.012 122.226L291.986 135.366L278.848 142.34L271.873 129.201Z" fill="white"/>
<path d="M284.996 122.227L271.858 129.201L276.001 120.769L288.505 114.133L284.996 122.227Z" fill="#E3DDE4"/>
<path d="M284.996 122.226L288.504 114.133L295.195 126.737L291.971 135.364L284.996 122.226Z" fill="#6A74EF"/>
<path d="M282.349 133.658C282.304 133.658 282.26 133.645 282.221 133.622C282.183 133.598 282.152 133.564 282.131 133.524L275.784 120.878C275.758 120.821 275.756 120.756 275.777 120.697C275.798 120.638 275.841 120.59 275.897 120.562C275.953 120.534 276.018 120.528 276.078 120.547C276.138 120.565 276.188 120.606 276.219 120.66L282.456 133.086L295.083 126.522C295.111 126.506 295.143 126.496 295.175 126.493C295.207 126.489 295.24 126.492 295.271 126.502C295.302 126.511 295.331 126.526 295.356 126.547C295.381 126.568 295.402 126.594 295.417 126.622C295.432 126.651 295.441 126.683 295.443 126.715C295.446 126.748 295.442 126.78 295.432 126.811C295.422 126.842 295.405 126.87 295.384 126.895C295.362 126.919 295.336 126.939 295.307 126.953L282.461 133.631C282.426 133.649 282.388 133.658 282.349 133.658Z" fill="#B5A8AE"/>
<path d="M278.834 142.582C278.795 142.582 278.755 142.573 278.72 142.554C278.685 142.536 278.655 142.509 278.633 142.476C278.611 142.443 278.597 142.405 278.592 142.366C278.588 142.327 278.593 142.287 278.608 142.25L282.123 133.326C282.135 133.296 282.152 133.269 282.174 133.246C282.197 133.223 282.223 133.205 282.252 133.192C282.282 133.179 282.313 133.172 282.345 133.172C282.377 133.171 282.409 133.177 282.438 133.189C282.468 133.2 282.495 133.218 282.518 133.24C282.541 133.262 282.559 133.289 282.572 133.318C282.585 133.347 282.592 133.379 282.592 133.411C282.593 133.443 282.587 133.474 282.575 133.504L279.06 142.428C279.042 142.473 279.011 142.512 278.971 142.54C278.931 142.567 278.883 142.582 278.834 142.582Z" fill="#B5A8AE"/>
<path d="M278.834 142.582C278.79 142.582 278.747 142.57 278.709 142.547C278.671 142.525 278.64 142.492 278.62 142.453L271.644 129.315C271.613 129.258 271.607 129.191 271.626 129.13C271.645 129.068 271.687 129.016 271.744 128.986L284.882 122.012C284.911 121.997 284.942 121.987 284.973 121.984C285.005 121.981 285.037 121.984 285.068 121.994C285.099 122.003 285.127 122.018 285.152 122.039C285.176 122.059 285.197 122.084 285.211 122.112L292.187 135.25C292.217 135.307 292.223 135.374 292.205 135.435C292.186 135.497 292.143 135.549 292.086 135.579L278.949 142.553C278.913 142.572 278.874 142.582 278.834 142.582ZM272.187 129.302L278.935 142.01L291.643 135.264L284.896 122.556L272.187 129.302Z" fill="#B5A8AE"/>
<path d="M271.858 129.445C271.817 129.444 271.777 129.434 271.741 129.414C271.705 129.393 271.674 129.365 271.652 129.33C271.63 129.294 271.618 129.255 271.616 129.213C271.613 129.172 271.622 129.131 271.639 129.094L275.783 120.661C275.806 120.616 275.842 120.578 275.888 120.554L288.39 113.918C288.435 113.894 288.486 113.885 288.536 113.891C288.586 113.898 288.633 113.92 288.67 113.954C288.707 113.988 288.732 114.033 288.743 114.082C288.753 114.132 288.748 114.183 288.728 114.23L285.219 122.323C285.197 122.374 285.159 122.416 285.11 122.442L271.972 129.416C271.937 129.435 271.898 129.445 271.858 129.445ZM276.185 120.947L272.408 128.633L284.807 122.052L288.005 114.673L276.185 120.947Z" fill="#F2D265"/>
<path d="M291.972 135.608C291.928 135.608 291.884 135.595 291.847 135.573C291.809 135.55 291.778 135.517 291.757 135.478L284.782 122.34C284.765 122.308 284.755 122.272 284.754 122.236C284.752 122.199 284.759 122.163 284.773 122.129L288.282 114.036C288.3 113.994 288.329 113.958 288.367 113.932C288.405 113.906 288.449 113.891 288.495 113.89C288.589 113.878 288.675 113.936 288.72 114.019L295.41 126.623C295.426 126.653 295.436 126.687 295.438 126.721C295.44 126.755 295.435 126.79 295.423 126.822L292.2 135.449C292.183 135.493 292.154 135.532 292.117 135.56C292.079 135.588 292.034 135.604 291.987 135.607L291.972 135.608ZM285.267 122.215L291.933 134.772L294.929 126.754L288.527 114.694L285.267 122.215Z" fill="#F2D265"/>
<path d="M123.178 346.22L122.708 333.823L111.499 336.224L111.853 349.317L123.178 346.22Z" fill="#5C60D5"/>
<path d="M111.499 336.223L111.853 349.317L102.612 345.265L102.902 333.371L111.499 336.223Z" fill="white"/>
<path d="M122.708 333.823L113.734 331.001L102.902 333.371L111.499 336.223L122.708 333.823Z" fill="#E3DDE4"/>
<path d="M123.178 346.464C123.151 346.463 123.124 346.459 123.098 346.45L114.178 343.358C114.132 343.342 114.092 343.312 114.063 343.273C114.033 343.234 114.017 343.187 114.015 343.138L113.49 331.012C113.487 330.948 113.51 330.885 113.554 330.837C113.597 330.79 113.658 330.762 113.723 330.759C113.862 330.764 113.97 330.857 113.976 330.992L114.493 342.952L123.257 345.991C123.318 346.012 123.368 346.057 123.397 346.115C123.425 346.173 123.429 346.24 123.408 346.301C123.391 346.349 123.36 346.39 123.319 346.419C123.278 346.448 123.228 346.464 123.178 346.464Z" fill="#B5A8AE"/>
<path d="M102.611 345.508C102.55 345.508 102.492 345.485 102.447 345.444C102.402 345.404 102.374 345.347 102.368 345.287C102.363 345.226 102.38 345.166 102.417 345.117C102.454 345.069 102.507 345.036 102.567 345.025L114.214 342.887C114.277 342.876 114.343 342.89 114.396 342.926C114.449 342.963 114.485 343.019 114.497 343.083C114.509 343.146 114.495 343.212 114.458 343.265C114.421 343.318 114.365 343.354 114.302 343.366L102.655 345.504C102.641 345.507 102.626 345.508 102.611 345.508Z" fill="#B5A8AE"/>
<path d="M111.853 349.56C111.819 349.56 111.786 349.553 111.755 349.54L102.513 345.488C102.469 345.468 102.432 345.436 102.406 345.395C102.38 345.355 102.367 345.307 102.368 345.259L102.658 333.365C102.659 333.327 102.669 333.29 102.687 333.256C102.705 333.223 102.731 333.194 102.762 333.172C102.793 333.15 102.829 333.136 102.866 333.13C102.904 333.125 102.942 333.128 102.978 333.14L111.575 335.993C111.622 336.008 111.664 336.038 111.694 336.079C111.723 336.119 111.74 336.167 111.741 336.217L112.094 349.243C112.102 349.267 112.106 349.292 112.106 349.318C112.106 349.453 111.995 349.554 111.858 349.561L111.853 349.56ZM102.858 345.107L111.599 348.94L111.26 336.4L103.137 333.705L102.858 345.107Z" fill="#B5A8AE"/>
<path d="M111.499 336.467C111.473 336.467 111.447 336.462 111.422 336.455L102.825 333.601C102.775 333.584 102.732 333.551 102.702 333.507C102.672 333.463 102.658 333.411 102.66 333.358C102.663 333.304 102.683 333.254 102.718 333.213C102.752 333.173 102.798 333.144 102.85 333.133L113.682 330.763C113.723 330.754 113.767 330.756 113.807 330.769L122.781 333.591C122.833 333.607 122.877 333.64 122.908 333.684C122.939 333.728 122.954 333.781 122.951 333.835C122.949 333.888 122.929 333.94 122.894 333.981C122.859 334.022 122.812 334.05 122.759 334.061L111.55 336.462C111.533 336.465 111.516 336.467 111.499 336.467ZM103.82 333.419L111.513 335.971L121.755 333.778L113.723 331.253L103.82 333.419Z" fill="#F2D265"/>
<path d="M111.853 349.561C111.79 349.561 111.728 349.536 111.683 349.492C111.637 349.447 111.611 349.387 111.61 349.324L111.255 336.23C111.254 336.173 111.272 336.117 111.307 336.073C111.342 336.028 111.392 335.997 111.448 335.985L122.657 333.584C122.692 333.577 122.728 333.577 122.762 333.585C122.797 333.593 122.829 333.608 122.857 333.63C122.885 333.652 122.908 333.68 122.925 333.711C122.941 333.743 122.95 333.778 122.951 333.813L123.421 346.211C123.423 346.266 123.406 346.32 123.374 346.364C123.341 346.408 123.295 346.44 123.242 346.455L111.917 349.552C111.896 349.558 111.875 349.561 111.853 349.561ZM111.747 336.419L112.088 349.001L122.928 346.036L122.476 334.121L111.747 336.419Z" fill="#F2D265"/>
<path d="M102.336 142.245C100.189 142.245 98.4424 140.499 98.4424 138.352C98.4424 136.205 100.189 134.459 102.336 134.459C104.482 134.459 106.229 136.205 106.229 138.352C106.229 140.499 104.482 142.245 102.336 142.245ZM102.336 135.432C100.725 135.432 99.4157 136.742 99.4157 138.352C99.4157 139.962 100.725 141.272 102.336 141.272C103.946 141.272 105.256 139.962 105.256 138.352C105.256 136.742 103.946 135.432 102.336 135.432Z" fill="#92A6EB"/>
<path d="M99.7398 169.823C96.43 169.823 93.7378 167.131 93.7378 163.821C93.7378 160.512 96.4305 157.819 99.7398 157.819C103.049 157.819 105.742 160.512 105.742 163.821C105.742 167.131 103.05 169.823 99.7398 169.823ZM99.7398 158.792C96.9668 158.792 94.7111 161.048 94.7111 163.821C94.7111 166.593 96.9673 168.85 99.7398 168.85C102.512 168.85 104.769 166.593 104.769 163.821C104.769 161.048 102.513 158.792 99.7398 158.792Z" fill="#EA971D"/>
<path d="M72.3246 175.258C67.7626 175.258 64.0513 171.547 64.0513 166.985C64.0513 162.423 67.7626 158.711 72.3246 158.711C76.8866 158.711 80.5979 162.423 80.5979 166.985C80.5979 171.547 76.8866 175.258 72.3246 175.258ZM72.3246 159.685C68.2994 159.685 65.0246 162.96 65.0246 166.985C65.0246 171.01 68.2994 174.285 72.3246 174.285C76.3498 174.285 79.6246 171.01 79.6246 166.985C79.6246 162.96 76.3498 159.685 72.3246 159.685Z" fill="#F2D265"/>
<path d="M83.923 211.19C78.1088 211.19 73.3784 206.46 73.3784 200.645C73.3784 194.831 78.1088 190.101 83.923 190.101C89.7372 190.101 94.4676 194.831 94.4676 200.645C94.4676 206.46 89.7372 211.19 83.923 211.19ZM83.923 191.075C78.6456 191.075 74.3518 195.368 74.3518 200.646C74.3518 205.924 78.6451 210.217 83.923 210.217C89.2009 210.217 93.4943 205.924 93.4943 200.646C93.4943 195.368 89.2004 191.075 83.923 191.075Z" fill="#6A74EF"/>
<path d="M114.543 270.442C123.263 278.512 134.927 273.441 140.62 275.511C145.973 277.458 145.881 288.237 157.899 289.01C169.254 289.74 173.807 278.987 180.537 278.966C195.938 278.917 194.154 276.038 208.51 275.186C222.867 274.334 235.601 278.268 250.688 274.456C263.591 271.196 268.407 261.882 271.452 260.586C275.264 258.964 280.537 260.262 287.35 257.342C291.595 255.523 294.93 252.708 295.192 246.933C292.231 236.148 274.044 247.45 268.695 252.434C263.341 257.423 247.403 269.224 245.456 263.384C243.51 257.544 259.205 254.746 257.136 249.149C255.068 243.553 240.103 249.149 230.735 254.381C221.366 259.613 204.698 273.118 187.543 273.604C173.895 273.992 162.48 260.829 157.005 256.206C151.53 251.583 143.044 247.613 140.64 251.218C139.059 253.59 141.838 255.491 146.663 260.829C151.422 266.094 144.919 269.184 137.903 266.304C133.062 264.317 122.857 255.882 116.246 257.788C110.772 259.366 111.367 265.579 111.841 266.745C112.493 268.141 113.411 269.397 114.543 270.442Z" fill="url(#paint3_linear_52_885)"/>
<path d="M230.816 235.604C230.816 235.604 224.043 236.862 217.959 238.078C211.876 239.295 208.834 244.527 208.834 244.527C208.834 244.527 209.564 262.655 209.321 264.602C209.078 266.548 203.713 270.293 193.099 275.105C182.155 280.067 175.741 291.003 169.536 303.048C164.47 312.883 160.312 318.292 158.583 319.071C156.792 321.39 155.149 331.792 156.274 333.708C156.93 334.825 160.666 333.706 162.857 336.45C163.837 332.127 165.257 328.551 167.954 324.462C172.902 316.959 193.342 303.251 204.211 294.167C215.08 285.083 227.896 277.62 231.464 270.482C235.715 261.979 231.789 241.607 230.816 235.604Z" fill="url(#paint4_radial_52_885)"/>
<path d="M156.274 333.708C155.149 331.792 156.792 321.389 158.583 319.071C158.477 319.123 158.362 319.156 158.244 319.17C155.872 319.352 153.111 318.013 151.211 318.718C146.633 320.416 147.638 336.305 149.644 344.902C150.822 349.949 153.255 355.995 157.177 354.976C160.594 354.088 161.222 346.208 161.871 341.86C162.165 339.895 162.48 338.119 162.857 336.45C160.666 333.706 156.93 334.825 156.274 333.708Z" fill="url(#paint5_linear_52_885)"/>
<path d="M151.211 318.718C146.633 320.415 147.637 336.305 149.643 344.902C150.821 349.949 153.254 355.995 157.177 354.976C158.004 354.761 158.666 354.134 159.206 353.248C156.677 353.289 154.195 350.462 152.624 343.198C150.818 334.843 150.86 322.15 154.671 318.771C153.202 318.439 152.119 318.381 151.211 318.718Z" fill="url(#paint6_linear_52_885)"/>
<path d="M183.457 281.93C177.879 287.528 173.66 295.042 169.536 303.048C164.47 312.883 160.312 318.292 158.583 319.071C156.792 321.39 155.149 331.792 156.274 333.708C156.93 334.825 160.666 333.706 162.857 336.45C163.837 332.127 165.257 328.552 167.954 324.462C171.689 318.798 184.248 309.601 194.857 301.525C182.708 298.906 182.676 285.168 183.457 281.93Z" fill="url(#paint7_linear_52_885)"/>
<path d="M239.727 344.829C239.457 344.931 239.214 344.971 239.007 344.943C238.422 344.862 228.567 321.323 224.833 309.801C219.845 294.41 215.896 278.512 213.755 273.175C211.146 266.67 209.239 259.938 208.023 257.018C208.023 257.018 201.169 253.043 194.234 253.773C187.299 254.503 183.406 261.682 183.892 263.628C184.379 265.575 187.421 271.78 189.246 276.403C191.071 281.027 190.513 291.481 199.101 307.063C206.969 321.339 220.677 335.209 227.733 348.349C229.073 350.84 230.354 353.363 231.573 355.915C232.155 348.801 238.12 345.526 239.727 344.829Z" fill="url(#paint8_radial_52_885)"/>
<path d="M243.867 371.833C248.923 371.486 251.499 363.923 252.959 359.461C254.419 355 257.339 348.755 259.285 342.671C261.232 336.588 260.786 328.72 255.96 328.477C250.123 328.183 245.537 337.582 243.753 340.583C242.324 342.984 240.806 344.422 239.727 344.829C238.119 345.526 232.154 348.801 231.573 355.915C232.988 358.871 233.968 361.062 235.479 363.76C238.2 368.616 240.169 372.086 243.867 371.833Z" fill="url(#paint9_linear_52_885)"/>
<path d="M243.867 371.833C248.923 371.486 251.499 363.922 252.959 359.461C254.419 355 257.339 348.754 259.286 342.671C260.869 337.725 260.869 331.599 258.22 329.351C256.227 328.501 251.986 329.368 250.12 336.587C248.254 343.807 248.784 345.876 247.93 348.754C246.186 354.635 242.171 360.272 241.117 363.273C240.063 366.271 238.939 370.684 242.612 371.765C243.009 371.837 243.426 371.863 243.867 371.833Z" fill="url(#paint10_linear_52_885)"/>
<path d="M243.222 371.837C243.018 371.826 242.814 371.802 242.613 371.765C238.94 370.684 240.063 366.272 241.117 363.274C242.172 360.273 246.186 354.636 247.93 348.755C248.784 345.877 248.255 343.807 250.12 336.588C251.986 329.369 256.228 328.502 258.22 329.352C258.37 329.479 258.51 329.623 258.642 329.774C257.968 329.009 257.085 328.534 255.96 328.478C252.701 328.314 249.832 331.172 247.622 334.251C245.664 337.273 245.125 343.394 243.692 347.822C242.298 352.132 236.849 358.189 236.521 365.601C238.595 369.197 240.393 371.688 243.222 371.837Z" fill="url(#paint11_linear_52_885)"/>
<path d="M239.727 344.829C239.457 344.931 239.214 344.971 239.007 344.943C238.422 344.862 228.567 321.323 224.833 309.801C223.597 305.987 222.425 302.143 221.328 298.435C209.324 295.982 202.175 304.539 199.883 308.447C207.849 322.236 220.905 335.634 227.733 348.349C229.074 350.84 230.354 353.363 231.574 355.915C232.155 348.801 238.12 345.526 239.727 344.829Z" fill="url(#paint12_linear_52_885)"/>
<path d="M151.969 252.671C147.304 249.968 142.379 248.609 140.641 251.218C139.059 253.591 141.838 255.492 146.663 260.83C148.257 262.594 148.583 264.111 148.054 265.244C148.824 263.778 150.359 259.211 151.969 252.671ZM245.456 263.385C243.51 257.545 259.205 254.747 257.136 249.15C255.637 245.094 247.364 246.918 239.357 250.221C240.848 254.805 244.09 261.512 245.678 263.878C245.587 263.722 245.513 263.557 245.456 263.385Z" fill="#E1792B"/>
<path d="M116.246 257.788C122.856 255.882 133.061 264.318 137.903 266.305C144.919 269.185 151.422 266.095 146.663 260.83C141.837 255.492 139.058 253.591 140.64 251.218C143.043 247.614 151.529 251.583 157.004 256.207C162.479 260.83 173.895 273.992 187.543 273.605C204.698 273.118 221.366 259.613 230.734 254.382C240.103 249.15 255.068 243.553 257.136 249.15C259.204 254.747 243.509 257.545 245.456 263.385C247.403 269.225 263.341 257.423 268.694 252.435C274.043 247.451 292.231 236.149 295.192 246.933C295.201 246.726 295.216 246.525 295.218 246.311C295.305 232.843 251.661 210.703 243.144 204.296C234.658 197.911 232.304 193.523 226.516 189.209C217.594 182.558 212.079 182.477 209.929 182.355C209.929 182.355 197.154 183.694 191.801 184.545C186.448 185.397 170.389 188.247 170.389 188.247C170.389 188.247 164.854 190.583 160.533 194.035C156.326 197.396 148.219 204.118 143.864 215.205C135.916 235.443 123.749 236.254 115.151 248.299C110.702 254.532 109.392 261.521 111.841 266.746C111.366 265.579 110.772 259.367 116.246 257.788Z" fill="url(#paint13_linear_52_885)"/>
<path d="M173.986 190.985C174.135 191.786 174.295 192.584 174.499 193.366C175.312 196.495 176.588 199.442 178.217 202.184C179.86 204.945 181.857 207.479 184.157 209.721C186.503 212.018 189.16 213.974 192.049 215.533C194.968 217.108 198.17 218.273 201.486 218.853C204.797 219.437 208.207 219.429 211.414 218.804C214.625 218.185 217.613 216.964 220.217 215.346C221.967 214.244 223.559 212.978 224.954 211.543C224.173 210.843 223.397 210.136 222.627 209.424C221.172 209.583 219.764 209.694 218.39 209.719C215.808 209.786 213.381 209.571 211.139 209.107C206.65 208.175 202.891 206.236 199.473 203.619C196.072 200.988 193.01 197.722 190.188 194.152C188.773 192.353 187.436 190.494 186.181 188.581C185.575 187.663 184.992 186.732 184.43 185.787C180.624 186.444 176.443 187.178 173.642 187.672C173.653 187.961 173.663 188.25 173.684 188.536C173.744 189.364 173.857 190.177 173.986 190.985Z" fill="url(#paint14_linear_52_885)"/>
<path d="M134.879 258.864C135.041 257.262 135.312 255.622 135.655 253.973C135.828 253.147 136.015 252.323 136.215 251.503C136.405 250.74 136.677 249.577 136.848 248.492C137.21 246.291 137.366 243.927 137.121 241.441C136.884 238.964 136.189 236.356 135.024 233.981C134.587 233.091 134.091 232.231 133.538 231.408C130.077 234.854 126.46 237.355 123.011 240.176C123.089 240.276 123.173 240.374 123.246 240.476C123.857 241.309 124.325 242.238 124.641 243.384C124.957 244.522 125.113 245.854 125.101 247.298C125.1 248.038 125.055 248.683 124.958 249.73C124.874 250.72 124.813 251.713 124.774 252.706C124.693 254.699 124.69 256.719 124.821 258.783C124.829 258.914 124.844 259.047 124.853 259.178C128.426 260.746 132.033 263.089 134.896 264.747C134.832 264.328 134.785 263.907 134.755 263.484C134.659 262.03 134.72 260.465 134.879 258.864Z" fill="url(#paint15_linear_52_885)"/>
<path d="M184.696 262.415C185.118 261.354 185.489 260.272 185.806 259.175C186.46 256.96 186.852 254.613 186.991 252.204C187.114 249.755 186.926 247.301 186.431 244.899C185.915 242.492 185.092 240.161 183.984 237.962C182.867 235.789 181.461 233.693 179.762 231.85C178.059 230.016 176.117 228.402 174.018 227.143C171.974 225.901 169.779 224.926 167.487 224.242C165.259 223.561 163.009 223.177 160.793 223.004C157.512 222.768 154.296 222.995 151.177 223.66C149.903 228.059 148.033 232.489 146.199 236.54L146.202 236.539C147.506 236.229 148.934 236.022 150.375 235.934C153.263 235.753 156.218 235.995 158.88 236.661C160.165 236.973 161.418 237.403 162.624 237.946C163.77 238.481 164.814 239.087 165.719 239.787C166.619 240.493 167.416 241.243 168.077 242.105C168.763 242.971 169.338 243.92 169.788 244.929C170.267 245.978 170.626 247.041 170.831 248.136C171.064 249.226 171.151 250.355 171.12 251.528C171.079 253.871 170.48 256.408 169.471 258.96C168.697 260.899 167.668 262.836 166.465 264.666C170.065 267.597 174.27 270.457 178.893 272.126C180.588 270.066 182.063 267.833 183.293 265.465C183.804 264.469 184.272 263.452 184.696 262.415Z" fill="url(#paint16_linear_52_885)"/>
<path d="M278.919 235.119C277.028 233.297 274.841 231.729 272.474 230.545C270.108 229.355 267.577 228.548 265.033 228.119C259.926 227.264 254.839 227.828 250.153 229.446C248.618 229.978 247.129 230.637 245.702 231.415C248.061 234.018 250.133 236.529 251.864 238.936C252.262 238.797 252.665 238.67 253.071 238.556C256.376 237.626 259.919 237.492 263.066 238.235C266.23 238.97 268.959 240.574 271.079 242.895C272.435 244.369 273.551 246.14 274.446 248.104C277.595 246.08 281.351 244.114 284.819 243.111C284.476 242.451 284.113 241.803 283.728 241.167C282.411 239.004 280.811 236.942 278.919 235.119Z" fill="url(#paint17_linear_52_885)"/>
<path d="M215.593 186.821C216.045 188.928 216.245 191.017 216.108 193.024C215.972 195.033 215.496 196.957 214.619 198.76C214.391 199.23 214.137 199.687 213.86 200.129C215.459 202.109 217.371 204.247 219.654 206.542C220.592 205.641 221.455 204.663 222.232 203.619C224.159 201.044 225.55 198.018 226.348 194.919C226.795 193.203 227.068 191.472 227.214 189.75C226.984 189.566 226.751 189.386 226.516 189.21C221.402 185.398 217.409 183.746 214.526 183.006C214.598 183.218 214.67 183.431 214.738 183.645C215.076 184.688 215.362 185.748 215.593 186.821Z" fill="url(#paint18_linear_52_885)"/>
<path d="M215.44 256.003C215.212 255.59 215.012 255.162 214.843 254.722L214.783 254.571L214.742 254.477L214.718 254.43C214.709 254.405 214.692 254.336 214.68 254.291L214.596 253.985L214.575 253.909L214.57 253.89C214.619 254.128 214.582 253.948 214.592 253.999L214.585 253.973L214.557 253.87L214.501 253.664L214.4 253.254C214.144 252.165 214.013 251.108 214.013 250.072C214.004 248.007 214.497 245.962 215.621 243.858C216.734 241.763 218.456 239.676 220.552 237.749C222.646 235.818 225.103 234.031 227.717 232.404L228.739 231.782C229.171 231.528 229.599 231.266 230.021 230.996C230.883 230.446 231.719 229.857 232.527 229.231C234.163 227.962 235.728 226.488 237.096 224.769C237.419 224.365 237.727 223.95 238.022 223.525C235.531 221.11 232.875 218.639 230.091 216.122C229.71 216.629 229.29 217.105 228.834 217.546C227.985 218.365 226.982 219.112 225.867 219.783C225.296 220.125 224.71 220.442 224.111 220.731L221.967 221.722C218.655 223.297 215.386 225.117 212.225 227.41C209.081 229.703 206.018 232.49 203.484 236.074C202.223 237.862 201.108 239.849 200.253 241.997C199.383 244.167 198.799 246.441 198.514 248.761C198.225 251.083 198.239 253.416 198.489 255.657L198.592 256.494L198.653 256.909L198.683 257.117L198.691 257.169L198.723 257.336L198.735 257.414L198.786 257.726L198.815 257.895L198.868 258.154L198.979 258.673L199.087 259.131C199.371 260.314 199.736 261.476 200.178 262.61C201.056 264.863 202.212 266.948 203.525 268.833C203.717 269.107 203.918 269.368 204.115 269.633C209.888 267.208 215.311 264.017 220.066 261.032C219.951 260.946 219.833 260.863 219.721 260.776C217.825 259.313 216.353 257.678 215.44 256.003Z" fill="url(#paint19_linear_52_885)"/>
<path d="M140.273 252C140.184 251.248 140.316 250.487 140.48 249.752C140.654 249.014 140.886 248.294 141.134 247.58C141.634 246.154 142.21 244.758 142.796 243.369L146.429 235.102C147.607 232.339 148.754 229.564 149.712 226.728C150.192 225.312 150.644 223.887 151.021 222.444C151.391 221.011 151.717 219.515 152.123 218.061C153.73 212.231 155.943 206.521 159.108 201.336C160.686 198.746 162.508 196.3 164.592 194.099C166.686 191.912 169.024 189.952 171.608 188.399C166.648 191.847 162.748 196.561 159.761 201.724C158.273 204.318 156.977 207.018 155.884 209.801C154.778 212.58 153.843 215.428 153.061 218.317C152.651 219.762 152.329 221.208 151.939 222.688C151.543 224.153 151.09 225.601 150.58 227.03C149.559 229.883 148.386 232.671 147.12 235.409C145.866 238.153 144.522 240.85 143.228 243.564C142.578 244.92 141.938 246.28 141.374 247.671C141.093 248.367 140.832 249.07 140.621 249.789C140.413 250.506 140.233 251.245 140.273 252ZM205.533 183.879C206.23 187.356 207.704 190.61 209.559 193.594C211.393 196.598 213.574 199.379 215.918 202.002C218.277 204.62 220.76 207.122 223.36 209.5C224.655 210.694 225.99 211.844 227.32 213.017L231.286 216.55C233.897 218.942 236.476 221.372 239 223.86C241.518 226.354 244.009 228.881 246.337 231.56C248.671 234.231 250.909 236.998 252.876 239.959C253.846 241.448 254.746 242.985 255.515 244.586C256.283 246.185 256.914 247.861 257.263 249.598C256.334 246.173 254.513 243.093 252.482 240.228C250.454 237.348 248.168 234.655 245.781 232.06C241 226.874 235.879 222 230.632 217.27L226.704 213.711C225.391 212.533 224.055 211.364 222.76 210.15C220.17 207.725 217.652 205.21 215.358 202.493C213.059 199.785 210.921 196.925 209.15 193.836C207.415 190.742 206.013 187.398 205.533 183.879Z" fill="#EA971D"/>
<path d="M244.848 148.167C245.578 145.247 231.708 137.095 225.138 134.905C221.988 133.855 216.684 131.715 210.904 129.771C208.342 131.964 204.107 137.234 204.002 146.297C209.144 147.808 220.06 150.948 229.64 152.06C240.65 153.337 244.118 151.087 244.848 148.167Z" fill="url(#paint20_linear_52_885)"/>
<path d="M210.904 129.771C204.627 127.66 197.788 125.78 192.531 125.78C192.531 125.78 189.672 127.362 188.942 131.985C187.494 141.154 198.614 144.76 201.656 145.612C202.165 145.754 202.97 145.994 204.002 146.297C204.106 137.235 208.341 131.965 210.904 129.771Z" fill="url(#paint21_linear_52_885)"/>
<path d="M148.818 133.4C150.623 132.791 153.517 131.418 166.616 130.323C179.716 129.228 182.96 126.997 182.96 126.997C182.96 126.997 188.588 125.625 192.683 125.782C192.44 129.613 193.383 131.925 195.269 134.966C198.625 140.38 208.154 145.666 209.521 151.56C210.781 156.988 207.192 161.794 207.07 163.558C206.889 166.193 210.416 181.747 209.93 182.356C209.443 182.964 185.476 190.437 170.389 188.247C170.389 188.247 163.169 160.658 156.356 151.655C149.543 142.651 148.818 133.4 148.818 133.4Z" fill="url(#paint22_linear_52_885)"/>
<path d="M185.056 80.9775C188.101 76.686 187.624 70.609 185.312 69.1646C182.716 67.5425 181.175 70.2187 179.391 69.57C177.606 68.9213 176.349 66.5254 171.685 66.4879C166.656 66.4475 164.872 69.57 161.141 69.4892C157.409 69.4084 151.828 65.3866 143.053 66.4879C133.036 67.745 125.31 77.7217 117.827 81.4933C109.179 85.8529 100.169 83.64 95.3593 86.6846C89.7223 90.2533 91.3443 94.1841 88.0189 97.0667C84.3689 100.23 69.4039 104.549 73.434 116.652C76.9954 127.347 92.7834 128.038 101.93 125.05C109.007 122.738 121.66 114.587 124.803 115.722C128.25 116.967 123.471 123.33 127.865 124.685C135.165 126.936 142.1 117.385 146.216 116.452C149.461 115.717 155.788 119.047 160.654 114.181C165.521 109.314 169.09 106.07 172.578 106.475C176.066 106.881 180.812 105.392 181.429 102.42C182.046 99.4479 181.49 97.4618 183.69 94.9579C185.347 93.0721 189.09 90.7741 189.044 87.3333C189.003 84.3525 185.049 84.8392 184.826 82.4667C184.792 82.1056 184.826 81.7284 184.893 81.3459L185.056 80.9775Z" fill="url(#paint23_linear_52_885)"/>
<path d="M173.794 108.26C175.254 112.315 180.364 123.509 182.96 126.997C181.642 129.978 179.511 131.985 175.254 133.161C170.266 134.54 164.142 133.648 163.412 132.269C163.088 130.85 163.818 129.309 162.034 124.645C160.759 121.314 158.711 113.956 155.303 107.295C151.894 100.635 173.794 108.26 173.794 108.26Z" fill="url(#paint24_linear_52_885)"/>
<path d="M177.657 85.0882C174.711 85.4104 172.024 84.8561 171.118 85.1432C168.684 85.9136 168.948 89.495 165.959 89.7729C162.471 90.0975 158.058 87.779 156.031 90.4966C154.941 91.9575 155.382 94.0653 156.518 96.742C157.653 99.4186 156.312 102.436 153.62 103.424C153.343 103.524 153.061 103.611 152.775 103.684C152.837 103.783 152.895 103.885 152.958 103.982C152.238 104.728 151.835 105.725 151.836 106.762C151.836 107.827 152.259 108.848 153.012 109.601C153.765 110.354 154.786 110.777 155.851 110.777C156.548 110.777 157.233 110.595 157.838 110.248C164.264 117.055 172.104 120.432 178.337 117.344C187.178 112.964 182.555 93.092 177.811 85.3257C177.76 85.244 177.708 85.1685 177.657 85.0882Z" fill="url(#paint25_linear_52_885)"/>
<path d="M73.6606 117.276C74.3147 116.024 75.3985 115.036 76.5884 114.284C77.7934 113.536 79.142 113.038 80.5265 112.734C81.9345 112.478 83.34 112.429 84.7469 112.349C86.1534 112.281 87.5594 112.234 88.9648 112.188C94.5849 112.027 100.212 111.929 105.788 111.379C107.18 111.237 108.568 111.062 109.937 110.817C111.304 110.566 112.66 110.278 113.915 109.745C116.425 108.68 118.566 106.835 120.586 104.923C122.62 103.007 124.54 100.917 126.89 99.2314C128.065 98.4026 129.375 97.6819 130.833 97.3437C131.196 97.2574 131.565 97.1969 131.938 97.1626L132.477 97.1251C132.662 97.1188 132.85 97.1081 133.031 97.1101C133.761 97.1032 134.492 97.1602 135.211 97.2765C136.652 97.5116 138.037 97.987 139.341 98.5851C140.647 99.1823 141.881 99.8948 143.095 100.602C144.311 101.308 145.513 102.015 146.766 102.567C148.015 103.119 149.33 103.502 150.662 103.51C151.328 103.518 151.992 103.437 152.637 103.27C153.292 103.104 153.912 102.88 154.442 102.525C155.52 101.822 156.274 100.642 156.454 99.3653C156.548 98.7257 156.505 98.0735 156.328 97.4517C156.244 97.1417 156.113 96.8492 155.974 96.5076C155.839 96.1754 155.713 95.8394 155.597 95.5002C155.366 94.8188 155.17 94.1161 155.073 93.3793C154.978 92.6473 154.99 91.857 155.272 91.1143C155.413 90.7478 155.615 90.4082 155.871 90.1103C156.126 89.8075 156.432 89.5518 156.776 89.355C157.463 88.9594 158.24 88.8362 158.971 88.8207C160.446 88.8061 161.831 89.1321 163.209 89.3283C163.898 89.4295 164.585 89.5098 165.266 89.5137C165.612 89.5137 165.936 89.5025 166.268 89.4407C166.578 89.3823 166.876 89.2682 167.145 89.1039C167.689 88.7705 168.092 88.2211 168.452 87.6337C168.817 87.0477 169.15 86.4053 169.651 85.8496C170.143 85.3074 170.859 84.8509 171.637 84.8538C172.368 84.8368 173.063 84.9117 173.765 84.9531C175.162 85.048 176.563 85.087 177.949 84.9244C179.332 84.7648 180.7 84.3973 181.929 83.7326C182.546 83.403 183.122 83.0011 183.643 82.5354C184.161 82.0667 184.602 81.5114 185.057 80.9775C184.62 81.5275 184.202 82.0949 183.694 82.5894C183.182 83.0791 182.614 83.506 182.001 83.861C180.771 84.5716 179.384 84.9813 177.982 85.1804C176.577 85.3828 175.153 85.3794 173.745 85.3206C173.043 85.2972 172.334 85.2422 171.659 85.2763C171.008 85.2899 170.438 85.6773 170.008 86.1674C169.575 86.6706 169.256 87.2886 168.892 87.9013C168.53 88.5087 168.096 89.1467 167.438 89.5677C167.11 89.776 166.746 89.9217 166.365 89.9974C166.006 90.0699 165.625 90.0909 165.268 90.0952C164.542 90.1025 163.828 90.0295 163.125 89.9376C161.722 89.7575 160.337 89.4645 158.991 89.5025C158.324 89.5263 157.67 89.6524 157.136 89.9731C156.871 90.1311 156.635 90.334 156.439 90.5727C156.238 90.8117 156.081 91.0839 155.973 91.3771C155.762 91.9592 155.752 92.6196 155.848 93.2741C155.945 93.9311 156.137 94.5872 156.367 95.2325C156.484 95.5552 156.607 95.8778 156.738 96.1966C156.864 96.5051 157.023 96.8555 157.126 97.2244C157.338 97.9544 157.394 98.7321 157.287 99.4864C157.081 100.999 156.197 102.403 154.92 103.245C154.609 103.454 154.252 103.641 153.909 103.777C153.558 103.916 153.214 104.027 152.854 104.119C152.136 104.308 151.397 104.402 150.655 104.397C149.165 104.395 147.721 103.974 146.403 103.4C145.078 102.824 143.848 102.107 142.63 101.408C140.21 100.005 137.748 98.6577 135.055 98.2367C134.387 98.1249 133.712 98.0697 133.035 98.0717C132.865 98.0688 132.702 98.078 132.535 98.0819L132.023 98.1145C131.695 98.1413 131.369 98.1963 131.047 98.2693C129.754 98.5608 128.544 99.209 127.424 99.9906C125.182 101.577 123.255 103.64 121.192 105.565C119.135 107.488 116.933 109.39 114.23 110.524C112.887 111.081 111.471 111.381 110.074 111.617C108.671 111.846 107.264 112 105.857 112.121C100.227 112.584 94.5951 112.599 88.9736 112.662C87.5676 112.672 86.1626 112.682 84.7591 112.713C83.3599 112.756 81.9437 112.772 80.5762 112.985C79.2096 113.248 77.8703 113.705 76.6629 114.408C75.4657 115.11 74.3571 116.048 73.6606 117.276Z" fill="#EA971D"/>
<path d="M171.929 93.5786C172.755 92.9595 177.931 98.1206 178.377 99.8649C178.813 101.566 175.417 103.19 174.524 103.15C173.922 103.123 174.362 101 173.47 98.6482C172.525 96.1569 171.28 94.0652 171.929 93.5786Z" fill="url(#paint26_linear_52_885)"/>
<path d="M161.716 101.449C161.635 100.815 161.716 100.1 162.029 99.4587C162.351 98.7929 162.901 98.2643 163.58 97.968C163.917 97.8177 164.277 97.7374 164.633 97.6999C164.722 97.6931 164.811 97.6843 164.899 97.6829C164.949 97.6824 164.976 97.679 165.044 97.6804L165.157 97.6829C165.351 97.6931 165.535 97.7174 165.711 97.7597C166.42 97.9267 167.057 98.3622 167.41 98.9574C167.452 99.0274 167.47 99.1091 167.461 99.1901C167.452 99.2711 167.418 99.3471 167.362 99.4068C167.307 99.4664 167.233 99.5065 167.153 99.521C167.073 99.5354 166.99 99.5235 166.918 99.4869L166.896 99.4757C166.398 99.2222 165.938 99.0504 165.465 98.9832C165.352 98.9669 165.238 98.9558 165.124 98.9501L164.931 98.9472C164.869 98.9467 164.808 98.9521 164.747 98.955C164.504 98.973 164.272 99.03 164.053 99.1083C163.616 99.2709 163.242 99.5721 162.969 99.9824C162.694 100.396 162.53 100.898 162.447 101.463C162.434 101.551 162.389 101.632 162.322 101.69C162.254 101.747 162.168 101.779 162.079 101.778C161.99 101.777 161.905 101.744 161.838 101.685C161.772 101.626 161.729 101.545 161.718 101.457L161.716 101.449ZM176.324 95.6038C176.319 95.0875 176.386 94.5302 176.62 93.9939C176.842 93.4615 177.306 92.9267 177.93 92.6979C178.227 92.5856 178.542 92.5302 178.859 92.5344C178.936 92.5349 179.011 92.5378 179.085 92.5441C179.201 92.5534 179.217 92.5573 179.301 92.568C179.479 92.5952 179.618 92.6322 179.77 92.6804C180.363 92.878 180.86 93.3316 181.043 93.8927C181.067 93.9662 181.069 94.0453 181.047 94.1196C181.026 94.194 180.982 94.2601 180.923 94.3094C180.863 94.3586 180.79 94.3887 180.713 94.3957C180.636 94.4028 180.558 94.3864 180.491 94.3487L180.46 94.3312C180.052 94.1029 179.734 93.9219 179.388 93.8012C179.306 93.773 179.223 93.7504 179.139 93.7336C179.041 93.7166 178.942 93.7067 178.842 93.7039C178.664 93.6967 178.486 93.7181 178.315 93.7671C177.997 93.8674 177.724 94.0947 177.512 94.446C177.299 94.795 177.156 95.2213 177.049 95.6856C177.029 95.7737 176.978 95.8516 176.905 95.9042C176.831 95.9568 176.741 95.9804 176.651 95.9707C176.561 95.9609 176.478 95.9184 176.418 95.8512C176.358 95.7841 176.324 95.697 176.324 95.6067V95.6038Z" fill="#BE4118"/>
<path d="M76.6118 104.591C77.6105 104.137 78.6208 103.705 79.6618 103.346C80.7051 102.988 81.7752 102.714 82.8621 102.527C85.0409 102.151 87.2635 102.124 89.4627 102.231C91.6683 102.346 93.8452 102.649 96.0245 102.828C98.2042 103.02 100.387 103.156 102.566 103.159C104.742 103.155 106.919 103.029 109.037 102.635C110.094 102.432 111.135 102.156 112.125 101.767C112.613 101.574 113.118 101.35 113.544 101.091C113.991 100.82 114.413 100.509 114.806 100.164C117.985 97.3368 119.892 93.08 123.733 90.4637C124.692 89.8339 125.777 89.3604 126.919 89.1331C127.484 89.0226 128.059 88.9654 128.636 88.9623C129.207 88.9603 129.778 88.9949 130.345 89.0659C132.596 89.3531 134.715 90.0952 136.768 90.8929C138.824 91.6881 140.824 92.6084 142.878 93.2386C143.898 93.5379 144.96 93.7759 145.942 93.6484C146.429 93.5856 146.881 93.4143 147.247 93.117C147.634 92.7963 147.967 92.4074 148.263 91.9757C149.439 90.2257 149.888 88.0371 150.702 85.9698C151.118 84.9458 151.635 83.8703 152.581 83.1325C153.051 82.7701 153.602 82.5277 154.187 82.4264C154.769 82.331 155.316 82.3232 155.879 82.3373C158.109 82.4176 160.252 82.9408 162.431 82.9938C163.512 83.0157 164.619 82.913 165.605 82.4565C166.598 82.0161 167.381 81.1742 167.872 80.195C167.426 81.1931 166.674 82.0876 165.669 82.5884C164.668 83.096 163.531 83.2367 162.43 83.2517C160.213 83.2698 158.035 82.8167 155.871 82.8142C155.338 82.8176 154.783 82.8361 154.284 82.9315C153.784 83.0273 153.315 83.2442 152.919 83.5632C152.124 84.2032 151.652 85.194 151.275 86.1912C150.518 88.2036 150.131 90.4325 148.885 92.3904C148.571 92.8693 148.195 93.3316 147.743 93.7195C147.264 94.1268 146.654 94.3667 146.058 94.4543C144.849 94.6217 143.715 94.3443 142.64 94.045C140.491 93.4002 138.489 92.4906 136.448 91.7183C134.416 90.943 132.348 90.2422 130.233 89.9887C129.711 89.9269 129.186 89.8981 128.66 89.9025C128.139 89.9076 127.619 89.962 127.108 90.0651C126.097 90.2743 125.137 90.6982 124.267 91.2769C122.507 92.4278 121.103 94.1059 119.752 95.8097C118.393 97.5135 117.104 99.3341 115.384 100.834C114.95 101.21 114.484 101.548 113.99 101.842C113.474 102.147 112.969 102.363 112.438 102.571C111.382 102.978 110.291 103.258 109.192 103.461C106.992 103.866 104.765 103.952 102.557 103.905C100.348 103.858 98.1502 103.675 95.9641 103.437C93.7746 103.21 91.606 102.87 89.4311 102.704C87.2567 102.526 85.0633 102.481 82.901 102.78C80.7368 103.069 78.6432 103.767 76.6118 104.591ZM91.2415 91.1693C92.4922 90.5225 93.8354 90.0096 95.2541 89.8125C96.6717 89.5984 98.1239 89.7483 99.5158 89.9979C100.911 90.2529 102.28 90.5464 103.665 90.6724C105.048 90.8038 106.438 90.8034 107.819 90.6647C109.205 90.5211 110.57 90.305 111.864 89.8534C113.163 89.4134 114.406 88.7963 115.593 88.0839C117.976 86.6608 120.149 84.8831 122.322 83.0911C123.415 82.2005 124.511 81.3031 125.661 80.4563C126.814 79.6188 128.016 78.8036 129.389 78.2459C130.079 77.962 130.807 77.7802 131.55 77.7062C132.282 77.6263 133.019 77.6216 133.752 77.6921C135.216 77.8254 136.619 78.2722 137.934 78.8279C139.252 79.3623 140.505 80.0787 141.793 80.3833C142.438 80.5279 143.056 80.4704 143.573 80.0724C144.107 79.6918 144.561 79.1608 144.991 78.6182C145.857 77.5271 146.623 76.3206 147.607 75.2816C148.099 74.7672 148.656 74.2898 149.315 73.9924C149.973 73.6979 150.712 73.6399 151.408 73.8284C150.717 73.6899 150 73.7948 149.379 74.1253C148.764 74.445 148.251 74.9297 147.798 75.4549C146.892 76.5163 146.199 77.7427 145.373 78.9048C144.954 79.482 144.504 80.0563 143.905 80.5225C143.621 80.7478 143.225 80.9561 142.836 81.0214C142.44 81.0973 142.045 81.0734 141.674 81.0097C140.928 80.8778 140.257 80.6014 139.599 80.3347C138.942 80.0631 138.299 79.7823 137.651 79.5317C136.357 79.0284 135.03 78.6469 133.678 78.5403C132.328 78.4474 130.957 78.5622 129.738 79.0976C128.5 79.6202 127.342 80.395 126.226 81.2204C125.109 82.0511 124.028 82.9476 122.939 83.8421C120.752 85.6194 118.543 87.4283 116.06 88.8742C114.819 89.5916 113.511 90.2169 112.131 90.6593C110.751 91.1216 109.303 91.3114 107.884 91.417C106.456 91.5188 105.013 91.4925 103.594 91.3017C102.174 91.1177 100.79 90.7712 99.4238 90.4617C98.0612 90.1454 96.6761 89.9298 95.2847 90.0661C93.8958 90.1955 92.537 90.6165 91.2415 91.1693Z" fill="#EA971D"/>
<path d="M173.721 109.215C173.992 110.5 175.106 111.352 176.209 111.119C177.312 110.885 177.986 109.655 177.714 108.371C177.443 107.087 176.329 106.234 175.226 106.468C174.123 106.701 173.449 107.931 173.721 109.215Z" fill="#E08C7C"/>
<path d="M175.948 106.852C176.233 106.788 176.611 106.69 176.95 106.603L177.998 106.327L180.097 105.762L184.295 104.599C187.093 103.822 189.885 103.018 192.674 102.205C195.465 101.401 198.252 100.579 201.031 99.7331C203.815 98.9007 206.592 98.0499 209.364 97.1806C209.364 97.1806 215.615 95.2845 217.671 94.5701C221.774 93.1441 226.841 91.0437 229.092 88.8235C231.568 87.9037 231.031 89.7599 232.516 88.2356C232.873 87.8497 233.166 87.4643 233.352 87.0559C233.496 86.7483 233.596 86.4224 233.651 86.0875C233.65 86.1483 233.676 85.8933 233.671 85.9308C233.677 85.9047 233.679 85.8781 233.68 85.8514C233.722 85.2738 233.328 84.7594 232.931 84.6411L232.637 84.554C232.205 84.4256 231.835 84.1438 231.597 83.7617C231.359 83.3796 231.268 82.9235 231.343 82.4794C231.417 82.0353 231.652 81.6338 232.002 81.3505C232.352 81.0672 232.794 80.9218 233.243 80.9415C234.503 80.9974 235.666 81.6058 236.466 82.4857C237.274 83.3665 237.743 84.5365 237.802 85.6972C237.809 85.8383 237.814 85.9828 237.808 86.1629C237.798 86.3819 237.807 86.3084 237.786 86.5493C237.764 86.7972 237.73 87.0439 237.684 87.2886C237.589 87.7824 237.445 88.2655 237.254 88.7306C236.876 89.664 236.317 90.4831 235.696 91.1683C234.444 92.5402 233.008 93.4352 231.6 94.1783C230.906 94.5398 230.196 94.8712 229.474 95.1716L228.411 95.6013C228.259 95.6612 228.02 95.7537 227.839 95.8164L227.284 96.0072C224.427 96.9358 221.652 97.7076 218.833 98.4877C216.026 99.2623 213.216 100.023 210.402 100.771L201.973 103.031C199.163 103.781 196.357 104.545 193.554 105.322L176.67 109.993C176.258 110.107 175.818 110.053 175.446 109.842C175.074 109.631 174.801 109.281 174.687 108.869C174.573 108.457 174.627 108.016 174.838 107.644C175.049 107.272 175.399 106.999 175.811 106.885C175.835 106.878 175.86 106.873 175.884 106.867L175.948 106.852Z" fill="url(#paint27_linear_52_885)"/>
<path d="M236.69 82.7509C234.962 82.3143 233.502 83.3792 233.806 85.3867C234.082 87.2102 235.551 87.6779 235.763 87.8604C235.976 88.0429 234.952 88.9554 231.789 89.645C231.192 89.7749 230.049 90.0543 229.473 89.717C228.284 89.0206 227.318 87.5548 227.236 85.8125C227.151 84.0186 228.439 81.0602 231.951 80.6417C235.266 80.2465 236.69 82.7509 236.69 82.7509Z" fill="url(#paint28_linear_52_885)"/>
<path d="M178.389 106.222C178.205 106.275 177.997 106.327 177.997 106.327L176.95 106.603C176.61 106.69 176.233 106.788 175.948 106.852L175.883 106.867C175.673 106.914 175.475 107.003 175.301 107.128C175.126 107.253 174.978 107.412 174.865 107.595C174.753 107.778 174.678 107.982 174.646 108.195C174.613 108.407 174.623 108.624 174.676 108.832C174.728 109.041 174.822 109.237 174.951 109.408C175.08 109.58 175.242 109.724 175.428 109.832C175.614 109.941 175.82 110.011 176.033 110.038C176.246 110.066 176.462 110.05 176.67 109.993L179.238 109.282C179.238 109.282 177.951 108.544 178.389 106.222Z" fill="#E3DDE4"/>
<path d="M236.21 130.403C230.353 122.445 220.271 115.438 217.656 110.693C216.727 109.009 217.047 106.739 216.986 103.819C216.949 102.05 216.846 100.219 216.77 99.046C214.648 99.6265 212.526 100.206 210.402 100.77L207.095 101.657C207.244 103.645 206.913 107.254 206.645 107.469C206.341 107.712 205.915 106.07 205.246 104.001C204.576 101.933 203.522 98.2751 202.508 98.8304C201.656 99.2966 202.391 107.968 203.086 110.48C203.877 113.339 207.132 114.749 210.539 118.642C213.945 122.535 224.381 139.328 229.843 144.841C234.264 149.302 239.94 152.602 242.14 151.269C244.119 150.071 245.7 148.937 245.66 146.179C245.62 143.482 241.697 137.859 236.21 130.403Z" fill="url(#paint29_linear_52_885)"/>
<path d="M206.206 106.587C206.395 107.043 206.7 107.425 207.109 107.654C207.515 107.887 207.994 107.978 208.486 108.039C208.979 108.104 209.495 108.128 210.033 108.279C210.3 108.355 210.575 108.473 210.82 108.659C211.065 108.843 211.264 109.096 211.397 109.366L211.403 109.378C211.426 109.422 211.439 109.471 211.442 109.521C211.446 109.571 211.439 109.621 211.422 109.668C211.405 109.715 211.379 109.758 211.345 109.794C211.311 109.831 211.269 109.86 211.224 109.88C211.178 109.9 211.128 109.91 211.078 109.91C211.028 109.911 210.979 109.901 210.933 109.881C210.887 109.861 210.846 109.832 210.811 109.796C210.777 109.76 210.75 109.717 210.733 109.67C210.585 109.283 210.277 109.016 209.843 108.857C209.413 108.696 208.911 108.626 208.407 108.521C207.903 108.416 207.37 108.276 206.914 107.964C206.453 107.658 206.136 107.172 205.979 106.678L205.977 106.671C205.972 106.656 205.97 106.639 205.971 106.623C205.972 106.607 205.977 106.592 205.984 106.577C205.992 106.563 206.002 106.55 206.014 106.54C206.026 106.53 206.041 106.522 206.056 106.517C206.085 106.508 206.117 106.509 206.145 106.522C206.173 106.535 206.195 106.558 206.206 106.587ZM208.851 102.007C208.85 102.36 208.847 102.713 208.836 103.062C208.823 103.407 208.81 103.771 208.758 104.069L208.756 104.079C208.75 104.127 208.753 104.175 208.765 104.222C208.777 104.268 208.798 104.311 208.827 104.35C208.856 104.388 208.893 104.42 208.934 104.444C208.976 104.468 209.021 104.484 209.069 104.49C209.116 104.497 209.165 104.494 209.211 104.481C209.258 104.469 209.301 104.448 209.339 104.419C209.377 104.39 209.409 104.353 209.433 104.312C209.458 104.271 209.473 104.225 209.48 104.177C209.519 103.771 209.501 103.424 209.49 103.059C209.475 102.702 209.455 102.345 209.43 101.988L209.358 101.05L208.846 101.187L208.851 102.007ZM211.678 101.087L211.707 102.093C211.711 102.424 211.716 102.771 211.694 103.072L211.693 103.081L211.692 103.108C211.697 103.202 211.738 103.29 211.806 103.354C211.874 103.419 211.964 103.455 212.058 103.455C212.152 103.455 212.242 103.418 212.31 103.354C212.378 103.289 212.418 103.201 212.423 103.107C212.423 102.732 212.39 102.403 212.362 102.059L212.258 101.043C212.227 100.792 212.196 100.543 212.165 100.293C211.992 100.339 211.82 100.387 211.647 100.434C211.658 100.651 211.669 100.87 211.678 101.087ZM214.762 100.212C214.742 100.01 214.712 99.8104 214.69 99.6089L214.21 99.7388C214.212 99.9062 214.22 100.074 214.22 100.241L214.211 101.169C214.201 101.471 214.192 101.793 214.15 102.052L214.149 102.06C214.146 102.072 214.145 102.086 214.144 102.098C214.142 102.193 214.177 102.286 214.241 102.355C214.306 102.425 214.395 102.467 214.49 102.473C214.585 102.478 214.678 102.446 214.75 102.384C214.822 102.321 214.867 102.233 214.875 102.139C214.894 101.777 214.868 101.474 214.847 101.154C214.823 100.839 214.795 100.526 214.762 100.212Z" fill="#9B6D6D"/>
<path d="M218.939 73.6405C218.221 73.4108 217.535 73.1446 216.935 72.8248C216.236 72.4564 215.661 71.9941 215.404 71.5804C215.345 71.4878 215.296 71.3891 215.257 71.286C215.24 71.2405 215.226 71.1938 215.216 71.1463L215.183 70.9735C215.186 70.8932 215.189 70.7098 215.273 70.4771C215.427 69.99 215.889 69.2542 216.418 68.4492C216.943 67.6321 217.555 66.7006 218.011 65.5273C218.473 64.3695 218.702 62.8988 218.46 61.5215C218.405 61.1835 218.327 60.8495 218.229 60.5214C218.128 60.1934 218.009 59.8713 217.872 59.5568L217.799 59.3909L217.737 59.26L217.681 59.1451C217.605 58.9911 217.524 58.84 217.437 58.692C217.263 58.3922 217.069 58.1046 216.856 57.8311C216 56.722 214.882 55.9292 213.846 55.3744C212.8 54.8133 211.803 54.4337 210.898 54.0765C209.993 53.7227 209.172 53.3951 208.488 53.0316C208.169 52.8661 207.863 52.6772 207.572 52.4666C207.447 52.3757 207.328 52.2788 207.213 52.176L207.128 52.0987L207.061 52.0378L207.027 52.0072C207.082 52.0549 207.042 52.0189 207.054 52.0286L207.052 52.0262L207.047 52.0213C207.025 51.9967 207.005 51.9707 206.986 51.9434C206.917 51.8407 206.865 51.74 206.796 51.5293C206.729 51.3229 206.66 51.0158 206.595 50.6158C206.456 49.8216 206.365 48.674 205.905 47.3323C205.659 46.6183 205.316 45.9417 204.885 45.3213C204.485 44.7545 204.014 44.2409 203.485 43.7927L199.523 48.4389C199.541 48.4496 199.563 48.4608 199.58 48.472C199.959 48.7407 200.15 48.9305 200.373 49.4059C200.597 49.8814 200.752 50.6688 200.999 51.7672C201.129 52.3138 201.295 52.9498 201.592 53.6409C201.882 54.3281 202.336 55.0698 202.923 55.6791C203.068 55.8319 203.221 55.9755 203.378 56.1112L203.465 56.1862L203.5 56.2149L203.571 56.2713L203.766 56.4246C204.053 56.6441 204.304 56.8145 204.58 56.9877C205.097 57.3093 205.637 57.5933 206.195 57.8374C207.259 58.3071 208.267 58.62 209.186 58.912C210.104 59.2011 210.935 59.4687 211.619 59.7788C212.307 60.0892 212.815 60.426 213.181 60.8265C213.322 60.9795 213.447 61.1467 213.553 61.3254L213.581 61.3711L213.589 61.3823L213.574 61.3521L213.58 61.3624L213.6 61.4028L213.684 61.5638C213.735 61.6626 213.805 61.8111 213.858 61.9488C213.909 62.086 213.952 62.2208 213.985 62.3537C214.114 62.8822 214.097 63.4005 213.898 64.057C213.701 64.7097 213.31 65.4489 212.836 66.2845C212.378 67.1347 211.776 68.0521 211.41 69.4391C211.237 70.1379 211.167 70.9458 211.366 71.815L211.421 72.0272C211.501 72.3205 211.607 72.6059 211.738 72.8798C211.904 73.2263 212.104 73.547 212.324 73.8347C213.225 74.9866 214.321 75.6173 215.349 76.0933C215.917 76.3478 216.48 76.5498 217.041 76.7216L218.939 73.6405Z" fill="url(#paint30_linear_52_885)"/>
<path d="M244.897 24.7568C244.902 24.8318 244.912 24.9155 244.914 24.987C244.926 25.3895 244.893 25.7238 244.837 25.9769C244.778 26.2305 244.708 26.3993 244.608 26.5551C244.582 26.5953 244.554 26.6343 244.524 26.6719C244.502 26.6943 244.501 26.7025 244.464 26.739L244.354 26.8476C244.202 26.9931 244.019 27.1512 243.814 27.3172C243.401 27.651 242.897 28.0141 242.344 28.4253C241.79 28.838 241.182 29.2999 240.555 29.878C239.931 30.4552 239.275 31.1653 238.73 32.0705C238.183 32.9684 237.794 34.0702 237.677 35.1389C237.661 35.2722 237.649 35.4046 237.64 35.537L237.63 35.7336L237.623 35.9696L237.63 36.3487C237.636 36.5424 237.651 36.6597 237.665 36.8159C237.731 37.4077 237.88 37.9985 238.091 38.5329C238.518 39.6114 239.131 40.411 239.676 41.0319C240.229 41.6558 240.744 42.1342 241.19 42.5683C242.093 43.4288 242.706 44.1082 243.036 44.7681C243.207 45.099 243.318 45.4329 243.383 45.8125C243.415 45.994 243.436 46.2188 243.441 46.3955L243.442 46.6992C243.435 46.795 243.432 46.8919 243.418 46.9873C243.34 47.7475 243.009 48.5324 242.433 49.3496C241.857 50.1628 241.06 50.9716 240.166 51.7586C238.372 53.3543 236.206 54.8041 234.109 56.7698C233.587 57.2705 233.067 57.8083 232.578 58.4278C232.325 58.7478 232.089 59.082 231.874 59.4289L231.748 59.6367L231.593 59.9078C231.481 60.1005 231.397 60.2704 231.31 60.4436C230.622 61.8345 230.218 63.2604 229.952 64.664C229.53 66.9849 229.468 69.2601 229.603 71.5065L233.196 71.2345C233.208 69.2679 233.396 67.3139 233.844 65.5025C234.127 64.3788 234.517 63.3135 235.038 62.4107C235.104 62.2988 235.17 62.182 235.228 62.0988L235.322 61.9533L235.46 61.7532C235.584 61.5805 235.745 61.3809 235.912 61.1955C236.249 60.8174 236.654 60.4426 237.089 60.0737C238.862 58.5875 241.099 57.2579 243.296 55.5521C244.396 54.6912 245.511 53.7271 246.519 52.4871C247.517 51.2592 248.408 49.6683 248.733 47.8584C248.776 47.635 248.806 47.4097 248.835 47.1839L248.867 46.797L248.883 46.5177C248.902 46.047 248.89 45.6236 248.847 45.1623C248.758 44.2376 248.528 43.3319 248.166 42.4764C247.441 40.7536 246.287 39.4707 245.386 38.4886C244.93 37.9942 244.526 37.5581 244.245 37.1917C243.958 36.8242 243.82 36.5439 243.793 36.4052C243.748 36.2558 243.819 35.7443 244.089 35.4226C244.36 35.0309 245.087 34.4434 246.106 33.7923C246.613 33.4599 247.185 33.1012 247.81 32.6598C248.144 32.424 248.469 32.1752 248.784 31.9138L249.035 31.6977C249.118 31.6261 249.231 31.5191 249.326 31.4285C249.522 31.2373 249.71 31.0339 249.888 30.8222C250.605 29.9715 251.13 28.9631 251.445 27.9781C251.761 26.994 251.894 26.0363 251.933 25.1486L244.897 24.7568Z" fill="url(#paint31_linear_52_885)"/>
<path d="M279.567 49.8186C278.949 50.4595 278.209 50.9516 277.397 51.2329C276.707 51.4762 275.948 51.5789 275.137 51.5482L271.869 51.3307C270.711 51.2718 269.509 51.1871 268.036 51.373C267.304 51.4728 266.475 51.6636 265.642 52.0797C265.117 52.3413 264.631 52.6762 264.2 53.0744L264.034 53.2311L263.962 53.3056C263.739 53.5367 263.581 53.7368 263.435 53.9412C262.851 54.7782 262.592 55.5812 262.408 56.2489C262.229 56.9244 262.128 57.5074 262.025 58.0292C261.828 59.0716 261.617 59.861 261.3 60.4094C261.152 60.6756 260.962 60.9166 260.739 61.1234C260.616 61.2371 260.484 61.3406 260.345 61.4329C260.325 61.4456 260.253 61.4937 260.188 61.5288C260.12 61.567 260.051 61.6026 259.98 61.6354C259.4 61.9108 258.551 62.0641 257.584 62.1176C256.613 62.1765 255.535 62.1478 254.367 62.1614C253.198 62.1863 251.918 62.2121 250.47 62.6301C247.771 63.4409 245.523 65.3296 244.19 67.6807C243.307 69.2215 242.825 70.881 242.605 72.5284L246.518 73.4769C246.708 72.1221 247.11 70.8567 247.771 69.8021C248.217 69.079 248.793 68.4447 249.469 67.9314C250.131 67.4301 250.907 67.052 251.672 66.8524C252.36 66.6728 253.318 66.6407 254.352 66.6655C255.394 66.6865 256.527 66.7604 257.766 66.7322C258.999 66.6962 260.386 66.5809 261.848 65.9832C262.23 65.825 262.598 65.6357 262.95 65.4172C263.277 65.2131 263.589 64.9852 263.883 64.7354C264.495 64.2155 265.021 63.6032 265.444 62.9206C266.283 61.5701 266.617 60.1763 266.876 59.0653C267.005 58.5066 267.116 58.0038 267.237 57.615C267.353 57.2227 267.488 56.9731 267.551 56.9093C267.567 56.8899 267.586 56.8772 267.555 56.9088L267.629 56.8373C267.643 56.8247 267.555 56.9098 267.594 56.8728L267.597 56.8704L267.604 56.8655L267.617 56.8553C267.634 56.8412 267.65 56.8261 267.668 56.8159C267.736 56.7672 267.802 56.7302 267.886 56.6942C268.049 56.6232 268.31 56.556 268.674 56.5224C269.399 56.4504 270.417 56.5181 271.461 56.6178L273.081 56.7843L273.915 56.8714L274.332 56.9137L274.539 56.9342L274.801 56.9546C276.193 57.0617 277.672 56.9376 279.088 56.4986C279.646 56.3285 280.189 56.1125 280.712 55.8528C280.388 54.1621 279.924 51.7346 279.567 49.8186Z" fill="url(#paint32_linear_52_885)"/>
<path d="M197.56 155.391V231.961L117.131 205.031V145.896L197.56 155.391Z" fill="#A99BAB"/>
<path d="M112.164 153.046L188.409 164.402V233.184L111.678 208.364L112.164 153.046Z" fill="#92A6EB"/>
<path d="M170.941 186.906V161.801L116.35 153.815V186.906H170.941Z" fill="white"/>
<path d="M154.762 165.649C152.484 166.118 149.601 165.054 147.592 164.879C144.526 164.611 140.388 164.527 138.462 167.493C137.036 169.686 138.127 171.781 139.726 172.074C140.947 172.298 142.248 171.723 142.742 170.566C143.197 169.501 142.651 168.568 141.863 168.406C141.049 168.238 140.282 168.79 140.12 169.302C139.969 169.779 140.252 170.032 140.556 170.006C141.042 169.964 141.251 169.537 141.444 169.738C141.69 169.995 141.322 170.63 140.606 170.759C140.066 170.857 139.388 170.73 139.232 169.755C139.087 168.84 139.551 168.004 140.622 167.526C141.617 167.083 142.801 167.292 143.537 168.33C144.275 169.369 144.048 171.17 143.069 172.066C141.605 173.404 139.799 173.572 137.004 174.227C133.434 175.064 127.991 176.397 127.187 180.559C126.713 183.018 127.893 184.534 129.036 185.4H170.963V161.804L153.564 159.213C153.756 160.495 154.369 161.596 154.963 162.232C155.902 163.237 157.04 165.18 154.762 165.649Z" fill="#F2D265"/>
<path d="M157.015 166.269C153.95 167.098 151.156 166.013 149.175 165.64C146.721 165.18 144.878 165.95 144.552 166.922C143.999 168.565 146.272 168.968 146.135 171.168C146.017 173.036 142.86 174.657 138.369 175.315C133.336 176.052 131.43 177.93 131.359 180.173C131.291 182.317 132.841 183.356 134.725 183.532C136.53 183.7 138.863 183.295 138.993 185.4H145.901C145.234 182.372 148.318 182.522 150.205 182.099C152.451 181.597 156.571 180.642 157.744 176.949C158.825 173.543 156.01 173.057 156.236 170.273C156.437 167.802 161.111 166.844 165.618 165.884C170.178 164.912 169.437 162.734 169.169 161.662C169.169 161.662 169.159 161.616 169.147 161.533L156.78 159.691C156.977 160.737 157.603 161.674 158.07 162.274C158.63 162.992 159.492 165.599 157.015 166.269Z" fill="#EA9F2F"/>
<path d="M138.67 211.558C144.05 212.213 148.851 213.129 150.808 213.862C155.633 215.671 159.653 217.984 167.795 215.27C173.509 213.364 181.896 213.243 186.39 213.339V182.365C181.982 183.516 184.404 195.587 182.22 196.021C180.437 196.375 180.037 190.256 177.072 191.546C173.733 192.999 176.892 200.175 174.479 201.398C171.193 203.065 169.604 196.272 167.996 195.821C166.388 195.368 165.634 198.835 163.774 198.534C161.915 198.233 163.742 194.763 161.162 194.612C157.993 194.427 154.879 200.947 152.969 200.556C151.261 200.207 152.718 195.469 150.959 195.066C149.201 194.664 146.635 200.624 145.033 200.508C143.22 200.377 145.029 195.469 142.918 195.317C140.807 195.167 138.474 201.622 134.977 201.5C131.481 201.377 129.801 195.117 128.193 195.117C126.584 195.117 126.4 199.221 125.144 199.322C123.887 199.422 123.502 194.162 121.961 193.961C121.608 193.915 121.187 194.236 120.794 194.667C120.1 195.308 116.537 200.763 115.109 200.12C113.743 199.506 114.724 193.282 111.818 192.423L111.678 208.364L123.271 212.114L125.728 208.861C129.72 209.905 135.377 210.2 138.67 211.558Z" fill="#6A74EF"/>
<path d="M160.559 172.417C159.729 174.385 162.493 174.863 161.932 178.615C161.434 181.951 155.734 181.497 153.891 182.603C152.793 183.262 152.658 184.503 152.73 185.4H170.964V170.245C168.89 171.529 161.624 169.89 160.559 172.417Z" fill="#BE4118"/>
<path d="M165.618 165.884C161.111 166.844 156.437 167.802 156.236 170.273C156.01 173.057 158.824 173.544 157.744 176.949C156.571 180.642 152.45 181.598 150.205 182.099C148.317 182.522 145.234 182.373 145.9 185.4H152.729C152.658 184.503 152.793 183.261 153.891 182.603C155.733 181.497 161.433 181.951 161.931 178.615C162.492 174.862 159.729 174.385 160.558 172.416C161.623 169.89 168.889 171.529 170.963 170.245V161.804L169.146 161.533C169.159 161.615 169.168 161.662 169.168 161.662C169.437 162.734 170.178 164.912 165.618 165.884Z" fill="#E1792B"/>
<path d="M143.442 181.529C144.99 181.834 147.464 181.506 148.267 180.457C149.039 179.452 148.602 178.246 149.272 177.609C149.942 176.972 152.642 175.125 153.159 174.091C153.627 173.153 153.259 171.947 152.188 171.578C151.149 171.222 150.244 171.679 149.775 172.617C149.306 173.555 148.87 174.963 147.061 176.001C145.551 176.868 142.149 177.798 141.667 179.351C141.282 180.591 142.337 181.312 143.442 181.529Z" fill="#E1792B"/>
<path d="M180.644 207.211C181.958 207.211 183.023 206.146 183.023 204.833C183.023 203.519 181.958 202.454 180.644 202.454C179.331 202.454 178.266 203.519 178.266 204.833C178.266 206.146 179.331 207.211 180.644 207.211Z" fill="#EA971D"/>
<path d="M150.759 205.286C150.759 205.286 149.375 199.823 148.799 195.781C148.296 192.262 147.693 187.528 147.693 187.528H143.538V187.53L143.537 187.528H139.383C139.383 187.528 138.779 192.262 138.277 195.781C137.7 199.823 136.317 205.286 136.317 205.286H143.537L143.538 205.283V205.286H150.759ZM143.237 201.231C142.986 201.231 142.738 201.182 142.506 201.086C142.274 200.99 142.064 200.85 141.886 200.672C141.709 200.495 141.568 200.284 141.472 200.053C141.376 199.821 141.327 199.573 141.327 199.322V193.191C141.327 192.94 141.376 192.691 141.472 192.46C141.568 192.228 141.709 192.017 141.886 191.84C142.063 191.663 142.274 191.522 142.506 191.426C142.738 191.33 142.986 191.281 143.237 191.281H143.538C144.044 191.281 144.53 191.482 144.888 191.84C145.246 192.198 145.448 192.684 145.448 193.191V199.322C145.448 199.828 145.246 200.314 144.888 200.672C144.53 201.03 144.044 201.231 143.538 201.231H143.237Z" fill="#93778B"/>
<path d="M114.507 185.149V187.044C114.507 187.28 114.554 187.512 114.643 187.73C114.733 187.947 114.865 188.144 115.031 188.31C115.198 188.477 115.395 188.608 115.612 188.698C115.829 188.788 116.062 188.835 116.297 188.834H169.795C170.03 188.835 170.263 188.788 170.48 188.698C170.697 188.608 170.895 188.477 171.061 188.31C171.227 188.144 171.359 187.947 171.449 187.73C171.539 187.512 171.585 187.28 171.585 187.044V185.149H114.507Z" fill="#93778B"/>
<path d="M143.165 216.942C146.644 217.988 150.018 219.121 152.718 220.128C159.726 222.74 181.523 217.881 186.39 216.74V210.766C181.433 211.874 175.359 211.887 159.62 206.458C146.848 202.053 126.93 205.008 116.43 209.902L137.582 216.744C140.458 216.332 142.887 216.151 143.165 216.942Z" fill="#EA971D"/>
<path d="M180.661 208.736C173.19 208.837 166.623 213.594 164.214 213.67C160.723 213.781 155.465 211.182 149.552 210.847C145.479 210.616 136.457 211.793 130.328 214.396L166.508 226.1C167.185 226.173 167.781 226.362 168.274 226.671L186.391 232.531V209.322C184.79 208.958 182.873 208.707 180.661 208.736Z" fill="#F2D265"/>
<path d="M116.645 185.417V153.931L114.507 153.722V185.417H116.645ZM171.586 185.417V161.896L170.178 161.687V185.417H171.586Z" fill="#93778B"/>
<path d="M181.112 174.889C181.482 175.245 181.842 175.609 182.196 175.978C182.552 176.346 182.896 176.726 183.252 177.093C183.608 177.46 183.971 177.823 184.289 178.224C184.37 178.323 184.447 178.425 184.524 178.527C184.6 178.632 184.678 178.733 184.744 178.846C184.809 178.958 184.864 179.08 184.908 179.213C184.951 179.345 184.983 179.487 184.985 179.655C184.836 179.633 184.691 179.589 184.555 179.524C184.433 179.466 184.318 179.396 184.211 179.314C184.108 179.235 184.018 179.144 183.923 179.057C183.831 178.968 183.74 178.878 183.651 178.786C183.294 178.419 182.979 178.014 182.66 177.614C182.34 177.214 182.007 176.826 181.686 176.427C181.363 176.03 181.048 175.626 180.741 175.215C180.722 175.189 180.708 175.16 180.7 175.128C180.692 175.097 180.69 175.064 180.695 175.032C180.7 175 180.711 174.969 180.728 174.941C180.744 174.913 180.766 174.889 180.792 174.87C180.839 174.834 180.897 174.817 180.956 174.821C181.014 174.824 181.07 174.848 181.112 174.889Z" fill="#EA971D"/>
<path d="M174.159 210.381C174.502 211.096 176.324 215.558 176.222 215.898C176.118 216.238 171.57 217.801 170.627 217.456C170.504 217.411 170.526 217.121 170.72 217.015C171.214 216.745 173.642 215.261 173.857 214.808C174.054 214.392 172.14 211.431 172.173 211.413C172.279 211.357 174.159 210.381 174.159 210.381Z" fill="#EAAEA4"/>
<path d="M176.025 215.097C175.843 214.547 175.557 213.787 175.26 213.033C174.62 213.594 173.909 213.708 173.489 213.725C173.748 214.235 173.923 214.668 173.857 214.808C173.77 214.99 173.327 215.338 172.797 215.707C173.514 215.764 174.878 215.873 174.906 215.873C174.927 215.873 175.506 215.465 176.025 215.097Z" fill="white"/>
<path d="M170.627 217.456C171.57 217.802 176.118 216.238 176.222 215.899C176.251 215.802 176.124 215.372 175.92 214.791C175.595 214.973 175.258 215.387 175.02 215.496C174.693 215.648 174.4 215.631 173.86 215.53C173.592 215.479 173.393 215.431 173.213 215.407C172.398 216.019 171.071 216.824 170.72 217.016C170.526 217.121 170.504 217.411 170.627 217.456Z" fill="#5B252C"/>
<path d="M165.015 195.1C165.049 195.904 166.187 202.806 166.656 205.486C167.125 208.166 168.072 212.706 168.323 212.782C168.574 212.857 169.931 212.933 172.369 212.431C174.806 211.928 176.591 210.948 176.615 210.847C176.641 210.746 174.062 204.9 172.773 201.531C171.484 198.162 170.685 195.217 170.685 195.217L165.015 195.1Z" fill="#D36A1A"/>
<path d="M161.388 212.883C161.312 213.713 160.433 218.713 160.157 218.964C159.88 219.215 153.974 218.914 153.974 218.512C153.974 218.11 154.377 218.11 154.955 217.984C155.533 217.858 158.262 217.116 158.581 216.753C158.902 216.389 158.964 212.745 158.926 212.734C158.888 212.725 161.388 212.883 161.388 212.883Z" fill="#EAAEA4"/>
<path d="M158.842 215.302C158.787 216.006 158.703 216.615 158.581 216.753C158.437 216.916 157.802 217.156 157.097 217.384L157.393 217.782L158.7 218.461L160.396 218.263C160.558 217.624 160.757 216.638 160.934 215.679C159.518 215.712 159.168 215.463 158.842 215.302Z" fill="white"/>
<path d="M153.974 218.511C153.974 218.913 159.88 219.215 160.157 218.964C160.237 218.892 160.365 218.429 160.51 217.786C160.042 217.821 159.604 218.151 159 218.151C158.394 218.151 157.867 217.607 157.482 217.256C156.549 217.577 155.322 217.904 154.955 217.984C154.377 218.109 153.974 218.109 153.974 218.511Z" fill="#5B252C"/>
<path d="M159.302 195.669C158.9 196.441 156.01 204.163 155.282 206.726C154.552 209.29 153.974 211.676 154.125 211.877C154.277 212.078 155.684 212.807 157.97 213.159C160.257 213.511 163.153 213.806 163.502 213.658C163.85 213.51 164.311 207.195 164.981 203.342C165.651 199.489 166.758 195.703 166.758 195.703L159.302 195.669Z" fill="#BE4118"/>
<path d="M169.991 174.176C169.907 174.662 169.571 176.236 169.036 176.924C168.499 177.611 172.285 177.175 172.285 177.175C172.285 177.175 172.205 175.218 172.302 173.891C172.303 173.486 171.883 173.255 171.272 173.334C170.599 173.423 169.991 174.176 169.991 174.176Z" fill="#EAAEA4"/>
<path d="M169.893 169.108C169.585 169.353 169.284 169.856 169.001 170.378C168.79 170.766 168.693 170.911 168.21 171.244C167.831 171.505 167.586 171.594 167.57 171.784C167.553 171.973 168.022 172.187 168.034 172.35C168.046 172.514 167.681 174.026 168.323 174.624C168.759 175.031 170.259 175.072 171.585 174.05C172.775 173.135 173.663 170.88 173.236 169.737C172.808 168.593 169.893 169.108 169.893 169.108Z" fill="#FCC3BB"/>
<path d="M170.811 165.879C171.179 166.001 171.305 166.588 171.225 166.86C171.144 167.139 170.964 167.559 171.854 167.752C172.646 167.923 175.272 168.493 175.485 170.931C175.735 173.783 172.369 174.989 171.803 174.247C170.967 173.151 170.964 171.764 171.276 171.257C171.49 170.91 172.252 170.851 172.18 170.378C172.075 169.695 170.622 169.797 169.668 169.333C168.712 168.87 168.399 167.953 168.536 167.123C168.697 166.16 169.804 165.548 170.811 165.879Z" fill="#5B252C"/>
<path d="M177.413 170.649C177.606 171.459 177.265 172.316 176.641 172.45C175.979 172.593 175.385 172.064 175.164 171.186C174.962 170.379 175.18 169.501 175.903 169.318C176.599 169.142 177.22 169.84 177.413 170.649Z" fill="#5B252C"/>
<path d="M179.724 168.84C180.11 169.743 179.81 170.648 179.031 170.988C178.039 171.42 177.195 170.874 176.809 169.971C176.421 169.069 176.756 167.894 177.538 167.559C178.319 167.225 179.336 167.938 179.724 168.84Z" fill="#5B252C"/>
<path d="M180.938 166.897C181.41 167.483 181.277 168.36 180.737 168.795C180.195 169.23 179.375 169.107 178.903 168.52C178.431 167.933 178.406 167.177 178.947 166.741C179.487 166.307 180.466 166.311 180.938 166.897Z" fill="#5B252C"/>
<path d="M173.592 169.376C173.575 169.828 173.469 170.272 173.28 170.682C173.09 171.093 172.838 171.473 172.532 171.808C172.268 172.103 171.971 172.367 171.649 172.597C171.604 172.627 171.555 172.661 171.52 172.681L172.064 173.476C172.128 173.428 172.178 173.387 172.23 173.342C172.281 173.299 172.331 173.254 172.382 173.209C172.673 172.941 172.939 172.646 173.176 172.328C173.495 171.905 173.747 171.435 173.925 170.935C174.101 170.433 174.177 169.9 174.149 169.368C174.134 169.101 174.092 168.835 174.024 168.576C173.842 168.459 173.652 168.354 173.456 168.262C173.555 168.629 173.606 169.005 173.592 169.376Z" fill="#EA971D"/>
<path d="M171.791 174.386C172.513 174.386 173.098 173.801 173.098 173.079C173.098 172.357 172.513 171.771 171.791 171.771C171.069 171.771 170.484 172.357 170.484 173.079C170.484 173.801 171.069 174.386 171.791 174.386Z" fill="#BE4118"/>
<path d="M178.25 183.674C178.614 183.369 179.015 181.786 179.271 180.023C179.436 178.886 179.547 178.116 179.774 177.694C179.995 177.282 180.586 176.92 180.825 176.748C181.146 176.515 181.629 175.981 181.792 176.082C181.956 176.182 181.768 176.697 181.579 176.936C181.39 177.175 181.127 177.527 181.127 177.527C181.127 177.527 182.019 177.413 182.534 177.413C183.049 177.413 184.42 177.253 184.493 177.602C184.548 177.862 183.94 177.954 183.714 178.042C183.488 178.13 183.287 178.163 183.249 178.59C183.212 179.017 183.069 179.519 182.755 179.556C182.441 179.594 180.925 179.499 180.925 179.499C180.925 179.499 180.929 182.602 180.61 184.462C180.293 186.321 179.89 186.89 179.89 186.89L178.25 183.674Z" fill="#EAAEA4"/>
<path d="M177.571 183.721C177.651 183.614 178.212 183.394 178.337 183.482C178.463 183.57 179.925 185.074 180.222 186.799C180.543 188.663 180.235 189.546 179.983 189.6C179.679 189.666 177.147 189.5 176.178 188.13C175.208 186.762 177.571 183.721 177.571 183.721Z" fill="#2421A2"/>
<path d="M174.128 179.587C174.681 179.913 176.784 181.799 177.545 183.381C178.362 185.077 178.331 187.497 177.294 188.131C176.164 188.821 175.083 187.151 174.53 186.021C173.977 184.89 173.191 183.641 172.888 183.113C172.587 182.586 173.524 180.065 173.524 180.065L174.128 179.587Z" fill="#3F40BB"/>
<path d="M167.511 177.242C168.416 176.673 173.2 176.384 173.391 177.041C173.542 177.56 172.57 177.76 172.369 178.699C172.168 179.637 167.511 177.242 167.511 177.242Z" fill="#3A39B6"/>
<path d="M165.283 177.794C165.886 177.325 167.167 176.898 168.199 177.224C169.227 177.552 170.342 178.255 170.964 178.331C171.586 178.406 172.448 178.446 172.448 178.446C172.448 178.446 174.028 179.235 174.129 179.587C174.229 179.939 173.875 181.879 172.771 183.985C171.586 186.246 171.714 187.24 171.816 188.733C171.914 190.152 173.199 194.413 173.022 195.066C172.847 195.719 170.46 196.623 165.208 196.699C159.956 196.775 156.061 196.197 156.061 195.694C156.061 195.192 157.748 189.993 158.054 189.693C158.298 189.453 158.45 189.663 158.549 189.525C158.65 189.387 159.931 186.572 160.962 184.814C161.992 183.055 164.562 178.355 165.283 177.794Z" fill="#2421A2"/>
<path d="M163.209 192.088C163.993 191.808 164.194 190.443 163.994 190.458C162.929 190.535 159.378 190.066 158.503 189.564C158.404 189.614 158.263 189.487 158.053 189.693C157.907 189.837 157.446 191.1 157.003 192.434C158.375 192.464 162.353 192.395 163.209 192.088Z" fill="#3F40BB"/>
<path d="M174.128 179.587C174.044 179.292 172.921 178.69 172.56 178.503C172.688 178.699 172.888 179.033 172.386 179.252C171.884 179.469 169.807 179.771 169.924 180.592C170.041 181.413 171.364 180.608 171.682 181.045C172.001 181.48 170.476 182.603 171.079 183.038C171.682 183.473 172.118 182.033 172.637 182.099C173.032 182.151 173.136 182.685 173.17 183.16C173.961 181.393 174.215 179.892 174.128 179.587Z" fill="#EA971D"/>
<path d="M171.732 194.396C170.995 194.246 170.459 194.815 170.175 194.648C169.89 194.48 171.246 193.324 170.61 192.889C169.974 192.453 169.169 194.045 169.001 194.028C168.834 194.011 169.688 191.934 169.806 191.23C169.923 190.526 170.057 188.952 169.37 188.834C168.683 188.717 168.029 189.99 167.728 190.577C167.426 191.163 167.109 193.089 166.941 193.156C166.774 193.224 166.707 190.56 166.672 190.175C166.639 189.789 166.571 189.346 166.104 189.338C165.692 189.329 165.5 189.823 165.45 190.292C165.4 190.762 165.818 194.313 165.382 194.38C164.947 194.447 164.495 192.906 164.126 193.123C163.757 193.341 163.992 194.196 164.193 194.832C164.347 195.321 164.807 196.16 165.05 196.701L165.207 196.7C169.605 196.637 171.993 195.992 172.757 195.4C172.549 195.014 172.189 194.49 171.732 194.396Z" fill="#F2D265"/>
<path d="M156.382 177.953C155.735 177.691 150.44 174.6 150.401 174.034C150.361 173.451 150.274 172.965 150.246 172.642C150.194 172.053 150.436 171.114 150.327 171.027C150.167 170.9 149.92 171.135 149.712 171.471C149.547 171.735 149.101 172.793 149.101 172.793C149.101 172.793 148.63 172.835 147.84 172.534C147.051 172.234 146.233 171.642 145.931 171.814C145.669 171.964 146.053 172.305 146.241 172.461C146.429 172.617 146.619 172.899 146.676 172.99C146.826 173.225 147.055 173.988 146.995 174.311C146.962 174.494 146.804 174.561 146.853 174.782C146.905 175.015 147.907 175.556 148.443 175.562C148.86 175.566 148.906 175.445 149.018 175.518C149.211 175.644 153.455 179.895 154.857 180.416C156.257 180.939 156.382 177.953 156.382 177.953Z" fill="#FCC3BB"/>
<path d="M167.226 177.284C167.858 178.142 167.269 180.29 164.884 181.43C162.247 182.689 157.273 183.045 155.639 182.372C154.006 181.7 155.292 180.33 155.699 179.485C156.105 178.64 156.485 177.191 157.545 177.313C158.604 177.434 159.631 178.242 160.11 178.212C160.587 178.182 165.342 176.893 166.048 176.805C166.269 176.774 166.494 176.802 166.701 176.886C166.908 176.97 167.089 177.107 167.226 177.284Z" fill="#5C60D5"/>
<path d="M157.784 177.352C157.297 177.793 156.538 180.199 156.524 181.494C156.509 182.79 156.704 183.373 156.437 183.384C155.886 183.409 152.614 182.479 152.393 181.519C152.223 180.77 153.425 179.846 154.151 178.807C154.619 178.137 155.038 177.226 155.61 177.079C156.438 176.865 157.784 177.352 157.784 177.352Z" fill="#3A39B6"/>
<path d="M159.366 180.318C159.84 180.591 160.056 179.368 160.421 179.287C160.972 179.165 161.26 180.299 161.974 180.642C162.2 180.751 162.638 180.808 162.933 180.544C163.16 180.34 163.271 179.995 163.1 179.661C162.938 179.346 162.56 179.133 162.643 178.888C162.745 178.585 163.212 178.963 163.835 178.579C164.302 178.292 164.351 177.586 163.986 177.281C162.412 177.675 160.488 178.173 160.13 178.21C159.675 178.711 158.807 179.996 159.366 180.318Z" fill="#F2D265"/>
<path d="M144.294 169.844L147.897 172.402V167.864L144.294 166.054V169.844Z" fill="url(#paint33_linear_52_885)"/>
<path d="M151.343 170.062L147.896 172.402V167.864L151.343 166.179V170.062Z" fill="url(#paint34_linear_52_885)"/>
<path d="M147.897 167.863L151.343 166.179L147.855 164.837L144.294 166.054L147.897 167.863Z" fill="url(#paint35_linear_52_885)"/>
<path d="M114.503 156.023L185.718 166.057V229.513L114.503 206.378V156.023ZM108.663 149.302V210.622L191.558 237.551V160.982L108.663 149.302Z" fill="url(#paint36_linear_52_885)"/>
<path d="M139.788 215.692C143.317 221.106 145.385 227.067 147.21 228.832C149.035 230.596 149.948 229.927 149.948 229.927C149.948 229.927 151.888 231.388 153.446 231.113C154.48 230.931 153.263 229.683 154.115 230.292C154.967 230.9 156.553 230.931 157.229 230.696C158.22 230.351 157.573 229.47 157.573 229.47C157.573 229.47 159.134 229.805 160.229 229.47C161.63 229.042 161.506 227.858 161.506 227.858C161.506 227.858 158.921 227.493 156.214 225.972C154.13 224.801 152.357 221.626 152.908 221.247C153.233 221.025 155.43 222.301 156.356 223.113C157.846 224.421 160.502 225.182 160.776 224.391C161.125 223.381 157.156 219.088 154.997 217.09C153.103 215.337 150.921 215.874 148.366 212.041C146.419 209.121 135.834 185.031 135.834 180.894C135.834 178.355 141.429 169.535 147.325 161.581C140.924 154.58 135.588 153.1 131.746 152.914C126.15 163.347 122.034 175.133 121.72 180.894C121.113 192.088 136.26 210.277 139.788 215.692Z" fill="url(#paint37_radial_52_885)"/>
<path d="M151.954 224.49C152.143 225.014 152.573 225.568 152.984 226.057C153.413 226.554 153.883 227.013 154.389 227.432C155.401 228.268 156.559 228.945 157.821 229.322C157.87 229.337 157.911 229.37 157.935 229.415C157.959 229.459 157.965 229.511 157.951 229.56C157.936 229.607 157.904 229.647 157.861 229.672C157.819 229.696 157.768 229.704 157.72 229.692C156.382 229.354 155.14 228.697 154.043 227.868C153.493 227.452 152.978 226.989 152.505 226.486C152.267 226.232 152.041 225.966 151.83 225.689C151.622 225.404 151.413 225.116 151.267 224.738C151.235 224.649 151.239 224.55 151.279 224.463C151.318 224.376 151.39 224.309 151.479 224.274C151.568 224.24 151.667 224.242 151.755 224.279C151.842 224.317 151.912 224.387 151.948 224.476L151.95 224.482L151.954 224.49ZM150.27 225.978C150.678 226.883 151.253 227.724 151.939 228.46C152.627 229.194 153.443 229.816 154.355 230.261C154.374 230.27 154.391 230.282 154.405 230.297C154.419 230.312 154.43 230.329 154.437 230.348C154.445 230.367 154.448 230.388 154.448 230.408C154.447 230.429 154.442 230.449 154.434 230.468C154.426 230.486 154.414 230.503 154.399 230.517C154.384 230.531 154.367 230.542 154.347 230.55C154.328 230.557 154.308 230.561 154.287 230.56C154.267 230.56 154.247 230.555 154.228 230.547C153.249 230.149 152.348 229.555 151.571 228.829C150.786 228.099 150.125 227.246 149.615 226.304L149.614 226.301C149.592 226.259 149.578 226.213 149.573 226.165C149.568 226.117 149.573 226.069 149.587 226.023C149.601 225.977 149.623 225.935 149.654 225.898C149.684 225.86 149.722 225.83 149.764 225.807C149.806 225.784 149.852 225.77 149.9 225.766C149.948 225.761 149.996 225.765 150.042 225.779C150.088 225.793 150.131 225.816 150.168 225.846C150.205 225.877 150.236 225.914 150.258 225.956C150.263 225.963 150.267 225.971 150.27 225.978ZM148.711 227.383C148.907 227.886 149.145 228.371 149.422 228.834C149.701 229.292 150.018 229.737 150.422 230.074L150.426 230.078C150.455 230.101 150.473 230.134 150.478 230.17C150.482 230.206 150.473 230.243 150.452 230.272C150.43 230.302 150.398 230.322 150.362 230.329C150.326 230.336 150.289 230.328 150.258 230.309C149.76 229.995 149.365 229.568 149.006 229.125C148.827 228.901 148.659 228.67 148.5 228.433C148.342 228.195 148.193 227.951 148.054 227.701L148.051 227.695C148.028 227.652 148.014 227.604 148.01 227.554C148.005 227.505 148.011 227.456 148.027 227.409C148.042 227.362 148.067 227.318 148.1 227.281C148.133 227.244 148.173 227.214 148.217 227.193C148.262 227.172 148.311 227.16 148.36 227.158C148.409 227.156 148.459 227.164 148.505 227.182C148.551 227.2 148.593 227.227 148.629 227.261C148.664 227.296 148.692 227.337 148.711 227.383Z" fill="#9B6D6D"/>
<path d="M147.326 161.581C151.034 156.58 154.86 151.919 157.491 149.383C160.655 138.798 153.174 132.455 149.583 133.202C143.619 134.442 137.024 143.076 131.747 152.915C135.588 153.101 140.924 154.581 147.326 161.581Z" fill="url(#paint38_linear_52_885)"/>
<defs>
<linearGradient id="paint0_linear_52_885" x1="228.973" y1="120.616" x2="280.712" y2="172.355" gradientUnits="userSpaceOnUse">
<stop stop-color="#EFEEEF"/>
<stop offset="1" stop-color="white"/>
</linearGradient>
<linearGradient id="paint1_linear_52_885" x1="82.5434" y1="62.4808" x2="124.279" y2="104.22" gradientUnits="userSpaceOnUse">
<stop stop-color="white"/>
<stop offset="1" stop-color="#EFEEEF"/>
</linearGradient>
<linearGradient id="paint2_linear_52_885" x1="111.172" y1="340.993" x2="200.139" y2="340.991" gradientUnits="userSpaceOnUse">
<stop stop-color="white"/>
<stop offset="1" stop-color="#EFEEEF"/>
</linearGradient>
<linearGradient id="paint3_linear_52_885" x1="203.37" y1="289.045" x2="203.37" y2="242.423" gradientUnits="userSpaceOnUse">
<stop stop-color="#724A5F"/>
<stop offset="1" stop-color="#5B252C"/>
</linearGradient>
<radialGradient id="paint4_radial_52_885" cx="0" cy="0" r="1" gradientUnits="userSpaceOnUse" gradientTransform="translate(231.808 268.679) rotate(113.304) scale(44.9651 29.2041)">
<stop stop-color="#E08D7D"/>
<stop offset="0.035" stop-color="#E49587"/>
<stop offset="0.137" stop-color="#EFAA9E"/>
<stop offset="0.247" stop-color="#F6B8AE"/>
<stop offset="0.369" stop-color="#FBC0B8"/>
<stop offset="0.527" stop-color="#FCC3BB"/>
<stop offset="1" stop-color="#EAAEA4"/>
</radialGradient>
<linearGradient id="paint5_linear_52_885" x1="147.954" y1="336.801" x2="162.857" y2="336.801" gradientUnits="userSpaceOnUse">
<stop stop-color="#DC6734"/>
<stop offset="1" stop-color="#AE2E41"/>
</linearGradient>
<linearGradient id="paint6_linear_52_885" x1="147.954" y1="336.791" x2="159.206" y2="336.791" gradientUnits="userSpaceOnUse">
<stop stop-color="#E9AA4A"/>
<stop offset="1" stop-color="#EA971D"/>
</linearGradient>
<linearGradient id="paint7_linear_52_885" x1="155.905" y1="309.191" x2="194.857" y2="309.191" gradientUnits="userSpaceOnUse">
<stop stop-color="#92A6EB"/>
<stop offset="1" stop-color="#6A74EF"/>
</linearGradient>
<radialGradient id="paint8_radial_52_885" cx="0" cy="0" r="1" gradientUnits="userSpaceOnUse" gradientTransform="translate(211.452 274.955) rotate(73.6981) scale(72.8874 46.3766)">
<stop stop-color="#E08D7D"/>
<stop offset="0.035" stop-color="#E49587"/>
<stop offset="0.137" stop-color="#EFAA9E"/>
<stop offset="0.247" stop-color="#F6B8AE"/>
<stop offset="0.369" stop-color="#FBC0B8"/>
<stop offset="0.527" stop-color="#FCC3BB"/>
<stop offset="1" stop-color="#EAAEA4"/>
</radialGradient>
<linearGradient id="paint9_linear_52_885" x1="231.573" y1="350.158" x2="260.365" y2="350.158" gradientUnits="userSpaceOnUse">
<stop stop-color="#DC6734"/>
<stop offset="1" stop-color="#AE2E41"/>
</linearGradient>
<linearGradient id="paint10_linear_52_885" x1="240.089" y1="350.465" x2="260.365" y2="350.465" gradientUnits="userSpaceOnUse">
<stop stop-color="#5C60D5"/>
<stop offset="1" stop-color="#2421A2"/>
</linearGradient>
<linearGradient id="paint11_linear_52_885" x1="236.521" y1="350.154" x2="258.642" y2="350.154" gradientUnits="userSpaceOnUse">
<stop stop-color="#E9AA4A"/>
<stop offset="1" stop-color="#EA971D"/>
</linearGradient>
<linearGradient id="paint12_linear_52_885" x1="199.883" y1="326.958" x2="239.727" y2="326.958" gradientUnits="userSpaceOnUse">
<stop stop-color="#92A6EB"/>
<stop offset="1" stop-color="#6A74EF"/>
</linearGradient>
<linearGradient id="paint13_linear_52_885" x1="202.919" y1="273.614" x2="202.919" y2="182.355" gradientUnits="userSpaceOnUse">
<stop stop-color="#AE2E41"/>
<stop offset="1" stop-color="#DC6734"/>
</linearGradient>
<linearGradient id="paint14_linear_52_885" x1="173.642" y1="202.534" x2="224.955" y2="202.534" gradientUnits="userSpaceOnUse">
<stop stop-color="#EA971D"/>
<stop offset="1" stop-color="#E9AA4A"/>
</linearGradient>
<linearGradient id="paint15_linear_52_885" x1="130.125" y1="264.747" x2="130.125" y2="231.408" gradientUnits="userSpaceOnUse">
<stop stop-color="#EA971D"/>
<stop offset="1" stop-color="#E9AA4A"/>
</linearGradient>
<linearGradient id="paint16_linear_52_885" x1="146.198" y1="247.52" x2="187.028" y2="247.52" gradientUnits="userSpaceOnUse">
<stop stop-color="#EA971D"/>
<stop offset="1" stop-color="#E9AA4A"/>
</linearGradient>
<linearGradient id="paint17_linear_52_885" x1="245.702" y1="237.913" x2="284.819" y2="237.913" gradientUnits="userSpaceOnUse">
<stop stop-color="#EA971D"/>
<stop offset="1" stop-color="#E9AA4A"/>
</linearGradient>
<linearGradient id="paint18_linear_52_885" x1="211.41" y1="186.122" x2="225.745" y2="200.457" gradientUnits="userSpaceOnUse">
<stop stop-color="#E9AA4A"/>
<stop offset="1" stop-color="#EA971D"/>
</linearGradient>
<linearGradient id="paint19_linear_52_885" x1="206.684" y1="232.194" x2="227.794" y2="253.304" gradientUnits="userSpaceOnUse">
<stop stop-color="#E9AA4A"/>
<stop offset="1" stop-color="#EA971D"/>
</linearGradient>
<linearGradient id="paint20_linear_52_885" x1="204.002" y1="141.099" x2="244.875" y2="141.099" gradientUnits="userSpaceOnUse">
<stop stop-color="#EAAEA4"/>
<stop offset="0.313" stop-color="#E8A89D"/>
<stop offset="0.782" stop-color="#E39688"/>
<stop offset="1" stop-color="#E08C7C"/>
</linearGradient>
<linearGradient id="paint21_linear_52_885" x1="192.193" y1="125.918" x2="208.287" y2="142.012" gradientUnits="userSpaceOnUse">
<stop stop-color="#5C60D5"/>
<stop offset="0.588" stop-color="#2421A2"/>
<stop offset="1" stop-color="#250F52"/>
</linearGradient>
<linearGradient id="paint22_linear_52_885" x1="179.397" y1="188.647" x2="179.397" y2="125.769" gradientUnits="userSpaceOnUse">
<stop stop-color="#250F52"/>
<stop offset="0.412" stop-color="#2421A2"/>
<stop offset="1" stop-color="#5C60D5"/>
</linearGradient>
<linearGradient id="paint23_linear_52_885" x1="130.898" y1="126.581" x2="130.898" y2="66.2967" gradientUnits="userSpaceOnUse">
<stop stop-color="#BE4118"/>
<stop offset="1" stop-color="#EA971D"/>
</linearGradient>
<linearGradient id="paint24_linear_52_885" x1="168.951" y1="133.851" x2="168.951" y2="104.567" gradientUnits="userSpaceOnUse">
<stop stop-color="#EAAEA4"/>
<stop offset="0.313" stop-color="#E8A89D"/>
<stop offset="0.782" stop-color="#E39688"/>
<stop offset="1" stop-color="#E08C7C"/>
</linearGradient>
<linearGradient id="paint25_linear_52_885" x1="151.836" y1="101.777" x2="183.341" y2="101.777" gradientUnits="userSpaceOnUse">
<stop stop-color="#FCC3BB"/>
<stop offset="0.3" stop-color="#FBC0B8"/>
<stop offset="0.532" stop-color="#F6B8AE"/>
<stop offset="0.74" stop-color="#EFAA9E"/>
<stop offset="0.934" stop-color="#E49587"/>
<stop offset="1" stop-color="#E08D7D"/>
</linearGradient>
<linearGradient id="paint26_linear_52_885" x1="171.749" y1="98.3392" x2="178.415" y2="98.3392" gradientUnits="userSpaceOnUse">
<stop stop-color="#F1AEA3"/>
<stop offset="1" stop-color="#E25AB8"/>
</linearGradient>
<linearGradient id="paint27_linear_52_885" x1="174.628" y1="95.4957" x2="237.81" y2="95.4957" gradientUnits="userSpaceOnUse">
<stop stop-color="#DC6734"/>
<stop offset="1" stop-color="#AE2E41"/>
</linearGradient>
<linearGradient id="paint28_linear_52_885" x1="231.961" y1="89.8771" x2="231.961" y2="80.5993" gradientUnits="userSpaceOnUse">
<stop stop-color="#EA971D"/>
<stop offset="1" stop-color="#AE2E41"/>
</linearGradient>
<linearGradient id="paint29_linear_52_885" x1="201.345" y1="99.9828" x2="247.681" y2="146.319" gradientUnits="userSpaceOnUse">
<stop stop-color="#FCC3BB"/>
<stop offset="0.3" stop-color="#FBC0B8"/>
<stop offset="0.532" stop-color="#F6B8AE"/>
<stop offset="0.74" stop-color="#EFAA9E"/>
<stop offset="0.934" stop-color="#E49587"/>
<stop offset="1" stop-color="#E08D7D"/>
</linearGradient>
<linearGradient id="paint30_linear_52_885" x1="209.231" y1="76.7211" x2="209.231" y2="43.7927" gradientUnits="userSpaceOnUse">
<stop stop-color="#E9AA4A"/>
<stop offset="1" stop-color="#F2D265"/>
</linearGradient>
<linearGradient id="paint31_linear_52_885" x1="240.736" y1="71.5055" x2="240.736" y2="24.7568" gradientUnits="userSpaceOnUse">
<stop stop-color="#6A74EF"/>
<stop offset="1" stop-color="#92A6EB"/>
</linearGradient>
<linearGradient id="paint32_linear_52_885" x1="261.658" y1="73.4774" x2="261.658" y2="49.8186" gradientUnits="userSpaceOnUse">
<stop stop-color="#EA971D"/>
<stop offset="1" stop-color="#E9AA4A"/>
</linearGradient>
<linearGradient id="paint33_linear_52_885" x1="144.307" y1="169.879" x2="148.125" y2="168.489" gradientUnits="userSpaceOnUse">
<stop stop-color="#DC6734"/>
<stop offset="1" stop-color="#AE2E41"/>
</linearGradient>
<linearGradient id="paint34_linear_52_885" x1="147.896" y1="169.29" x2="151.343" y2="169.29" gradientUnits="userSpaceOnUse">
<stop stop-color="#2421A2"/>
<stop offset="1" stop-color="#5C60D5"/>
</linearGradient>
<linearGradient id="paint35_linear_52_885" x1="147.819" y1="167.863" x2="147.819" y2="164.837" gradientUnits="userSpaceOnUse">
<stop stop-color="#DC6734"/>
<stop offset="1" stop-color="#EA971D"/>
</linearGradient>
<linearGradient id="paint36_linear_52_885" x1="111.137" y1="146.828" x2="196.709" y2="232.401" gradientUnits="userSpaceOnUse">
<stop stop-color="#E3DDE4"/>
<stop offset="1" stop-color="white"/>
</linearGradient>
<radialGradient id="paint37_radial_52_885" cx="0" cy="0" r="1" gradientUnits="userSpaceOnUse" gradientTransform="translate(122.791 181.8) rotate(-92.9748) scale(57.2615 30.199)">
<stop stop-color="#E08D7D"/>
<stop offset="0.035" stop-color="#E49587"/>
<stop offset="0.137" stop-color="#EFAA9E"/>
<stop offset="0.247" stop-color="#F6B8AE"/>
<stop offset="0.369" stop-color="#FBC0B8"/>
<stop offset="0.527" stop-color="#FCC3BB"/>
<stop offset="1" stop-color="#EAAEA4"/>
</radialGradient>
<linearGradient id="paint38_linear_52_885" x1="131.747" y1="147.362" x2="158.253" y2="147.362" gradientUnits="userSpaceOnUse">
<stop stop-color="#5C60D5"/>
<stop offset="1" stop-color="#2421A2"/>
</linearGradient>
</defs>
</svg>
